<?xml version="1.0" standalone="no"?>
<!DOCTYPE svg PUBLIC "-//W3C//DTD SVG 1.1//EN" "http://www.w3.org/Graphics/SVG/1.1/DTD/svg11.dtd" >
<svg xmlns="http://www.w3.org/2000/svg">
<metadata>
This is a custom SVG font generated by IcoMoon.
<iconset grid="32"></iconset>
</metadata>
<defs>
<font id="pictos-web" horiz-adv-x="1024" >
<font-face units-per-em="1024" ascent="960" descent="-64" />
<missing-glyph horiz-adv-x="1024" />
<glyph class="hidden" unicode="&#xf000;" d="M0,960L 1024 -64L0 -64 z" horiz-adv-x="0" />
<glyph unicode="&#x61;" d="M 724.48,471.87q-52.29-55.61 -79.265-100.845t-26.975-85.905l0,0 q0-10.79 -7.885-18.675t-18.675-7.885l-159.36,0 q-10.79,0 -18.675,7.885t-7.885,18.675l0,0 q0,40.67 -26.975,85.905t-79.265,100.845q-53.12,70.55 -53.12,158.53q0,72.21 35.69,133.215t 96.695,96.695t 133.215,35.69t 133.215-35.69t 96.695-96.695t 35.69-133.215q0-87.98 -53.12-158.53zM 432.32,205.44l 159.36,0 
q 10.79,0 18.675-7.885t 7.885-18.675t-7.885-18.675t-18.675-7.885l-159.36,0 q-10.79,0 -18.675,7.885t-7.885,18.675t 7.885,18.675t 18.675,7.885zM 512,46.080q-43.99,0 -75.115,15.77t-31.125,37.35l 212.48,0 q0-21.58 -31.125-37.35t-75.115-15.77z" />
<glyph unicode="&#x62;" d="M 666.532,641.713c 15.526,4.194, 24.76,20.128, 20.594,35.684
		c-4.166,15.556-20.128,24.79-35.684,20.594l-293.943-90.446c-15.556-4.166-24.76-20.128-20.624-35.684c 4.166-15.526, 20.128-24.79, 35.684-20.594
		l 24.266,7.456L 424.612,508.098l-29.13,0 c-32.158,0-58.26-26.099-58.26-58.26l0-121.381 l 58.26-82.522l 233.034,0 l 58.26,82.522l0,121.381 c0,32.158-26.099,58.26-58.26,58.26l-29.13,0 l 58.696,131.024L 666.532,641.713z
		 M 541.132,508.098l-58.26,0 l-36.208,65.948l 143.84,44.277L 541.132,508.098zM 651.442,785.35L 357.5,694.904c-15.556-4.166-24.76-20.128-20.624-35.684
		c 4.166-15.526, 20.128-24.79, 35.684-20.594l 293.943,90.446c 15.526,4.194, 24.76,20.128, 20.594,35.684S 666.968,789.546, 651.442,785.35zM 372.559,726.014l 293.943,90.446c 15.526,4.194, 24.76,20.128, 20.594,35.684
		c-4.166,15.556-20.128,24.79-35.684,20.594L 357.5,782.29c-15.556-4.166-24.76-20.128-20.624-35.684C 341.041,731.082, 357.034,721.848, 372.559,726.014zM 613.954,216.804l-203.906,0 c-8.039,0-14.564-6.526-14.564-14.564s 6.526-14.564, 14.564-14.564l 203.906,0 
		c 8.011,0, 14.564,6.526, 14.564,14.564S 621.964,216.804, 613.954,216.804zM 613.954,158.548l-203.906,0 c-8.039,0-14.564-6.526-14.564-14.564s 6.526-14.564, 14.564-14.564l 203.906,0 
		c 8.011,0, 14.564,6.526, 14.564,14.564S 621.964,158.548, 613.954,158.548zM 613.954,100.288l-203.906,0 c-8.039,0-14.564-6.526-14.564-14.564s 6.526-14.564, 14.564-14.564l 203.906,0 
		c 8.011,0, 14.564,6.526, 14.564,14.564S 621.964,100.288, 613.954,100.288zM 468.308,42.030c-2.942-23.945, 19.576-43.694, 43.694-43.694s 43.694,19.576, 43.694,43.694
		C 555.694,40.778, 468.308,38.942, 468.308,42.030zM 374.248,812.091l 194.584,60.968c 15.352,4.806, 23.885,21.176, 19.078,36.498
		c-4.806,15.352-21.148,23.915-36.498,19.108l-194.584-60.968c-15.352-4.806-23.885-21.176-19.078-36.528C 342.556,815.848, 358.899,807.284, 374.248,812.091z" />
<glyph unicode="&#x63;" d="M 100,880l0-80.002 l 34.75,0 c-4.791-53.914 -0.5-212.421 -0.5-417.312l0-400.125 l 369.25,0 l 369.25,0 l0,400.125 c0,204.894 -0.282,363.4 -6.844,417.313l 54.094,0 l0,80 l-820,0 zM 151.156,799.998l 698.998,0.001c-8.531-32.398 -16.281-98.608 -16.281-156.781
c0-80.641 -8.178-139.594 -19.406-139.594c-2.004,0 -3.958-1.325 -5.78-3.781l-610.375,0 c-1.822,2.456 -3.745,3.781 -5.749,3.781c-11.229,0 -19.438,58.953 -19.438,139.594c0,58.175 -11.403,124.384 -21.969,156.78z
M 503.498,782.78c-194.342,0 -310.938-6.994 -310.938-18.625s 116.596-18.594 310.938-18.594s 310.969,6.963 310.969,18.594s-116.627,18.625 -310.969,18.625zM 503.498,726.937c-194.342,0 -310.938-6.963 -310.938-18.594
s 116.596-18.625 310.938-18.625s 310.969,6.994 310.969,18.625s-116.627,18.594 -310.969,18.594zM 503.498,671.124c-194.342,0 -310.938-6.994 -310.938-18.625s 116.596-18.594 310.938-18.594s 310.969,6.963 310.969,18.594
s-116.627,18.625 -310.969,18.625zM 503.498,615.28c-194.342,0 -310.938-6.963 -310.938-18.594s 116.596-18.625 310.938-18.625s 310.969,6.994 310.969,18.625s-116.627,18.594 -310.969,18.594zM 503.498,557.437
c-182.496,0 -310.938-7.263 -310.938-17.594s 128.441-17.594 310.938-17.594s 310.969,7.263 310.969,17.594s-128.473,17.594 -310.969,17.594zM 208.717,466.155l 277.719,0 c-1.586-8.737 -2.375-22.955 -2.375-46.25l0-83.75 l-136.031,0 l-136.031,0 l0,83.75 
c0,17.074 -1.225,32.971 -3.281,46.25zM 518.217,466.155l 280.062,0 c-2.057-13.279 -3.25-29.176 -3.25-46.25l0-83.75 l-136.062,0 l-136.031,0 l0,83.75 c0,23.298 -1.842,37.513 -4.719,46.25zM 211.998,298.937l 136.031,0 l 136.031,0 l0-120.969 l0-120.969 l-136.031,0 l-136.031,0 
l0,120.969 l0,120.969 zM 522.936,298.937l 136.031,0 l 136.062,0 l0-120.969 l0-120.969 l-136.062,0 l-136.031,0 l0,120.969 l0,120.969 z"  />
<glyph unicode="&#x64;" d="M 150,907.75c 9.596-27.993 -4.198-63.549 20.125-86.657c 0.091-14.063 22.17-4.907 32.781-7.281c 216.483,0.852 432.981,0.135 649.469,0.376c 2.565,11.259 14.279,16.219 11.844,35
c 2.268,19.020 5.827,42.355 7.563,58.563l-721.781,0 zM 187.75,769.655l 0.001-778.688l 19.281,0 l 628.312,0 l0,804.531 c-10.463-3.252 -34.881,7.438 -34.095-7.063l0-273.594 c-10.594-5.767 -17.903-3.974 -20.813-5.844l-552.375,0 
c-4.018,3.009 -6.675,7.090 -6.219,12.906l0,273.594 c-36.844-0.5 -36.844,4.5 -34.094-25.844zM 238.876,795.499c 2.561-11.479 -5.525-33.569 4.688-37.438l 540.656,0 c-3.434,11.396 7.611,37.282 -7.063,37.438l-538.281,0 zM 238.876,739.373
c 2.566-11.473 -5.535-33.579 4.688-37.438l 540.656,0 c-3.434,11.396 7.611,37.282 -7.063,37.438l-538.281,0 zM 238.876,683.216c 2.564-11.464 -5.532-33.554 4.688-37.406l 540.656,0 c-3.438,11.382 7.616,37.267 -7.063,37.406l-538.281,0 z
M 238.876,627.092c 2.564-11.464 -5.532-33.554 4.688-37.406l 540.656,0 c-3.438,11.382 7.616,37.267 -7.063,37.406l-538.281,0 zM 238.876,568.937c 2.626-10.732 -5.525-32.23 4.688-35.374l 540.656,0 
c-3.532,10.609 7.726,36.022 -7.063,35.374l-538.281,0 zM 250.564,469l 243.781-0.001c 0.107-40.297 1.449-80.642 -1.656-120.812c-78.826-3.826 -157.867-0.763 -236.781-1.749c0,45.323 -3.86,80.967 -5.344,122.562z
M 529.408,468.999l 237.594,0 c-0.212-40.283 1.654-80.649 -1.625-120.812c-78.825-3.833 -157.867-0.763 -236.781-1.749c 0.451,46.055 -0.172,79.982 0.813,122.562zM 647.908,309.218c 39.775,0.042 79.551-0.483 119.251-3.249
c-0.918-79.469 1.94-159.042 -1.656-238.438c-77.905-3.741 -156.013-0.758 -234.001-1.719c-5.233,80.966 -2.031,162.143 -2.906,243.219c 39.762-0.467 79.537,0.145 119.312,0.187zM 255.908,309.032l 238.594,0.001
c-0.929-80.489 1.964-161.084 -1.656-241.5c-78.884-3.75 -157.971-0.756 -236.938-1.72l0,243.219 z"  />
<glyph unicode="&#x65;" d="M 793.6,896l-512,0 l 256-128l0-832 l-384,192l0,832 l 704,0 l0-832 l-64,0 l0,768 z" />
<glyph unicode="&#x66;" d="M 883.84,417.92l-53.12,0 q-22.41,0 -37.765,15.355t-15.355,37.765t 15.77,37.765t 37.35,15.355l 53.12,0 q 21.58,0 37.35-15.355t 15.77-37.35t-15.355-37.765t-37.765-15.77zM 781.75,671.9q-14.94-14.94 -35.275-14.94t-34.445,14.525t-14.11,34.86t 14.11,35.275l 34.86,34.030q 14.11,14.94 34.445,14.94t 34.86-14.525t 14.525-34.86t-14.11-34.445zM 724.48,232q0-10.79 -7.885-18.675t-18.675-7.885l-371.84,0 
q-10.79,0 -18.675,7.885t-7.885,18.675l0,239.040 q0,87.98 62.25,150.23t 150.23,62.25t 150.23-62.25t 62.25-150.23l0-239.040 zM 512.415,736.64q-21.995,0 -37.765,15.77t-15.77,37.35l0,53.12 q0,22.41 15.355,37.765t 37.765,15.355t 37.765-15.355t 15.355-37.765l0-53.12 q0-21.58 -15.355-37.35t-37.35-15.77zM 242.25,671.9l-34.030,34.86q-14.94,14.11 -14.94,34.445t 14.525,34.86t 34.86,14.525t 34.445-14.94l 34.86-34.030
q 14.11-14.94 14.11-35.275t-14.11-34.445t-34.445-14.11t-35.275,14.11zM 246.4,471.455q0-21.995 -15.355-37.765t-37.765-15.77l-53.12,0 q-21.58,0 -37.35,15.77t-15.77,37.765t 15.77,37.35t 37.35,15.355l 53.12,0 q 22.41,0 37.765-15.355t 15.355-37.35zM 140.16,152.32l 743.68,0 q 21.58,0 37.35-15.355t 15.77-37.765t-15.77-37.765t-37.35-15.355l-743.68,0 q-21.58,0 -37.35,15.355t-15.77,37.765t 15.77,37.765t 37.35,15.355
z" />
<glyph unicode="&#x67;" d="M 313.344,206.528c 16.448-44.992, 65.706-68.246, 110.294-51.84l 215.274,74.006l 30.506-127.338
	c 6.592-30.698, 50.326-58.666, 82.518-58.666l 122.666,0 c 23.466,0, 42.666-19.2, 42.666-42.688l0-10.666 c0-29.462, 23.914-53.334, 53.334-53.334c 29.462,0, 53.334,23.872, 53.334,53.334l0,106.688 l0,106.666 
	c0,29.418-23.872,53.334-53.334,53.334c-29.418,0-53.334-23.914-53.334-53.334l0-10.666 c0-23.466-19.2-42.666-42.666-42.666l-64,0 c-23.466,0-36.906,19.84-42.666,42.666l-19.008,74.454l 218.454,75.114
	c 44.586,16.426, 67.626,66.326, 51.414,111.574l-161.706,449.728c-16.214,45.014-65.494,68.288-110.080,51.84L 203.264,767.85c-44.566-16.448-67.606-66.346-51.37-111.594
	l 36.694-102.186l-80.618-29.654l-3.862,10.24c-10.026,28.16-40.96,42.666-68.694,32.426c-27.968-10.24-42.24-41.386-32.214-69.782L 98.774,231.68
	c 10.026-28.374, 40.96-42.88, 68.886-32.618c 27.754,10.454, 42.218,41.578, 31.978,69.76L 192,288.022l 31.978,17.942l 39.254,10.048L 313.344,206.528z M 682.624,778.71
	c0,29.44, 23.914,53.334, 53.312,53.334c 29.462,0, 53.334-23.914, 53.334-53.334s-23.872-53.334-53.334-53.334C 706.538,725.376, 682.624,749.29, 682.624,778.71z" />
<glyph unicode="&#x68;" d="M 831.635,46.080l-638.27,0 q-21.58,0 -37.35,15.77t-15.77,37.35l0,743.68 q0,22.41 15.77,37.765t 37.35,15.355l 638.27,0 q 21.58,0 37.35-15.355t 15.77-37.765l0-743.68 q0-21.58 -15.77-37.35t-37.35-15.77zM 379.285,789.76l-106.24,0 q-10.79,0 -18.675-7.885t-7.885-18.675t 7.885-18.675t 18.675-7.885l 106.24,0 q 10.79,0 18.675,7.885t 7.885,18.675t-7.885,18.675t-18.675,7.885zM 379.285,683.52l-106.24,0 q-10.79,0 -18.675-7.885
t-7.885-18.675t 7.885-18.675t 18.675-7.885l 106.24,0 q 10.79,0 18.675,7.885t 7.885,18.675t-7.885,18.675t-18.675,7.885zM 379.285,577.28l-106.24,0 q-10.79,0 -18.675-7.885t-7.885-18.675t 7.885-18.675t 18.675-7.885l 106.24,0 q 10.79,0 18.675,7.885t 7.885,18.675t-7.885,18.675t-18.675,7.885zM 379.285,471.040l-106.24,0 q-10.79,0 -18.675-7.885t-7.885-18.675t 7.885-18.675t 18.675-7.885l 106.24,0 
q 10.79,0 18.675,7.885t 7.885,18.675t-7.885,18.675t-18.675,7.885zM 724.565,429.54l0,253.98 q0,43.99 -31.125,75.115t-75.115,31.125t-75.115-31.125t-31.125-75.115l0-253.98 q-53.12-47.31 -53.12-117.86q0-65.57 46.895-112.465t 112.88-46.895t 112.88,46.895t 46.895,112.465q0,69.72 -53.95,117.86zM 618.325,205.44q-43.99,0 -75.115,31.125t-31.125,75.115q0,29.050 14.525,53.12t 38.595,38.18l0,174.3 
l 106.24,0 l0-174.3 q 24.9-14.11 39.010-38.18t 14.11-53.12q0-43.99 -31.125-75.115t-75.115-31.125z" />
<glyph unicode="&#x69;" d="M 678.124,878.572c-41.586,0.851 -74.518-38.773 -70.272-78.851c-5.155-190.964 -1.859-382.069 -2.725-573.099l0-144.13 c 17.886-23.459 35.318-53.463 68.964-52.957c 30.621,1.619 55.929,21.45 67.672,48.88
c 9.589,26.337 3.739,59.296 7.008,87.775c 3.133,210.371 4.854,420.906 -1.733,631.22c-1.444,18.253 0.535,35.671 -13.489,49.228c-10.904,19.696 -33.097,31.862 -55.424,31.933zM 273.026,877.387
c-28.605,4.556 -48.038-16.51 -62.268-37.862c-13.867-12.786 -4.887-33.292 -7.422-49.907l0-707.123 c 15.553-20.347 26.297-48.739 55.966-51.902c 35.36-7.706 71.592,22.25 81.079,54.292
c 10.516,238.311 8.619,477.12 2.92,715.55c-1.049,36.091 -24.489,74.474 -63.433,76.564l-6.842,0.39zM 466.914,877.388c-27.426-2.099 -53.623-27.635 -61.148-51.888c-1.408-113.062 -4.194-226.131 -3.090-339.241
c 1.031-135.364 -3.068-271.062 6.229-406.133c 8.537-38.958 59.963-63.598 95.314-43.071c 22.616,9.563 37.735,33.264 38.67,56.385c 5.387,229.859 2.25,459.848 3.061,689.77c-1.529,20.957 6.205,45.679 -12.718,59.983
c-16.847,21.195 -37.32,37.379 -66.317,34.195zM 678.711,816.061c 28.809-19.729 8.592-71.125 15.479-103.427c 0.937-195.873 3.703-391.864 -2.27-587.672c 10.105-29.339 -30.381-51.788 -28.442-11.842
c-7.531,127.11 -3.699,254.616 -5.492,381.902c 0.607,101.396 -1.647,202.973 3.984,304.225c 1.094,12.756 5.068,14.435 16.741,16.814zM 270.693,815.35c 28.223-23.679 10.382-79.335 16.708-115.887
c 1.555-192.119 3.363-384.349 -2.648-576.4c 11.615-26.38 -25.632-48.898 -25.477-12.665c-8.976,179.812 -3.371,360.075 -3.4,540.074c 1.856,53.803 -1.909,108.332 7.034,161.562l 3.681,2.161l 4.105,1.154
l-0.002,0.001l0,0 zM 474.315,812.506c 20.615-28.079 6.753-75.918 11.937-111.235c 0.218-194.231 2.633-388.549 -2.841-582.721c 7.010-24.539 -19.476-41.882 -18.797-6.577c-8.493,121.433 -3.184,243.408 -4.242,365.062
c 1.882,107.826 -1.934,215.969 5.527,323.575c 0.934,4.322 1.834,12.867 8.416,11.896zM 850.604,792.615c-67.272,0.525 -107.427-81.324 -87.878-140.155c 9.516-40.132 44.016-76.625 88.087-71.652
c 60.584,0.381 89.195,71.788 79.825,123.781c-6.231,39.88 -37.129,83.803 -80.034,88.026zM 191.273,765.146c-33.773-4.136 -71.885-15.694 -83.76-51.714c-17.060-43.075 -2.148-101.445 44.889-117.83
c 22.756-11.203 46.715-1.426 38.481,24.737c 0.213,48.267 -0.453,96.548 0.39,144.807zM 390.22,764.198c-10.253-5.047 -35.201,3.014 -34.426-11.87c-1.325-51.922 -2.133-103.851 -3.338-155.775
c 10.063-5.67 46.2-14.273 40.88,8.104l0,154.806 c-4.47-1.529 -2.851,2.132 -3.116,4.735zM 558.412,763.251c 0.095-58.295 -0.134-117.572 0-175.223c 11.753,3.118 30.767,0.8 36.64,8.524
c 2.132,23.112 -0.728,51.109 -0.512,76.098c 0.094,30.2 1.167,60.4 1.637,90.601l-37.765,0 zM 843.402,723.233c 33.185,0.911 44.77-58.106 15.229-71.017c-41.75-18.136 -59.356,48.206 -25.938,67.465l 5.126,2.383
l 5.581,1.169l 0.001,0 zM 190.883,318.089c-24.855-2.581 -53.259-2.62 -69.223-25.832c-35.248-41.268 -27.191-121.745 28.565-140.425c 11.872,1.22 46.332-12.99 40.657,9.558l0,156.699 zM 352.845,317.142l0-168.593 
c 11.354,3.984 31.484-3.791 37.376,4.263c 7.349,8.213 0.982,28.214 3.115,40.91l0,118.685 c-6.094,8.321 -24.467,1.286 -37.040,4.336l-2.363,0.273l-1.088,0.126l0,0 zM 558.411,316.194l0-167.646 
c 11.259,5.447 37.413-7.247 37.376,8.083l0,159.562 l-37.376,0 zM 757.748,316.194l 0.001-166.696c 31.541-2.898 67.192,5.566 81.136,37.664c 27.721,47.571 2.171,121.158 -55.779,128.758c-8.438,0.535 -16.908,0.165 -25.357,0.274z
"  />
<glyph unicode="&#x6a;" d="M 430.275,878.543c-46.165-2.241 -31.677-61.481 -34.426-93.193c 7.663-43.545 -24.459-15.030 -42.538-1.729c-49.152,28.223 -74.294-47.763 -26.2-66.739c 27.091-21.964 71.458-37.265 68.076-79.808
c-1.101-34.842 5.083-71.197 -4.753-104.914c-36.428-2.203 -70.423,37.62 -103.261,55.701c-35.065,30.859 -6.863,83.442 -27.766,121.46c-31.988,53.060 -74.605-8.617 -61.516-48.539
c-9.16-37.701 -56.178,25.629 -81.529,21.489c-49.296,13.237 -49.498-65.563 -7.039-73.693c 37.535-13.678 64.19-42.733 12.639-57.913c-47.159-30.725 4.769-95.821 45.83-55.932
c 32.576,17.15 72.080,43.567 106.323,13.598c 18.82-17.986 92.515-35.023 59.303-66.973c-32.99-18.614 -63.569-51.412 -103.174-52.239c-38.351,6.222 -72.929,52.681 -112.229,35.941
c-37.158-32.98 7.085-71.050 38.365-85.327c-15.729-32.648 -74.495-36.011 -77.881-77.763c 7.871-63.94 78.231-12.492 109.786,3.572c 23.554-6.998 -5.638-101.148 52.040-82.386c 39.81,22.583 21.162,78.291 32.142,115.545
c 10.532,37.898 54.929,49.090 82.944,71.524c 17.173,18.124 48.111,27.633 39.796-9.798c-2.141-38.922 7.483-80.817 -7.080-117.976c-24.148-32.043 -73.162-41.59 -87.986-81.862c-1.714-55.659 61.655-38.286 86.883-10.868
c 19.371-34.029 -7.495-93.24 31.094-116.815c 58.47-9.841 32.762,69.915 40.236,104.018c 1.391,220.546 2.28,441.144 -0.954,661.673c-4.656,24.299 7.516,77.107 -27.126,79.945zM 507.077,878.544
c-8.147-48.921 -5.927-99.573 -3.304-149.043c 19.943-42.872 89.488-22.028 123.449-56.599c 78.316-46.832 133.203-136.619 125.044-229.419c 3.47-50.101 -8.153-100.961 -38.823-141.425
c-34.474-49.944 -81.5-95.438 -142.873-108.3c-29.98-13.165 -81.757-1.694 -68.346-48.917c-0.146-42.942 -2.264-86.397 3.31-128.984c 24.296,34.349 29.336,86.555 71.605,106.766c 45.175,16.743 84.639-22.686 118.409-46.805
c 43.601-31.847 0.318,53.962 12.12,75.528c-1.954,39.563 25.573,90.13 71.763,79.29c 24.282,3.622 69.056-12.957 81.192,1.123c-18.346,37.143 -58.69,67.856 -55.173,113.879c 2.918,49.112 56.824,69.394 95.834,85.269
c 48.273,17.011 -44.605,37.383 -57.999,54.499c-42.177,20.304 -48.292,74.791 -20.189,109.53c 7.209,21.288 56.201,62.113 35.263,71.853c-39.347-9.73 -84.676-19.495 -122.205,0.961c-36.343,30.183 -25.8,83.769 -20.874,124.938
c 6.231,21.082 3.284,44.172 -18.408,20.083c-32.82-27.774 -78.969-73.693 -124.268-42.822c-35.375,25.052 -44.038,69.527 -62.474,105.806l-3.052,2.787l-0.001,0 zM 525.839,661.48c-36.211-16.196 -17.645-72.685 -23.754-105.951
c-0.104-104.899 -1.99-209.918 3.231-314.704c 25.389-21.928 66.68,0.66 94.506,10.885c 110.462,57.063 149.366,216.334 74.782,316.778c-34.149,48.838 -87.547,89.486 -148.766,92.992z"  />
<glyph unicode="&#x6b;" d="M 763.568,142.025q-61.065-63.558 -143.317-85.99t-164.503,0t-143.317,85.99t-83.083,148.718t0,169.905t 82.667,148.718l 225.984,286.636l 225.984-286.636q 60.65-63.974 82.667-148.718t0-169.905t-83.083-148.718zM 387.62,203.091q 6.647-7.478 9.555-11.217t 12.878-8.724t 21.602-4.986q 25.756,0 38.634,14.539t 12.878,33.648q0,23.263 -19.109,66.881t-38.634,93.468t-19.525,88.067
q0,23.263 19.941,61.897t 39.049,66.051l 19.941,27.417l-26.587,0 l-70.621-80.59q-62.312-77.267 -62.312-173.227t 62.312-173.227z" />
<glyph unicode="&#x6c;" d="M 936.96,584.665q-80.51-51.46 -79.68-113.71q 1.66-64.74 79.68-113.71q-211.65-9.96 -113.71-197.54q-188.41,97.94 -197.54-113.71q-51.46,80.51 -113.71,79.68q-63.91-1.66 -113.71-79.68q-9.13,211.65 -197.54,113.71q 97.94,187.58 -113.71,197.54q 80.51,51.46 79.68,113.71q-1.66,63.91 -79.68,113.71q 211.65,9.13 113.71,196.71q 188.41-97.11 197.54,113.71q 49.8-77.19 113.71-78.85q 62.25-1.66 113.71,78.85q 9.13-210.82 197.54-113.71
q-97.94-187.58 113.71-196.71zM 512,736.555q-72.21,0 -133.63-35.69t-96.695-96.695t-35.275-133.215t 35.275-133.63t 96.695-96.695t 133.63-35.275t 133.63,35.275t 96.695,96.695t 35.275,133.63t-35.275,133.215t-96.695,96.695t-133.63,35.69zM 512,258.475q-87.98,0 -150.23,62.25t-62.25,150.23t 62.25,150.23t 150.23,62.25t 150.23-62.25t 62.25-150.23t-62.25-150.23t-150.23-62.25z" />
<glyph unicode="&#x6d;" d="M 367.663,34.382 C 309.459,155.492 340.456,224.888 385.189,290.273 C 434.177,361.874 446.803,432.755 446.803,432.755 C 446.803,432.755 485.311,382.693 469.908,304.395 C 537.94,380.128 550.779,500.79 540.509,547 C 694.289,439.531 760.011,206.836 671.44,34.382 C 1142.53,300.923 788.619,699.75 727.006,744.677 C 747.545,699.752 751.438,623.7 709.949,586.792 C 639.715,853.117 466.058,907.698 466.058,907.698 C 486.596,770.353 391.607,620.166 300.012,507.942 C 296.793,562.709 293.375,600.502 264.575,652.911 C 258.111,553.421 182.078,472.321 161.489,372.64 C 133.598,237.646 182.379,138.805 367.663,34.382 Z" />
<glyph unicode="&#x6e;" d="M 512,46.080q-86.32,0 -165.17,33.615t-135.706,90.47t-90.47,135.706t-33.615,165.17t 33.615,165.17t 90.47,135.706t 135.706,90.47t 165.17,33.615t 165.17-33.615t 135.706-90.47t 90.47-135.706t 33.615-165.17t-33.615-165.17t-90.47-135.706t-135.706-90.47t-165.17-33.615zM 512,842.88q-75.53,0 -144.42-29.465t-118.69-79.265t-79.265-118.69t-29.465-144.42t 29.465-144.42
t 79.265-118.69t 118.69-79.265t 144.42-29.465l0,743.68 z" />
<glyph unicode="&#x6f;" d="M 193.28,152.32 L 936.96,152.32 L 936.96,46.080 L 87.040,46.080 L 87.040,896 L 193.28,896 ZM 326.080,205.44 C 282.073,205.44 246.4,241.113 246.4,285.12 C 246.4,329.127 282.073,364.8 326.080,364.8 C 328.427,364.8 330.746,364.677 333.042,364.479 L 418.691,507.228 C 410.524,519.736 405.76,534.669 405.76,550.722 C 405.76,594.728 441.433,630.402 485.44,630.402 C 529.447,630.402 565.12,594.728 565.12,550.722 C 565.12,534.668 560.356,519.736 552.189,507.228 L 637.838,364.479 C 640.134,364.677 642.453,364.8 644.8,364.8 C 646.573,364.8 648.326,364.723 650.070,364.61 L 791.467,612.050 C 782.722,624.839 777.6,640.3 777.6,656.962 C 777.6,700.968 813.273,736.642 857.28,736.642 C 901.287,736.642 936.96,700.968 936.96,656.962 C 936.96,612.955 901.287,577.282 857.28,577.282 C 855.504,577.282 853.754,577.36 852.010,577.475 L 710.613,330.031 C 719.358,317.244 724.48,301.782 724.48,285.12 C 724.48,241.113 688.807,205.44 644.8,205.44 C 600.793,205.44 565.12,241.113 565.12,285.12 C 565.12,301.172 569.884,316.106 578.050,328.614 L 492.402,471.361 C 490.106,471.163 487.787,471.040 485.44,471.040 C 483.093,471.040 480.774,471.162 478.478,471.361 L 392.829,328.612 C 400.996,316.106 405.76,301.172 405.76,285.12 C 405.76,241.113 370.087,205.44 326.080,205.44 Z" />
<glyph unicode="&#x70;" d="M 972.8,488.96c-9.318,0-40.909,0-50.176,0c-28.262,0-51.2-18.33-51.2-40.96s 22.938-40.96, 51.2-40.96c 9.318,0, 40.909,0, 50.176,0c 28.314,0, 51.2,18.33, 51.2,40.96
	S 1001.114,488.96, 972.8,488.96z M 512,729.6C 355.84,729.6, 230.4,604.16, 230.4,448c0-156.211, 125.44-281.6, 281.6-281.6c 156.16,0, 281.6,125.389, 281.6,281.6
	C 793.6,604.16, 668.16,729.6, 512,729.6z M 517.12,243.2C 398.848,243.2, 307.2,334.848, 307.2,448c0,113.101, 91.648,204.8, 209.92,204.8L 517.12,243.2 z M 152.525,448c0,22.63-21.862,40.96-50.125,40.96
	c-9.472,0-41.779,0-51.2,0c-28.262,0-51.2-18.33-51.2-40.96s 22.938-40.96, 51.2-40.96c 9.421,0, 41.728,0, 51.2,0C 130.662,407.040, 152.525,425.37, 152.525,448z M 512,806.4
	c 22.579,0, 40.96,22.938, 40.96,51.2c0,9.37,0,41.83,0,51.2c0,28.262-18.33,51.2-40.96,51.2S 471.040,937.062, 471.040,908.8c0-9.37,0-41.83,0-51.2C 471.040,829.338, 489.421,806.4, 512,806.4z
	 M 512,89.6c-22.579,0-40.96-22.938-40.96-51.2c0-9.37,0-41.83,0-51.2c0-28.314, 18.33-51.2, 40.96-51.2s 40.96,22.886, 40.96,51.2c0,9.37,0,41.83,0,51.2
	C 552.96,66.662, 534.579,89.6, 512,89.6z M 889.088,767.181c 20.019,20.019, 23.245,49.203, 7.27,65.178s-45.158,12.749-65.126-7.27
	c-5.478-5.53-30.31-30.31-35.84-35.84c-20.019-20.019-23.245-49.152-7.27-65.126s 45.21-12.8, 65.178,7.219
	C 858.778,736.87, 883.61,761.651, 889.088,767.181z M 170.701,164.659c-5.53-5.53-30.31-30.362-35.84-35.84c-19.968-20.019-23.194-49.152-7.219-65.126
	c 15.974-15.974, 45.158-12.749, 65.126,7.219c 5.53,5.478, 30.362,30.31, 35.84,35.84c 20.019,20.019, 23.245,49.152, 7.219,65.126
	S 190.669,184.576, 170.701,164.659z M 192.819,825.139C 172.8,845.107, 143.667,848.384, 127.642,832.358S 114.893,787.2, 134.861,767.181
	c 5.53-5.53, 30.31-30.31, 35.84-35.84c 20.019-19.968, 49.152-23.245, 65.126-7.219s 12.8,45.158-7.219,65.126C 223.13,794.778, 198.349,819.61, 192.819,825.139z
	 M 795.341,106.701c 5.53-5.53, 30.362-30.362, 35.84-35.84c 20.019-19.968, 49.203-23.194, 65.126-7.219c 15.974,15.974, 12.749,45.158-7.219,65.126
	c-5.53,5.478-30.362,30.31-35.84,35.84c-20.019,19.968-49.203,23.194-65.178,7.219S 775.424,126.72, 795.341,106.701z" />
<glyph unicode="&#x71;" d="M 24.583,941.41l 0.001-954.735l 16.62,0 c 12.352,3.874 42.011-9.56 37.867,10.81l0,875.73 l 835.475,0 l0-886.539 l 23.591,0 c 14.54,1.163 38.215-6.809 30.896,16.213l0,938.521 l-944.45,0 zM 97.234,850.48l0-45.464 l 799.149,0 
c-1.958,14.098 3.771,35.882 -2.702,45.464l-796.447,0 zM 97.234,782.285l0-45.464 l 799.149,0 c-1.958,14.098 3.771,35.882 -2.702,45.464l-796.447,0 zM 97.234,714.090l0-45.464 l 799.149,0 c-1.958,14.098 3.771,35.882 -2.702,45.464l-796.447,0 z
M 97.234,645.895l0-45.464 l 799.149,0 c-1.958,14.098 3.771,35.882 -2.702,45.464l-796.447,0 zM 97.234,577.699l0-45.464 l 799.149,0 c-1.958,14.098 3.771,35.882 -2.702,45.464l-796.447,0 zM 97.234,509.504l0-45.46 l 144.165,0 
c-8.566-20.098 -7.535-47.648 -27.058-60.187c-20.748-3.69 -41.351-9.673 -62.619-8.008c 1.951-14.236 -3.739-35.981 2.702-45.464l 51.785,0 l0-229.448 c 20.974-34.487 29.851-74.517 45.405-111.528l 99.894,0 
c 1.574,22.695 -3.741,46.384 3.973,68.194l 282.654,0 c 7.8-21.799 2.344-45.508 3.973-68.195l 99.894,0 c 15.003,37.227 25.365,76.543 45.407,111.527l0,229.448 c 18.536,0.487 37.52-0.922 55.798,0.656
c-7.36,15.048 11.455,53.173 -17.523,44.807c-18.597,1.866 -36.882,6.665 -55.303,9.944c-5.857,19.477 -12.013,38.862 -18.162,58.249l 144.165,0 c-1.958,14.098 3.771,35.882 -2.702,45.464l-796.447,0 zM 652.894,464.044
c 16.586-1.412 35.477,2.738 50.721-1.913c 18.829-18.087 20.278-47.177 31.512-70.128c 3.29-13.793 22.172-38.033 -4.783-31.56c-128.081-3.996 -256.042-12.282 -384.234-10.059l-103.006,0 
c 12.622,34.048 25.186,68.117 37.46,102.293c 124.107,3.904 248.216,7.75 372.331,11.366zM 260.696,282.188l 68.109-0.001c 12.015-19.538 27.092-37.581 36.893-58.25c-34.958-4.254 -69.581-12.367 -105.002-9.944l0,68.195 z
M 664.812,282.188l 68.11-0.001c-3.050-18.151 7.981-42.14 -10.329-54.109c-23.35-23.331 -57.706-10.912 -86.961-14.086c-21.706-3.219 0.696,25.123 6.478,34.098zM 496.81,142.954
c 45.279,0.909 90.192-4.996 135.084-9.944c-96.384-4.562 -192.988-1.002 -289.465-2.132c 51.358,5.348 102.589,13.062 154.381,12.076z"  />
<glyph unicode="&#x72;" d="M 793.6,896l-582.4,0 l0-768 l-57.6,0 l0,832 l 704,0 l0-832 l-64,0 l0,768 zM 248,129.6l0,734.4 l 512,0 l0-734.4 l-512,0 zM 724.8,499.2l-108.8,0 l0-32 l 108.8,0 l0,32 z" />
<glyph unicode="&#x73;" d="M 388.16,577.28L 494.4,577.28L 494.4,471.040L 388.16,471.040zM 547.52,577.28L 653.76,577.28L 653.76,471.040L 547.52,471.040zM 706.88,577.28L 813.12,577.28L 813.12,471.040L 706.88,471.040zM 228.8,258.56L 335.040,258.56L 335.040,152.32L 228.8,152.32zM 388.16,258.56L 494.4,258.56L 494.4,152.32L 388.16,152.32zM 547.52,258.56L 653.76,258.56L 653.76,152.32L 547.52,152.32zM 388.16,417.92L 494.4,417.92L 494.4,311.68L 388.16,311.68zM 547.52,417.92L 653.76,417.92L 653.76,311.68L 547.52,311.68zM 706.88,417.92L 813.12,417.92L 813.12,311.68L 706.88,311.68zM 228.8,417.92L 335.040,417.92L 335.040,311.68L 228.8,311.68zM 813.12,896l0-53.12 l-106.24,0 L 706.88,896 L 335.040,896 l0-53.12 L 228.8,842.88 L 228.8,896 L 122.56,896 l0-849.92 l 796.8,0 L 919.36,896 L 813.12,896 z M 866.24,99.2L 175.68,99.2 L 175.68,683.52 l 690.56,0 L 866.24,99.2 z" />
<glyph unicode="&#x74;" d="M 515.956,903.008c-163.41,0-249.178-128.879-249.178-246.136c0-131.556, 122.429-214.28, 122.429-429.413
			l 123.981,0 c0,0, 116.435-0.547, 119.964-0.547c 3.529,216.714, 124.071,301.965, 124.071,430.996C 757.254,768.014, 679.366,903.008, 515.956,903.008z M 617.696,195.636
			l-212.973,0 c-8.397,0-15.212-6.815-15.212-15.212s 6.815-15.212, 15.212-15.212l 212.973,0 c 8.367,0, 15.212,6.815, 15.212,15.212S 626.062,195.636, 617.696,195.636z M 617.696,134.787l-212.973,0 
			c-8.397,0-15.212-6.815-15.212-15.212s 6.815-15.212, 15.212-15.212l 212.973,0 c 8.367,0, 15.212,6.815, 15.212,15.212S 626.062,134.787, 617.696,134.787zM 419.936,73.937c0,0,0-13.6,0-30.425c0-16.794, 13.6-30.425, 30.425-30.425l 122.124,0 c 16.825,0, 30.425,13.631, 30.425,30.425
	c0,16.825,0,30.425,0,30.425L 419.936,73.937 z" />
<glyph unicode="&#x75;" d="M 843.821,394.651L 435.61,802.862c-17.805,17.805-17.805,46.67,0,64.445
	c 17.805,17.805, 46.64,17.805, 64.445,0l 96.682-96.682l 118.195,118.164c 17.805,17.805, 46.64,17.805, 64.445,0c 17.805-17.774, 17.805-46.64,0-64.445
	l-118.164-118.164l 85.926-85.926l 118.164,118.164c 17.805,17.805, 46.67,17.805, 64.475,0c 17.774-17.805, 17.774-46.64,0-64.445l-118.195-118.195l 96.713-96.682
	c 17.774-17.805, 17.774-46.64,0-64.445C 890.49,376.846, 861.626,376.846, 843.821,394.651z M 661.212,233.525c-39.408-39.378-214.846-42.963-214.846-42.963
	l-214.846,214.846c0,0, 3.585,175.438, 42.963,214.846c 39.408,39.378, 150.402,150.371, 150.402,150.371l 386.729-386.729
	C 811.583,383.926, 700.59,272.933, 661.212,233.525z M 231.52,362.444l 171.883-171.883c 11.88-11.88, 11.88-31.083,0-42.963s-31.114-11.88-42.994,0
	l-171.853,171.883c-11.88,11.88-11.88,31.083,0,42.963S 219.639,374.294, 231.52,362.444z M 317.447,147.598c0,0-14.433-14.462-32.238-32.238
	c-17.805-17.805-46.64-17.805-64.445,0l-10.756,10.756l-85.957-85.926l-42.963,42.963l 85.957,85.926L 156.319,179.806
	c-17.805,17.805-17.805,46.67,0,64.475s 33.999,30.415, 33.999,30.415L 317.447,147.598z" />
<glyph unicode="&#x76;" d="M 936.96,661.526L 861.839,736.64L 713.482,588.275L 629.236,672.524L 777.598,820.886L 702.484,896L 554.122,747.638L 458.88,842.88L 386.982,770.982L 811.942,346.022L 883.84,417.92L 788.596,513.164 	zM 315.082,274.119c 137.588-137.583, 319.711-30.181, 431.011,62.635L 377.719,705.128
		C 284.905,593.829, 177.501,411.706, 315.082,274.119zM 246.4,311.677L 352.633,205.442L 193.281,46.088L 87.044,152.323z" />
<glyph unicode="&#x77;" d="M 565.12,209.59l0-110.39 q0-22.41 -15.77-37.765t-37.765-15.355t-37.35,15.355t-15.355,37.765l0,110.39 q-88.81,13.28 -161.85,64.74t-114.955,131.14t-41.915,171.81q0,21.58 15.355,37.35t 37.765,15.77l 637.44,0 q 21.58,0 37.35-15.77t 15.77-37.35q0-92.13 -41.915-171.81t-114.955-131.555t-161.85-64.325zM 671.36,683.52l0,159.36 q0,21.58 15.355,37.35t 37.35,15.77t 37.765-15.77t 15.77-37.35l0-159.36 l-106.24,0 z
M 246.4,683.52l0,159.36 q0,21.58 15.355,37.35t 37.35,15.77t 37.765-15.77t 15.77-37.35l0-159.36 l-106.24,0 z" />
<glyph unicode="&#x78;" d="M 881.35,129.91q-31.54-31.54 -69.72-57.685t-60.59-26.145q 29.88,47.31 31.54,117.445t-31.54,95.035q-26.56,17.43 -44.405,46.48t-24.485,58.515t-9.545,56.025t-2.075,43.16l 0.83,17.43q-4.98-6.64 -14.11-17.015t-31.955-41.5t-40.255-59.76t-31.955-65.155t-14.525-64.74q0-61.42 18.675-102.090t 61.005-83.83q-39.010,0 -81.755,15.77t-71.795,46.48q-17.43,18.26 -37.35,74.7t-21.58,102.090
q-2.49,55.61 18.675,124.085t 61.005,129.895q 29.88,43.99 70.55,86.32t 78.020,70.55t 70.55,50.63t 53.12,32.37l 19.92,10.79q-2.49-3.32 -5.81-10.375t-10.79-28.635t-11.205-43.99t-2.905-55.61t 9.96-65.155t 31.955-70.55t 57.685-74.285q 41.5-41.5 65.985-90.885t 24.485-95.035q0-28.22 -13.695-62.665t-41.915-62.665zM 512,736.64l0,106.24 q0,21.58 15.77,37.35t 37.35,15.77l 212.48,0 q 17.43,0 32.37-11.62
q-135.29-76.36 -263.11-197.54q-15.77,5.81 -25.315,19.505t-9.545,30.295zM 360.94,388.87q-8.3,13.28 -8.3,29.050l0,159.36 q0,21.58 15.77,37.35t 37.35,15.77l 84.66,0 q-32.37-34.030 -58.1-64.74q-50.63-61.42 -71.38-176.79zM 405.76,683.52l-265.6,0 q-21.58,0 -37.35,15.355t-15.77,37.765l0,106.24 q0,21.58 15.77,37.35t 37.35,15.77l 265.6,0 q 22.41,0 37.765-15.77t 15.355-37.35l0-106.24 q0-22.41 -15.355-37.765t-37.765-15.355z
M 140.16,630.4l 106.24,0 q 22.41,0 37.765-15.77t 15.355-37.35l0-159.36 q0-22.41 -15.355-37.765t-37.765-15.355l-106.24,0 q-21.58,0 -37.35,15.355t-15.77,37.765l0,159.36 q0,21.58 15.77,37.35t 37.35,15.77zM 140.16,311.68l 212.48,0 q-0.83-19.090 0-33.2q 1.66-46.48 21.995-112.88t 36.935-83.83q 10.79-11.62 25.73-24.9q-14.11-10.79 -31.54-10.79l-265.6,0 q-21.58,0 -37.35,15.355t-15.77,37.765l0,159.36 q0,21.58 15.77,37.35t 37.35,15.77z
" />
<glyph unicode="&#x79;" d="M 118.675,443.488l0-406.328 l 791.821,0 l0,406.328 l-791.821,0 zM 160.352,401.814l 708.472,0 l0-31.256 l-338.608,0 l0-291.723 l-31.256,0 l0,291.723 l-338.608,0 l0,31.256 zM 118.675,599.768l0-166.699 l 791.821,0 l0,166.699 l-791.821,0 zM 222.864,578.931l 62.512,0 l-62.512-125.024l-62.512,0 zM 368.725,578.931l 62.512,0 l-62.512-125.024l-62.512,0 zM 514.587,578.931l 62.512,0 l-62.512-125.024l-62.512,0 zM 660.448,578.931l 62.512,0 l-62.512-125.024l-62.512,0 zM 806.309,578.931l 62.512,0 l-62.512-125.024l-62.512,0 zM 89.504,784.181l 30.214-163.573l 778.277,144.819
l-30.214,163.573zM 195.774,783.139l 61.47,11.461l-38.549-134.4l-61.47-11.461zM 338.51,810.227l 61.47,11.461l-38.549-134.4l-61.47-11.461zM 482.288,836.274l 61.47,11.461l-38.549-134.4l-61.47-11.461zM 626.067,863.363l 61.47,11.461l-38.549-134.4l-61.47-11.461zM 768.803,889.408l 61.47,11.461l-38.549-133.36l-61.47-11.461z" />
<glyph unicode="&#x7a;" d="M 883.84,235.52l-79.68,0 l-132.8,0 q-21.58,0 -37.35,15.77t-15.77,37.765t 15.77,37.35t 37.35,15.355q0,53.12 -106.24,53.12l-53.12,0 q0-22.41 -15.355-37.765t-37.765-15.355l-53.12,0 q-21.58,0 -37.35,15.355t-15.77,37.765l-159.36,0 q0-22.41 -15.355-37.765t-37.35-15.355t-37.765,15.355t-15.77,37.765l0,212.48 q0,22.41 15.77,37.765t 37.765,15.355t 37.35-15.355t 15.355-37.765l 159.36,0 q0,22.41 15.77,37.765
t 37.35,15.355l0,58.1 q-21.58,7.47 -36.105,26.145t-16.185,41.915q-28.22-8.3 -60.59-14.11t-46.48-5.81q-21.58,0 -37.35,15.355t-15.77,37.765t 15.77,37.765t 37.35,15.355q 17.43,0 58.1-7.885t 68.060-19.505q 24.070,27.39 59.76,27.39t 59.76-27.39q 27.39,11.62 68.060,19.505t 58.1,7.885q 22.41,0 37.765-15.355t 15.355-37.765t-15.355-37.765t-37.765-15.355q-14.11,0 -46.48,5.81t-60.59,14.11q-1.66-23.24 -16.185-41.915
t-36.105-26.145l0-58.1 q 22.41,0 37.765-15.355t 15.355-37.765l 53.12,0 q 88.81,0 160.606-31.54t 114.956-92.546t 43.16-141.516q 22.41,0 37.765-15.355t 15.355-37.35t-15.355-37.765t-37.765-15.77zM 883.84,102.72q0-33.2 -23.24-56.44t-56.44-23.24t-56.44,23.24t-23.24,56.44q0,19.92 18.675,52.705t 38.18,56.44t 22.825,23.655q 4.98,0 24.485-23.655t 37.35-56.44t 17.845-52.705z" />
<glyph unicode="&#x41;" d="M 777.6,46.080l-531.2,0 q-21.58,0 -37.35,15.77t-15.77,37.35l0,743.68 q0,21.58 15.355,37.35t 37.765,15.77l 531.2,0 q 22.41,0 37.765-15.355t 15.355-37.765l0-743.68 q0-22.41 -15.77-37.765t-37.35-15.355zM 512,842.88q-43.99,0 -75.115-31.125t-31.125-75.115t 31.125-75.115t 75.115-31.125t 75.115,31.125t 31.125,75.115t-31.125,75.115t-75.115,31.125zM 512,524.16q-87.98,0 -150.23-62.25
t-62.25-150.23t 62.25-150.23t 150.23-62.25t 150.23,62.25t 62.25,150.23t-62.25,150.23t-150.23,62.25zM 512,205.44q-43.99,0 -75.115,31.125t-31.125,75.115t 31.125,75.115t 75.115,31.125t 75.115-31.125t 31.125-75.115t-31.125-75.115t-75.115-31.125zM 512,683.52q-21.58,0 -37.35,15.355t-15.77,37.35t 15.77,37.765t 37.765,15.77t 37.35-15.77t 15.355-37.765t-15.77-37.35t-37.35-15.355z" />
<glyph unicode="&#x42;" d="M 468.512,909.824q 177.152,0 302.080-125.44t 124.928-302.592q0-106.496 -47.104-195.584q-60.416-117.76 -176.128-180.224q-96.256-52.224 -203.776-52.224q-103.424,0 -198.656,49.152q-116.736,61.44 -179.2,177.152q-50.176,95.232 -50.176,201.728q0,177.152 125.44,302.592t 302.592,125.44zM 777.76,399.872q 11.264,41.984 11.264,81.92q0,133.12 -94.208,227.328t-226.304,94.208q-133.12,0 -227.328-94.208t-94.208-227.328q0-39.936 12.288-87.040 q 3.072-9.216 9.216-25.6q 21.504,6.144 46.080,6.144q 66.56,0 114.176-47.104t 47.616-113.664q0-17.408 -5.12-37.888q 4.096-2.048 12.288-4.096q 43.008-11.264 84.992-11.264q 46.080,0 89.088,12.288q 2.048,0 5.632,2.048t 5.632,2.048q-5.12,22.528 -5.12,40.96q0,65.536 47.616,113.152t 113.152,47.616q 23.552,0 45.056-6.144q 5.12,15.36 8.192,26.624zM 509.472,532.992q 25.6-19.456 25.6-51.2q0-14.336 -5.12-24.576q-16.384-39.936 -59.392-39.936q-11.264,0 -24.576,5.12q-39.936,16.384 -39.936,59.392 q0,1.024 0.512,4.096t 0.512,5.12l-57.344,250.88l 21.504,9.216zM 488.992,770.56l0-97.28 l-39.936,0 l0,97.28 l 39.936,0 zM 646.688,693.76l 27.648-27.648l-69.632-69.632l-27.648,28.672zM 643.616,499.2l0,38.912 l 98.304,0 l0-38.912 l-98.304,0 zM 196.128,499.2l0,38.912 l 97.28,0 l0-38.912 l-97.28,0 zM 249.376,666.112l 28.672,27.648l 68.608-68.608l-27.648-28.672z" horiz-adv-x="936" />
<glyph unicode="&#x43;" d="M 512,46.080q-86.32,0 -165.17,33.615t-135.706,90.47t-90.47,135.706t-33.615,165.17t 33.615,165.17t 90.47,135.706t 135.706,90.47t 165.17,33.615t 165.17-33.615t 135.706-90.47t 90.47-135.706t 33.615-165.17t-33.615-165.17t-90.47-135.706t-135.706-90.47t-165.17-33.615zM 512,152.32q 21.58,0 37.35,15.355t 15.77,37.35t-15.77,37.765t-37.35,15.77t-37.35-15.77t-15.77-37.765t 15.77-37.35
t 37.35-15.355zM 736.1,526.65q-9.96-4.98 -20.75,0t-15.355,16.185t0,22.825t 15.355,15.77l 78.85,35.69q-46.48,90.47 -136.12,136.95l-35.69-79.68q-4.15-10.79 -15.77-15.355t-22.825,0t-16.185,15.355t0,21.58l 35.69,80.51q-44.82,13.28 -91.3,13.28t-91.3-13.28l 35.69-80.51q 4.98-10.79 0-21.58t-16.185-15.355t-22.825,0t-15.77,15.355l-35.69,79.68q-88.81-45.65 -136.12-136.95l 78.85-34.86
q 9.96-4.98 14.525-16.185t0-22.825t-14.94-16.185t-21.165,0.415l-80.51,34.86q-13.28-44.82 -13.28-91.3t 13.28-91.3l 80.51,34.86q 10.79,4.98 21.165,0.415t 14.94-16.185t0-22.825t-14.525-16.185l-79.68-34.86q 18.26-35.69 46.48-66.4q 79.68,44.82 199.2,51.46l 161.020,263.11q 7.47,1.66 14.11,4.15q 5.81,0.83 11.205-2.075t 6.225-8.715l 4.15-13.28l-92.13-245.68q 100.43-10.79 169.32-48.97q 28.22,30.71 46.48,66.4l-79.68,35.69
q-10.79,4.15 -15.355,15.77t0,22.825t 15.355,16.185t 21.58,0l 80.51-35.69q 13.28,44.82 13.28,91.3t-13.28,91.3z" />
<glyph unicode="&#x44;" d="M 702.084,477.696l0-387.072 l-181.248,0 l0,240.64 l-155.648,0 l0-240.64 l-187.392,0 l0,387.072 l-156.672,0 l 421.888,420.864l 420.864-420.864l-161.792,0 z" horiz-adv-x="885" />
<glyph unicode="&#x45;" d="M 455.25,641.499q-2,40 -31.501,70q-32,31.501 -76.501,31.501l-9,0 q-44,0 -75.501-31.75t-31.501-75.75l0-131.501 l 410.501,0 l0-447 l-596,0 l0,447 l 76.501,0 l0,131.501 q0,89.501 63.75,152.75t 152.25,63.25l 9,0 q 90,0 153-63q 59-59.501 63-142l0-5 l-108,0 zM 411.25,139l-33,144.501q 33,20 33,58q0,28.501 -19.501,48.25t-48,19.75q-27.501,0 -47.501-19.75
t-20-48.25q0-38.501 33.501-57.501l-33.501-145l 135,0 z" horiz-adv-x="686" />
<glyph unicode="&#x46;" d="M 563.25,504l 78.501,0 l0-447 l-596,0 l0,447 l 76.501,0 l0,131.501 q0,89.501 63.75,152.75t 152.25,63.25l 4,0 l 5,0 q 90,0 153-63.25t 63-152.75l0-131.501 zM 411.25,139l-33,144.501q 33,20 33,58q0,28.501 -19.501,48.25t-48,19.75q-27.501,0 -47.501-19.75t-20-48.25q0-38.501 33.501-57.501l-33.501-145l 135,0 zM 455.25,504l0,131.501 q0,44 -31.75,75.75
t-76.25,31.75l-3.501,0 l-5.501,0 q-44,0 -75.501-31.75t-31.501-75.75l0-131.501 l 224,0 z" horiz-adv-x="686" />
<glyph unicode="&#x47;" d="M 480,896C 214.904,896,0,681.096,0,416c0-265.098, 214.904-480, 480-480c 265.098,0, 480,214.902, 480,480
	C 960,681.096, 745.098,896, 480,896z M 751.59,256c 8.579,40.454, 13.997,83.392, 15.758,128l 127.446,0 c-3.336-44.195-13.624-87.114-30.68-128
	L 751.59,256 z M 208.41,576c-8.579-40.454-13.997-83.392-15.758-128L 65.208,448 c 3.336,44.194, 13.622,87.114, 30.678,128L 208.41,576 z M 686.035,576
	c 9.614-40.962, 15.398-83.854, 17.28-128L 512,448 l0,128 L 686.035,576 z M 512,640L 512,827.338 c 14.59-4.246, 29.043-11.37, 43.229-21.37
	c 26.582-18.739, 52.013-47.608, 73.541-83.486c 14.882-24.802, 27.752-52.416, 38.496-82.483L 512,639.998 z M 331.232,722.485
	c 21.528,35.878, 46.957,64.749, 73.541,83.486c 14.182,10, 28.638,17.123, 43.229,21.37L 448,640 l-155.264,0 
	C 303.482,670.066, 316.352,697.68, 331.232,722.485z M 448,576l0-128 l-191.314,0 c 1.88,44.146, 7.666,87.038, 17.278,128L 448,576 z M 95.888,256
	c-17.056,40.886-27.342,83.803-30.678,128l 127.445,0 c 1.762-44.608, 7.178-87.546, 15.758-128L 95.888,256 z M 256.686,384L 448,384 l0-128 l-174.037,0 
	C 264.352,296.96, 258.566,339.854, 256.686,384z M 448,192l0-187.341 c-14.587,4.246-29.043,11.371-43.229,21.37
	c-26.584,18.739-52.014,47.61-73.541,83.486c-14.882,24.803-27.75,52.418-38.498,82.483L 448,192 z M 628.768,109.515
	c-21.528-35.875-46.958-64.746-73.541-83.486c-14.184-9.998-28.638-17.123-43.229-21.37L 512,192 l 155.266,0 
	C 656.52,161.934, 643.65,134.32, 628.768,109.515z M 512,256l0,128 l 191.314,0 c-1.88-44.146-7.666-87.040-17.28-128L 512,256 z M 767.347,448
	c-1.762,44.608-7.178,87.546-15.758,128l 112.525,0 c 17.056-40.886, 27.344-83.806, 30.68-128L 767.347,448 z M 830.658,640l-95.901,0 
	c-18.638,58.762-44.376,110.294-75.317,151.427c 42.536-20.341, 81.058-47.616, 114.714-81.272C 795.635,688.678, 814.518,665.218, 830.658,640
	z M 185.845,710.155c 33.658,33.658, 72.181,60.933, 114.714,81.272c-30.942-41.134-56.675-92.666-75.317-151.427L 129.344,640 
	C 145.482,665.218, 164.366,688.678, 185.845,710.155z M 129.344,192l 95.898,0 c 18.64-58.762, 44.376-110.294, 75.318-151.43
	c-42.536,20.341-81.058,47.616-114.714,81.274C 164.366,143.322, 145.482,166.782, 129.344,192z M 774.155,121.845
	c-33.656-33.658-72.181-60.934-114.714-81.274c 30.942,41.134, 56.678,92.669, 75.317,151.43l 95.901,0 
	C 814.518,166.782, 795.635,143.322, 774.155,121.845z" />
<glyph unicode="&#x48;" d="M 921.6,898.56L 102.4,898.56 c-56.32,0-102.4-46.080-102.4-102.4l0-563.2 c0-56.32, 45.158-111.462, 100.403-122.522l 223.846-44.749c0,0-192.666-68.25-68.25-68.25l 512,0 
	c 124.416,0-68.25,68.25-68.25,68.25l 223.846,44.749C 978.79,121.498, 1024,176.64, 1024,232.96l0,563.2 C 1024,852.48, 977.92,898.56, 921.6,898.56z M 921.6,238.080L 102.4,238.080 L 102.4,806.4 l 819.2,0 L 921.6,238.080 z" />
<glyph unicode="&#x49;" d="M 830.72,46.080l-637.44,0 q-43.99,0 -75.115,31.125t-31.125,75.115l0,371.84 q0,43.99 31.125,75.115t 75.115,31.125l 288.84,0 l-162.68,163.51q-9.96-4.15 -19.92-4.15q-21.58,0 -37.35,15.77t-15.77,37.765t 15.77,37.35t 37.765,15.355t 37.35-15.355t 15.355-37.765q0-9.96 -4.15-19.92l 163.51-162.68l 163.51,162.68q-4.15,9.96 -4.15,19.92q0,22.41 15.77,37.765t 37.765,15.355t 37.35-15.355t 15.355-37.35t-15.355-37.765
t-37.765-15.77q-9.96,0 -19.92,4.15l-162.68-163.51l 288.84,0 q 43.99,0 75.115-31.125t 31.125-75.115l0-371.84 q0-43.99 -31.125-75.115t-75.115-31.125zM 671.36,380.57q0,136.95 -53.12,143.59l-424.96,0 q-15.77-2.49 -26.56-14.11t-15.77-24.485t-7.885-34.030t-2.905-32.37l0-30.295 l0-8.3 l0-84.66 q0-19.92 1.66-39.425t 6.64-43.99t 16.185-41.085t 28.635-19.090l 424.96,0 q 12.45,1.66 22.41,9.545t 15.355,22.41
t 8.715,26.975t 4.565,31.54t 1.66,28.22t 0.415,24.9l0,84.66 zM 857.28,524.16l-106.24,0 q-10.79,0 -18.675-7.885t-7.885-18.675t 7.885-18.675t 18.675-7.885l 106.24,0 q 10.79,0 18.675,7.885t 7.885,18.675t-7.885,18.675t-18.675,7.885zM 857.28,417.92l-106.24,0 q-10.79,0 -18.675-7.885t-7.885-18.675t 7.885-18.675t 18.675-7.885l 106.24,0 q 10.79,0 18.675,7.885t 7.885,18.675t-7.885,18.675t-18.675,7.885z
M 857.28,311.68l-106.24,0 q-10.79,0 -18.675-7.885t-7.885-18.675t 7.885-18.675t 18.675-7.885l 106.24,0 q 10.79,0 18.675,7.885t 7.885,18.675t-7.885,18.675t-18.675,7.885zM 857.28,205.44l-106.24,0 q-10.79,0 -18.675-7.885t-7.885-18.675t 7.885-18.675t 18.675-7.885l 106.24,0 q 10.79,0 18.675,7.885t 7.885,18.675t-7.885,18.675t-18.675,7.885z" />
<glyph unicode="&#x4a;" d="M 832,192l0-64 l 64,0 l0-64 L 512,64 l0,64 l 64,0 l0,64 L 384,192 L 384,768 l 640,0 l0-576 L 832,192 z M 960,704L 448,704 l0-448 l 512,0 L 960,704 z M 512,384L 512,640 l 256,0 L 512,384z M0,832l 320,0 l0-768 
	L0,64 L0,832 z M 64,256l 64,0 l0,64 L 64,320 L 64,256 z M 64,384l 64,0 L 128,448 L 64,448 L 64,384 z M 64,576l 192,0 L 256,640 L 64,640 L 64,576 z M 64,704l 192,0 L 256,768 L 64,768 L 64,704 z" />
<glyph unicode="&#x4b;" d="M 60.98,838.144l 855.040,0 l0-689.152 l-855.040,0 l0,689.152 zM 844.34,220.672l0,546.816 l-711.68,0 l0-546.816 l 711.68,0 zM 229.94,633.344q-18.432,0 -31.744,13.312t-13.312,31.744t 13.312,31.232t 31.744,12.8t 31.232-12.8t 12.8-31.232t-12.8-31.744t-31.232-13.312zM 748.084,633.344q-18.432,0 -31.744,13.312t-13.312,31.744t 13.312,31.232t 31.744,12.8t 31.232-12.8t 12.8-31.232t-12.8-31.744t-31.232-13.312zM 229.94,354.816q 18.432,0 31.232-13.312 t 12.8-31.744t-12.8-31.232t-31.232-12.8t-31.744,12.8t-13.312,31.232t 13.312,31.744t 31.744,13.312zM 748.084,354.816q 18.432,0 31.232-13.312t 12.8-31.744t-12.8-31.232t-31.232-12.8t-31.744,12.8t-13.312,31.232t 13.312,31.744t 31.744,13.312zM 606.772,659.968l0-332.8 l-233.472,0 l0,332.8 l 233.472,0 zM 545.332,377.344l0,120.832 l-111.616,0 l0-120.832 l 111.616,0 z" horiz-adv-x="977" />
<glyph unicode="&#x4c;" d="M 862.968,559.616q 9.216-1.024 15.872-9.216t 6.656-17.408l0-99.328 q0-9.216 -6.656-17.408t-15.872-9.216l-126.976-23.552q-9.216-2.048 -12.288-8.192t 2.048-14.336l 73.728-108.544q 12.288-19.456 -4.096-35.84l-69.632-69.632q-16.384-16.384 -34.816-3.072l-108.544,72.704q-7.168,5.12 -14.848,2.56t-8.704-11.776l-23.552-128q-1.024-9.216 -9.216-15.872t-17.408-6.656l-99.328,0 q-9.216,0 -17.408,6.656t-9.216,15.872l-23.552,128q-1.024,9.216 -8.704,11.776 t-14.848-2.56l-107.52-72.704q-20.48-12.288 -35.84,3.072l-69.632,69.632q-16.384,16.384 -4.096,35.84l 73.728,108.544q 5.12,8.192 2.048,14.336t-12.288,8.192l-126.976,23.552q-9.216,1.024 -15.872,9.216t-6.656,17.408l0,99.328 q0,9.216 6.656,17.408t 15.872,9.216l 126.976,23.552q 22.528,6.144 10.24,23.552l-73.728,108.544q-11.264,19.456 4.096,34.816l 69.632,69.632q 16.384,16.384 35.84,4.096l 107.52-73.728q 7.168-5.12 14.848-2.048t 8.704,12.288l 23.552,126.976q 1.024,9.216 9.216,15.872t 17.408,6.656l 99.328,0 q 9.216,0 17.408-6.656 t 9.216-15.872l 23.552-126.976q 1.024-9.216 8.704-12.288t 14.848,2.048l 108.544,73.728q 18.432,12.288 34.816-4.096l 69.632-69.632q 15.36-15.36 4.096-34.816l-73.728-108.544q-12.288-17.408 10.24-23.552zM 458.488,329.216q 64.512,0 109.568,45.056t 45.056,108.544t-45.056,109.056t-109.568,45.568q-63.488,0 -108.544-45.568t-45.056-109.056t 45.056-108.544t 108.544-45.056z" horiz-adv-x="918" />
<glyph unicode="&#x4d;" d="M 388.93,296.697l 34.278,47.987l-37.56,37.562l-47.989-34.276c-8.9,4.976-18.429,8.942-28.441,11.779L 299.52,417.92L 246.4,417.92 
		l-9.694-58.171c-10.011-2.837-19.542-6.804-28.441-11.779L 160.276,382.247L 122.713,344.684l 34.278-47.987
		c-4.976-8.898-8.942-18.43-11.779-28.441L 87.040,258.56l0-53.12 l 58.171-9.697c 2.837-10.010, 6.804-19.542, 11.779-28.441L 122.713,119.316l 37.56-37.562
		l 47.989,34.276c 8.9-4.976, 18.429-8.942, 28.441-11.779L 246.4,46.080l 53.12,0 l 9.694,58.171c 10.011,2.837, 19.542,6.804, 28.441,11.779l 47.989-34.276
		l 37.56,37.562l-34.278,47.987c 4.976,8.898, 8.942,18.43, 11.779,28.441L 458.88,205.44l0,53.12 l-58.171,9.697
		C 397.872,278.265, 393.904,287.798, 388.93,296.697z M 272.96,178.88c-29.339,0-53.12,23.782-53.12,53.12s 23.781,53.12, 53.12,53.12s 53.12-23.782, 53.12-53.12
		S 302.299,178.88, 272.96,178.88zM 936.96,577.28l0,53.12 l-55.927,10.168c-1.031,6.678-2.351,13.262-3.921,19.745l 47.773,30.793L 904.557,740.182l-55.564-12.008
		c-3.497,5.735-7.242,11.305-11.198,16.708l 32.374,46.763l-37.562,37.56l-46.763-32.374c-5.405,3.955-10.973,7.699-16.708,11.199
		l 12.008,55.564L 732.067,883.925l-30.793-47.773c-6.484,1.57-13.068,2.891-19.745,3.921L 671.36,896l-53.12,0 l-10.169-55.927
		c-6.678-1.031-13.26-2.351-19.745-3.921L 557.534,883.925L 508.458,863.597l 12.008-55.564c-5.735-3.499-11.305-7.244-16.708-11.199
		l-46.763,32.374l-37.56-37.56l 32.374-46.763c-3.955-5.403-7.7-10.973-11.199-16.708l-55.564,12.008l-20.328-49.076l 47.773-30.793
		c-1.57-6.484-2.891-13.065-3.921-19.745L 352.64,630.4l0-53.12 l 55.927-10.168c 1.031-6.678, 2.351-13.262, 3.921-19.745l-47.773-30.793
		l 20.328-49.076l 55.564,12.008c 3.499-5.735, 7.244-11.303, 11.199-16.708l-32.374-46.763l 37.56-37.562l 46.763,32.374
		c 5.403-3.955, 10.973-7.699, 16.708-11.198l-12.008-55.564l 49.076-20.328l 30.794,47.773c 6.483-1.57, 13.065-2.891, 19.744-3.921L 618.24,311.68l 53.12,0 
		l 10.169,55.927c 6.677,1.031, 13.26,2.351, 19.745,3.921l 30.793-47.773l 49.076,20.328l-12.008,55.564
		c 5.735,3.499, 11.305,7.242, 16.708,11.198l 46.763-32.374l 37.562,37.562l-32.374,46.763c 3.955,5.405, 7.699,10.973, 11.198,16.708
		l 55.564-12.008l 20.328,49.078l-47.773,30.793c 1.57,6.484, 2.891,13.065, 3.921,19.745L 936.96,577.28z M 644.8,488.304
		c-63.808,0-115.536,51.728-115.536,115.536c0,63.808, 51.726,115.536, 115.536,115.536s 115.536-51.728, 115.536-115.536C 760.336,540.032, 708.61,488.304, 644.8,488.304z" />
<glyph unicode="&#x4e;" d="M 512,824.96C 295.504,824.96, 120,649.456, 120,432.96s 175.504-392, 392-392s 392,175.504, 392,392S 728.496,824.96, 512,824.96z M 512,117.96
	c-173.971,0-315,141.031-315,315c0,173.971, 141.029,315, 315,315c 173.969,0, 315-141.029, 315-315C 827,258.991, 685.969,117.96, 512,117.96z
	 M 881.936,685.683C 895.973,710.228, 904,738.657, 904,768.96c0,92.785-75.215,168-168,168c-54.091,0-102.202-25.569-132.93-65.272
	C 718.469,847.857, 817.625,779.64, 881.936,685.683z M 420.93,871.688C 390.203,911.391, 342.091,936.96, 288,936.96C 195.215,936.96, 120,861.745, 120,768.96
	c0-30.303, 8.027-58.732, 22.064-83.277C 206.376,779.64, 305.533,847.857, 420.93,871.688z M 456,656.96l 56,0 l0-280 l-56,0 L 456,656.96 z M 512,432.96l 168,0 l0-56 l-168,0 
	L 512,432.96 z" />
<glyph unicode="&#x4f;" d="M 512,46.080q-86.32,0 -165.17,33.615t-135.706,90.47t-90.47,135.706t-33.615,165.17t 33.615,165.17t 90.47,135.706t 135.706,90.47t 165.17,33.615t 165.17-33.615t 135.706-90.47t 90.47-135.706t 33.615-165.17t-33.615-165.17t-90.47-135.706t-135.706-90.47t-165.17-33.615zM 736.1,526.65q-9.96-4.98 -20.75,0t-15.355,16.185t0,22.825t 15.355,15.77l 78.85,35.69
q-47.31,90.47 -136.12,136.95l-35.69-79.68q-4.15-10.79 -15.77-15.355t-22.825,0t-16.185,15.355t0,21.58l 35.69,80.51q-44.82,13.28 -91.3,13.28t-91.3-13.28l 35.69-80.51q 4.98-10.79 0-21.58t-16.185-15.355t-22.825,0t-15.77,15.355l-35.69,79.68q-88.81-45.65 -136.12-136.95l 78.85-34.86q 9.96-4.98 14.525-16.185t0-22.825t-14.94-16.185t-21.165,0.415l-80.51,34.86q-13.28-44.82 -13.28-91.3t 13.28-91.3
l 80.51,34.86q 10.79,4.98 21.165,0.415t 14.94-16.185t0-22.825t-14.525-16.185l-78.85-34.86q 47.31-90.47 136.12-136.95l 34.86,79.68q 4.98,9.96 16.185,14.525t 22.825,0t 16.185-14.94t-0.415-21.165l-34.86-80.51q 44.82-13.28 91.3-13.28t 91.3,13.28l-34.86,80.51q-4.98,10.79 -0.415,21.165t 16.185,14.94t 22.825,0t 16.185-14.525l 34.86-79.68q 89.64,46.48 136.12,136.95l-78.85,35.69q-10.79,4.15 -15.355,15.77t0,22.825
t 15.355,16.185t 20.75,0l 81.34-35.69q 13.28,44.82 13.28,91.3t-13.28,91.3zM 512,417.92q-22.41,0 -37.765,15.355t-15.355,37.765q0,17.43 10.375,31.54t 26.975,19.090l 201.69,161.85l 13.28,0 q 5.81,0 9.545-3.735t 3.735-9.545l0-13.28 l-161.85-201.69q-4.98-16.6 -19.090-26.975t-31.54-10.375z" />
<glyph unicode="&#x50;" d="M 664.986,300.032c0-28.047 -22.948-50.995 -50.995-50.995c-13.599,0 -26.348,5.1 -35.697,15.299l-101.99,101.99c-14.449,14.449 -15.299,33.997 -15.299,52.695l0,271.974 c0,28.047 22.948,50.995 50.995,50.995s 50.995-22.948 50.995-50.995l0-267.725 l 86.692-87.542c 10.199-9.349 15.299-22.098 15.299-35.697zM 837.519,470.016c0,179.333 -146.186,325.519 -325.519,325.519c-68.844,0 -136.837-22.098 -192.082-62.894l 1.7-1.7c-26.348-19.548 -50.995-44.196 -70.543-70.543l-1.7,1.7
c-40.796-55.245 -62.894-123.238 -62.894-192.082c0-179.333 146.186-325.519 325.519-325.519c 68.844,0 136.837,22.098 192.082,62.894l-1.7,1.7c 26.348,19.548 50.995,44.196 70.543,70.543l 1.7-1.7c 40.796,55.245 62.894,123.238 62.894,192.082zM 936.96,470.016c0-234.578 -190.382-424.96 -424.96-424.96s-424.96,190.382 -424.96,424.96s 190.382,424.96 424.96,424.96s 424.96-190.382 424.96-424.96z" />
<glyph unicode="&#x51;" d="M 920.36,630.4l-14.94,0 q-32.37,79.68 -93.375,140.685t-140.685,92.545l0,15.77 q 12.45,16.6 53.12,16.6q 87.98,0 150.23-62.25t 62.25-150.23q0-40.67 -16.6-53.12zM 883.84,417.92q0-127.82 -78.85-229.080l 78.85-108.73l-34.030-34.030l-108.73,78.85q-101.26-78.85 -229.080-78.85t-229.080,78.85l-108.73-78.85l-34.030,34.030l 78.85,108.73q-78.85,101.26 -78.85,229.080q0,75.53 29.465,144.42t 79.265,118.69t 118.69,79.265
t 144.42,29.465t 144.42-29.465t 118.69-79.265t 79.265-118.69t 29.465-144.42zM 512,683.52q-72.21,0 -133.215-35.69t-96.695-96.695t-35.69-133.215t 35.69-133.215t 96.695-96.695t 133.215-35.69t 133.215,35.69t 96.695,96.695t 35.69,133.215t-35.69,133.215t-96.695,96.695t-133.215,35.69zM 644.8,524.16l-81.34-118.69q-4.15-17.43 -18.675-29.050t-32.785-11.62t-32.37,10.79
t-18.26,28.22l-108.73,146.91l0,26.56 l 26.56,0 l 133.63-98.77l 105.41,72.21l0,0 l 26.56,0 l0-26.56 l0,0 zM 118.58,630.4l-14.94,0 q-16.6,12.45 -16.6,53.12q0,87.98 62.25,150.23t 150.23,62.25q 40.67,0 53.12-16.6l0-15.77 q-79.68-32.37 -140.685-92.96t-93.375-140.27z" />
<glyph unicode="&#x52;" d="M 542.292,551.424l 325.632-325.632l0-172.032 l0,0 l-172.032,0 l-1.024,0 l0,132.096 l-131.072,0 l0,131.072 l-131.072,0 l-62.464,62.464q-40.96-14.336 -84.992-14.336q-111.616,0 -191.488,79.36t-79.872,192t 79.872,192t 191.488,79.36t 191.488-79.36t 79.872-192q0-44.032 -14.336-84.992zM 228.948,603.648q 37.888,0 64.512,26.624t 26.624,64.512t-26.624,64.512t-64.512,26.624t-65.024-26.624t-27.136-64.512t 27.136-64.512t 65.024-26.624z" horiz-adv-x="889" />
<glyph unicode="&#x53;" d="M 777.6,497.6c-14.688,0-26.56-11.872-26.56-26.56l0-185.92 c0-14.688, 11.872-26.56, 26.56-26.56s 26.56,11.872, 26.56,26.56l0,185.92 
		C 804.16,485.728, 792.288,497.6, 777.6,497.6z M 697.92,99.2L 326.080,99.2 c-14.661,0-26.56-11.872-26.56-26.56s 11.899-26.56, 26.56-26.56l 371.84,0 c 14.688,0, 26.56,11.872, 26.56,26.56S 712.608,99.2, 697.92,99.2z M 618.24,869.44
		c0,14.688-11.872,26.56-26.56,26.56l-132.8,0 c0,0-26.56-11.872-26.56-26.56L 87.040,550.72c0-14.688, 11.899-26.56, 26.56-26.56l 318.72,0 c-14.688,0-26.56-38.432-26.56-53.12l0-318.72 c0-14.688, 11.872-26.56, 26.56-26.56l 159.36,0 
		c 14.688,0, 26.56,11.872, 26.56,26.56L 618.24,471.040 c0,14.688-11.872,53.12-26.56,53.12l 318.72,0 c 14.688,0, 26.56,11.872, 26.56,26.56L 618.24,869.44z" />
<glyph unicode="&#x54;" d="M 859.073,577.28l-235.72,0 q0-35.69 16.6-80.51t 36.52-80.925t 36.52-80.095t 16.6-77.19q0-47.31 -19.505-89.226t-53.535-71.795q 8.3-1.66 14.11-8.715t 5.81-16.185q0-10.79 -7.885-18.675t-18.675-7.885l-265.6,0 q-10.79,0 -18.675,7.885t-7.885,18.675q0,9.13 5.81,16.185t 14.94,8.715q-34.86,29.88 -54.365,71.795t-19.505,89.226q0,34.030 16.6,78.020t 36.52,80.095t 36.52,80.51t 16.6,80.095
l-159.36,0 l0-239.040 q0-10.79 -7.885-18.675t-18.675-7.885t-18.675,7.885t-7.885,18.675l0,239.040 l-23.24,0 q-16.6,0 -24.485,11.62t-2.075,27.39l 201.69,261.45q 2.49,7.47 12.45,12.865t 21.58,5.395l 273.9,0 q 10.79,0 20.75-5.395t 12.45-12.865l 195.88-261.45q 4.98-15.77 -3.32-27.39t-24.9-11.62z" />
<glyph unicode="&#x55;" d="M 565.049,417.92q-106.24,77.19 -106.24,185.090q0,41.5 14.11,80.51l-14.94,14.94l-221.61-221.61l 170.98-324.53l 210.82,0 q 21.58,0 37.35-15.77t 15.77-37.765t-15.77-37.35t-37.35-15.355l-424.96,0 q-21.58,0 -37.35,15.355t-15.77,37.35t 15.77,37.765t 37.35,15.77l 154.38,0 l-151.060,284.69l-10.79-10.79q-7.47-8.3 -18.675-8.3t-19.090,7.885t-7.885,19.090t 7.47,18.675l 23.24,23.24l-26.56,50.63q-5.81,9.13 -2.905,19.92t 12.45,16.6t 19.92,2.905
t 16.185-12.865l 19.92-38.18l 212.48,211.65q-19.92,29.88 -16.6,66.4t 29.050,62.25q 29.88,29.88 72.21,29.88t 72.21-29.88l 38.18-38.18q 39.84,14.11 80.51,14.11q 108.73,0 185.92-106.24z" />
<glyph unicode="&#x56;" d="M 567.193,396.402c-56.195,45.927-92.065,115.766-92.065,194.011
	c0,39.316, 9.846,76.029, 25.988,109.155l-38.612,38.577l-234.557-234.592c 43.606-34.322, 39.21-67.87-11.816-100.575l 313.364-313.329l 153.57,0 
	c 19.763,0, 35.799-16.036, 35.799-35.799l0-35.799 l-167.671,0 l-0.387-0.387l-0.387,0.387L 289.558,18.051 L 289.558,53.815 c0,19.763, 16.036,35.799, 35.799,35.799l 153.57,0 
	l-295.605,295.57c-58.411-25.038-87.247-0.844-86.016,73.497c 1.336,79.088, 34.849,100.188, 99.836,64.6l 240.149,240.149L 413.518,787.166
	c-13.961,13.926-13.961,36.608,0,50.569l 75.888,75.888c 13.961,13.961, 36.643,13.961, 50.604,0l 91.432-91.502c 29.117,11.851, 60.802,18.638, 94.175,18.638
	c 82.359,0, 155.504-35.342, 201.114-96.777C 928.278,743.596, 568.494,395.839, 567.193,396.402z M 844.055,620.198c0,0, 60.38-75.994,0-136.374
	s-135.635,0.738-135.635,0.738L 844.055,620.198z" />
<glyph unicode="&#x57;" d="M 538.236,294.4q 2.048,10.24 2.048,16.384l 100.352,100.352l 142.336-142.336l 96.256-70.656l 10.24-38.912l-106.496-106.496l-37.888,10.24l-71.68,96.256zM 772.732,214.528q-18.432,0 -31.232-12.8t-12.8-32.256q0-18.432 12.8-31.232t 31.232-12.8q 19.456,0 32.256,12.8t 12.8,31.232q0,19.456 -12.8,32.256t-32.256,12.8zM 479.868,571.904l-100.352-100.352q-6.144,0 -16.384-2.048l-72.704,71.68q-32.768-15.36 -57.344-15.36 q-75.776,0 -136.704,61.44t-61.952,137.216q0,1.024 17.408,18.432q 64.512-64.512 72.704-69.632t 46.080-5.12q 29.696,0 67.072,36.864t 37.376,67.584q0,36.864 -6.144,46.592t-68.608,71.168q 15.36,18.432 18.432,18.432q 75.776,1.024 137.216-60.928t 61.44-137.728q0-27.648 -16.384-58.368zM 804.476,398.848q0,3.072 0.512,7.68t 0.512,18.944t-1.536,28.672t-5.632,32.768t-10.752,34.304t-19.456,31.232t-29.184,24.576l-3.072,0 q-10.24,0 -34.816-22.528l-223.232-222.208 q 8.192-29.696 -8.192-48.128q-2.048-1.024 -7.168-6.144l-205.824-205.824q-5.12-5.12 -6.144-7.168q-11.264-11.264 -29.696-11.264q-41.984,0 -78.848,49.152t-8.192,78.848q 3.072,2.048 6.144,6.144l 206.848,206.848q 5.12,3.072 6.144,6.144q 11.264,11.264 28.672,11.264q 9.216,0 19.456-3.072l 198.656,198.656l 4.096,6.144q 4.096,6.144 5.632,8.192t 5.12,8.704t 4.608,11.264t 1.536,11.264t-1.024,13.824t-4.608,14.336q-16.384,29.696 -61.44,38.912l-1.024,0 q-16.384,0 -56.32,37.888l-6.144,6.144q-19.456,19.456 -20.48,25.6t 18.432,27.648l 73.728,74.752 q 17.408,17.408 26.624,17.408q 6.144,0 26.624-20.48l 6.144-6.144q 33.792-33.792 37.888-50.176q 4.096-20.48 24.576-47.104q 3.072-4.096 18.432-4.096t 19.456-4.096l 121.856-121.856q 74.752-74.752 30.72-258.048l-15.36-51.2z" horiz-adv-x="971" />
<glyph unicode="&#x58;" d="M 830.72,46.080l-637.44,0 q-43.99,0 -75.115,31.125t-31.125,75.115l0,637.44 q0,43.99 31.125,75.115t 75.115,31.125l 637.44,0 q 43.99,0 75.115-31.125t 31.125-75.115l0-637.44 q0-43.99 -31.125-75.115t-75.115-31.125zM 193.694,99.2q 21.995,0 37.35,15.77t 15.355,37.765t-15.355,37.35t-37.35,15.355t-37.765-15.355t-15.77-37.35t 15.77-37.765t 37.765-15.77zM 193.694,842.88
q-21.995,0 -37.765-15.355t-15.77-37.35t 15.77-37.765t 37.765-15.77t 37.35,15.77t 15.355,37.765t-15.355,37.35t-37.35,15.355zM 512,736.64q-72.21,0 -133.215-35.69t-96.695-96.695t-35.69-133.215t 35.69-133.215t 96.695-96.695t 133.215-35.69t 133.215,35.69t 96.695,96.695t 35.69,133.215t-35.69,133.215t-96.695,96.695t-133.215,35.69zM 830.306,842.88
q-21.995,0 -37.35-15.355t-15.355-37.35t 15.355-37.765t 37.35-15.77t 37.765,15.77t 15.77,37.765t-15.77,37.35t-37.765,15.355zM 830.306,205.44q-21.995,0 -37.35-15.355t-15.355-37.35t 15.355-37.765t 37.35-15.77t 37.765,15.77t 15.77,37.765t-15.77,37.35t-37.765,15.355zM 512,258.56q-87.98,0 -150.23,62.25t-62.25,150.23t 62.25,150.23t 150.23,62.25t 150.23-62.25t 62.25-150.23t-62.25-150.23t-150.23-62.25z
M 406.175,524.16q-21.995,0 -37.765-15.355t-15.77-37.765t 15.355-37.765t 37.35-15.355t 37.765,15.77t 15.77,37.765t-15.355,37.35t-37.35,15.355zM 618.24,524.16q-22.41,0 -37.765-15.355t-15.355-37.765t 15.355-37.765t 37.35-15.355t 37.765,15.77t 15.77,37.765t-15.355,37.35t-37.765,15.355z" />
<glyph unicode="&#x59;" d="M 830.72,46.080l-637.44,0 q-43.99,0 -75.115,31.125t-31.125,75.115l0,637.44 q0,43.99 31.125,75.115t 75.115,31.125l 637.44,0 q 43.99,0 75.115-31.125t 31.125-75.115l0-637.44 q0-43.99 -31.125-75.115t-75.115-31.125zM 193.694,99.2q 21.995,0 37.35,15.77t 15.355,37.765t-15.355,37.35t-37.35,15.355t-37.765-15.355t-15.77-37.35t 15.77-37.765t 37.765-15.77zM 193.694,842.88
q-21.995,0 -37.765-15.355t-15.77-37.35t 15.77-37.765t 37.765-15.77t 37.35,15.77t 15.355,37.765t-15.355,37.35t-37.35,15.355zM 687.96,736.64l-351.92,0 q-65.57-43.99 -104.165-114.125t-38.595-151.89t 38.595-151.475t 104.165-113.71l 351.92,0 q 65.57,43.99 104.165,113.71t 38.595,151.89t-38.595,151.89t-104.165,113.71zM 831.136,842.88q-21.995,0 -37.765-15.355t-15.77-37.35t 15.77-37.765
t 37.765-15.77t 37.35,15.77t 15.355,37.765t-15.355,37.35t-37.35,15.355zM 831.136,205.44q-21.995,0 -37.765-15.355t-15.77-37.35t 15.77-37.765t 37.765-15.77t 37.35,15.77t 15.355,37.765t-15.355,37.35t-37.35,15.355zM 670.53,258.56l-317.060,0 q-49.8,37.35 -78.435,92.96t-28.635,119.52t 28.635,119.52t 78.435,92.96l 317.060,0 q 49.8-37.35 78.435-92.96t 28.635-119.52t-28.635-119.52t-78.435-92.96z
M 405.76,550.72q0,10.79 -7.885,18.675t-18.675,7.885t-18.675-7.885t-7.885-18.675l0-53.12 q0-10.79 7.885-18.675t 18.675-7.885t 18.675,7.885t 7.885,18.675l0,53.12 zM 565.12,364.8q0,22.41 -15.355,37.765t-37.765,15.355t-37.765-15.355t-15.355-37.765l0-53.12 l 106.24,0 l0,53.12 zM 671.36,550.72q0,10.79 -7.885,18.675t-18.675,7.885t-18.675-7.885t-7.885-18.675l0-53.12 q0-10.79 7.885-18.675
t 18.675-7.885t 18.675,7.885t 7.885,18.675l0,53.12 z" />
<glyph unicode="&#x5a;" d="M 636.518,960c 68.608,0, 102.912-46.797, 102.912-100.25c0-66.765-59.597-128.563-137.114-128.563c-65.024,0-102.912,38.4-101.12,101.837
		C 501.197,886.528, 546.253,960, 636.518,960z M 425.421-64c-54.17,0-93.85,33.382-55.962,180.378l 62.157,260.659c 10.803,41.728, 12.595,58.47,0,58.47
		c-16.282,0-86.528-28.826-128.102-57.242L 276.48,423.373c 131.738,111.923, 283.238,177.51, 348.211,177.51c 54.118,0, 63.078-65.126, 36.096-165.325l-71.219-274.022
		c-12.595-48.435-7.219-65.126, 5.376-65.126c 16.282,0, 69.478,20.122, 121.805,61.85l 30.72-41.728C 619.418-13.824, 479.539-64, 425.421-64z" />
<glyph unicode="&#x30;" d="M 658.264,356.864l 39.936-40.96l 28.672-27.648q-48.128-61.44 -119.296-96.768t-152.064-35.328q-143.36,0 -244.224,100.352t-101.888,243.712l-11.264,0 l-2.048,0 l-68.608,0 l 129.024,129.024l 130.048-129.024l-52.224,0 l-28.672,0 q0-102.4 73.216-175.104t 176.64-72.704q 61.44,0 115.2,28.16t 87.552,76.288zM 829.272,500.224l 53.248,0 l-130.048-129.024l-129.024,129.024l 51.2,0 l 30.72,0 l0,2.048 q0,103.424 -73.216,176.64t-176.64,73.216 q-62.464,0 -116.224-29.184t-88.576-78.336l-39.936,39.936l-28.672,28.672q 48.128,62.464 119.296,98.304t 154.112,35.84q 142.336,0 243.712-101.376t 101.376-243.712l0-2.048 l 28.672,0 z" horiz-adv-x="910" />
<glyph unicode="&#x31;" d="M 704.096,432.64l 29.696,0 l0-30.72 q0-146.432 -102.912-249.344t-249.344-102.912t-249.856,103.424t-103.424,248.832q0,146.432 103.424,249.856t 249.856,103.424q 16.384,0 25.6-1.024l0,80.896 l0,72.704 l 50.176-51.2l 160.768-160.768l 21.504-21.504l-21.504-20.48l-160.768-160.768l-50.176-51.2l0,71.68 l0,90.112 q-18.432,2.048 -25.6,2.048q-84.992,0 -144.384-59.392t-59.392-144.384q0-83.968 59.904-143.36t 143.872-59.392t 143.36,59.392t 59.392,143.36l0,30.72 l 30.72,0 l 89.088,0 z " horiz-adv-x="760" />
<glyph unicode="&#x32;" d="M 469.988,909.824q 178.176,0 304.128-125.952t 125.952-304.128t-125.952-304.128t-304.128-125.952q-177.152,0 -303.104,125.952t-125.952,304.128t 125.952,304.128t 303.104,125.952zM 745.444,593.408q 6.144,6.144 6.144,15.36t-6.144,16.384l-56.32,55.296q-6.144,6.144 -15.36,6.144t-16.384-6.144l-248.832-249.856q-15.36-16.384 -31.744,0l-90.112,90.112q-16.384,16.384 -31.744,0l-56.32-55.296q-6.144-7.168 -6.144-16.384t 6.144-15.36l 142.336-143.36q 15.36-15.36 37.888-15.36l 26.624,0 q 20.48,0 37.888,15.36z " horiz-adv-x="941" />
<glyph unicode="&#x33;" d="M 22.112,436.736q-10.24,10.24 -10.24,24.576t 10.24,24.576l 84.992,84.992q 10.24,10.24 24.064,10.24t 24.064-10.24l 139.264-138.24q 10.24-10.24 24.064-10.24t 24.064,10.24l 379.904,380.928q 10.24,10.24 24.064,10.24t 24.064-10.24l 84.992-83.968q 10.24-10.24 10.24-24.064t-10.24-24.064l-460.8-461.824q-24.576-24.576 -58.368-24.576l-39.936,0 q-32.768,0 -57.344,24.576z" horiz-adv-x="888" />
<glyph unicode="&#x34;" d="M 60.272,826.88l 718.848-359.424l-718.848-358.4l0,717.824 z" horiz-adv-x="780" />
<glyph unicode="&#x35;" d="M 60.124,111.104l0,714.752 l 268.288,0 l0-714.752 l-268.288,0 zM 506.588,825.856l 268.288,0 l0-714.752 l-268.288,0 l0,714.752 z" horiz-adv-x="835" />
<glyph unicode="&#x36;" d="M 775.888,112.128l-715.776,0 l0,714.752 l 715.776,0 l0-714.752 z" horiz-adv-x="836" />
<glyph unicode="&#x37;" d="M 433.088,537.088l0,186.368 l 496.64-248.832l-496.64-247.808l0,185.344 l-372.736-185.344l0,496.64 z" horiz-adv-x="944" />
<glyph unicode="&#x38;" d="M 511.936,412.16l0-186.368 l-497.664,248.832l 497.664,247.808l0-186.368 l 371.712,186.368l0-496.64 z" horiz-adv-x="944" />
<glyph unicode="&#x39;" d="M 471,908.8q 178.176,0 304.128-125.952t 125.952-304.128t-125.952-304.128t-304.128-125.952t-304.128,125.952t-125.952,304.128t 125.952,304.128t 304.128,125.952zM 305.112,257.536l 441.344,221.184l-441.344,221.184l0-442.368 z" horiz-adv-x="942" />
<glyph unicode="&#x2a;" d="M 754.364,693.76l-199.68-199.68l 199.68-200.704l-157.696-156.672l-199.68,199.68l-199.68-199.68l-157.696,156.672l 199.68,200.704l-199.68,199.68l 157.696,157.696l 199.68-199.68l 199.68,199.68z" horiz-adv-x="795" />
<glyph unicode="&#x21;" d="M 885.528,297.472q 37.888-63.488 11.264-109.056t-100.352-45.568l-635.904,0 q-73.728,0 -99.84,45.568t 11.776,109.056l 317.44,546.816q 36.864,63.488 89.6,63.488t 89.6-63.488zM 482.072,239.104q 23.552,0 39.424,16.384t 15.872,38.912t-15.872,38.4t-39.424,15.872q-22.528,0 -38.4-15.872t-15.872-38.4t 15.872-38.912t 38.4-16.384zM 520.984,383.488l 26.624,315.392l-130.048,0 l 26.624-315.392l 76.8,0 z" horiz-adv-x="958" />
<glyph unicode="&#x2d;" d="M 472.012,906.752q 178.176,0 304.128-126.464t 125.952-304.64t-125.952-304.64t-304.128-126.464q-179.2,0 -305.152,126.464t-125.952,304.64t 125.952,304.64t 305.152,126.464zM 710.604,456.192l0,39.936 q0,19.456 -14.336,33.792t-33.792,14.336l-385.024,0 q-19.456,0 -33.792-14.336t-14.336-33.792l0-39.936 q0-20.48 14.336-34.304t 33.792-13.824l 385.024,0 q 19.456,0 33.792,13.824t 14.336,34.304z" horiz-adv-x="943" />
<glyph unicode="&#x3a;" d="M 686.992,294.4l 107.52-104.448q0-16.384 -12.288-29.184t-29.696-12.8l-247.808,0 q 1.024-4.096 1.024-12.288q0-39.936 -28.16-68.096t-68.096-28.16t-68.096,28.16t-28.16,68.096q0,2.048 0.512,6.144t 0.512,6.144l-246.784,0 q-16.384,0 -29.184,12.8t-12.8,29.184l 107.52,104.448q-1.024,8.192 -1.024,25.6l0,212.992 q0,90.112 51.712,161.792t 133.632,100.352q-4.096,11.264 -4.096,26.624q0,39.936 28.16,68.096t 68.096,28.16 t 68.096-28.16t 28.16-68.096q0-14.336 -3.072-26.624q 81.92-28.672 133.632-100.864t 51.712-161.28l0-212.992 q0-17.408 -1.024-25.6zM 356.24,821.76q0-5.12 2.048-15.36q 28.672,5.12 51.2,5.12q 23.552,0 51.2-5.12q 3.072,8.192 3.072,15.36q0,22.528 -15.872,37.888t-38.4,15.36t-37.888-15.36t-15.36-37.888z" horiz-adv-x="820" />
<glyph unicode="&#x7b;" d="M 768.88,498.176l-284.672,0 l0-417.792 l-189.44,0 l0,417.792 l-283.648,0 l 378.88,438.272z" horiz-adv-x="780" />
<glyph unicode="&#x7d;" d="M 11.12,500.224l 283.648,0 l0,418.816 l 189.44,0 l0-418.816 l 284.672,0 l-378.88-437.248z" horiz-adv-x="780" />
<glyph unicode="&#x2b;" d="M 471,910.848q 178.176,0 304.128-125.952t 125.952-304.128t-125.952-304.128t-304.128-125.952t-304.128,125.952t-125.952,304.128t 125.952,304.128t 304.128,125.952zM 725.976,460.288l0,41.984 q0,15.36 -10.752,26.112t-26.112,10.752l-123.904,0 q-15.36,0 -26.112,11.264t-10.752,26.624l0,123.904 q0,15.36 -11.264,26.112t-26.624,10.752l-41.984,0 q-15.36,0 -26.112-10.752t-10.752-26.112l0-123.904 q0-15.36 -11.264-26.624t-26.624-11.264l-122.88,0  q-16.384,0 -27.136-10.752t-10.752-26.112l0-41.984 q0-15.36 10.752-26.624t 27.136-11.264l 122.88,0 q 15.36,0 26.624-10.752t 11.264-26.112l0-123.904 q0-15.36 10.752-26.112t 26.112-10.752l 41.984,0 q 15.36,0 26.624,10.752t 11.264,26.112l0,123.904 q0,15.36 10.752,26.112t 26.112,10.752l 123.904,0 q 15.36,0 26.112,11.264t 10.752,26.624z" horiz-adv-x="942" />
<glyph unicode="&#x5f;" d="M 60.076,394.752l0,203.776 l 718.848,0 l0-203.776 l-718.848,0 z" horiz-adv-x="839" />
<glyph unicode="&#x3f;" d="M 472,910.848q 179.2,0 305.152-126.464t 125.952-304.64t-125.952-304.64t-305.152-126.464q-178.176,0 -304.64,126.464t-126.464,304.64t 126.464,304.64t 304.64,126.464zM 500.672,221.696q 19.456,18.432 19.456,48.128t-19.456,48.128q-20.48,17.408 -50.176,17.408q-28.672,0 -49.152-17.408q-20.48-20.48 -18.432-48.128q-2.048-27.648 18.432-48.128q 19.456-17.408 49.152-17.408q 32.768,0 50.176,17.408zM 616.384,551.424q 10.24,24.576 10.24,63.488 q0,59.392 -41.984,95.232q-38.912,34.816 -110.592,34.816q-50.176,0 -87.040-12.288q-33.792-11.264 -64.512-31.744l-9.216-6.144l 47.104-89.088l 10.24,8.192q 2.048,1.024 19.456,11.264q 7.168,4.096 23.552,10.24q 10.24,4.096 23.552,6.144q 7.168,2.048 21.504,2.048q 30.72,0 38.912-10.24q 11.264-11.264 11.264-31.744q0-13.312 -7.168-25.6q-12.288-16.384 -21.504-24.576q-4.096-4.096 -8.704-8.192l-10.24-9.216t-9.728-8.192q-17.408-16.384 -30.72-34.816q-12.288-20.48 -20.48-47.104q-5.12-22.528 -5.12-41.984 q0-4.096 0.512-12.288t 0.512-12.288l 1.024-11.264l 11.264,0 l 90.112,0 l0,12.288 q0,26.624 8.192,43.008q 9.216,16.384 21.504,30.72q 14.336,14.336 29.696,25.6t 32.768,30.72q 14.336,17.408 25.6,43.008z" horiz-adv-x="944" />
<glyph unicode="&#x23;" d="M 721.444,685.568q 9.216-14.336 -8.192-14.336l-49.152,0 l0-580.608 q0-7.168 -5.12-12.288t-12.288-5.12l-525.312,0 q-7.168,0 -12.288,5.12t-5.12,12.288l0,580.608 l-53.248,0 q-7.168,0 -9.728,4.096t 1.536,10.24l 31.744,47.104q 9.216,14.336 27.648,14.336l 76.8,0 l0,67.584 q0,20.48 12.288,30.72l 49.152,50.176q 12.288,12.288 30.72,12.288l 221.184,0 q 18.432,0 30.72-12.288l 53.248-53.248q 13.312-13.312 13.312-30.72l0-64.512 l 72.704,0 q 18.432,0 27.648-14.336zM 253.476,751.104l0-4.096 l 260.096,0 l0,4.096 l0,28.672 q0,20.48 -12.288,30.72l-9.216,10.24 q-12.288,12.288 -30.72,12.288l-158.72,0 q-18.432,0 -30.72-12.288l-6.144-6.144q-12.288-12.288 -12.288-30.72l0-32.768 zM 589.348,652.8q0,16.384 -16.384,18.432l-285.696,0 l-91.136,0 q-7.168,0 -12.288-5.632t-5.12-12.8l0-487.424 q0-7.168 5.12-12.288t 12.288-5.12l 375.808,0 q 7.168,0 12.288,5.12t 5.12,12.288l0,487.424 zM 268.836,620.032q 7.168,0 12.8-5.12t 5.632-12.288l0-388.096 q0-7.168 -5.632-12.288t-12.8-5.12l-21.504,0 q-7.168,0 -12.8,5.12t-5.632,12.288l0,388.096 q0,7.168 5.632,12.288 t 12.8,5.12l 21.504,0 zM 372.26,197.12q-7.168,0 -12.8,5.12t-5.632,12.288l0,388.096 q0,7.168 5.632,12.288t 12.8,5.12l 21.504,0 q 7.168,0 12.288-5.12t 5.12-12.288l0-388.096 q0-7.168 -5.12-12.288t-12.288-5.12l-21.504,0 zM 496.164,197.12q-7.168,0 -12.288,5.12t-5.12,12.288l0,388.096 q0,7.168 5.12,12.288t 12.288,5.12l 22.528,0 q 7.168,0 12.288-5.12t 5.12-12.288l0-388.096 q0-7.168 -5.12-12.288t-12.288-5.12l-22.528,0 z" horiz-adv-x="765" />
<glyph unicode="&#x60;" d="M 313.112,579.072l-155.648,156.672l-97.28-98.304l0,283.648 l 283.648,0 l-97.28-97.28l 155.648-155.648zM 801.56,268.8l 97.28,97.28l0-282.624 l-283.648,0 l 97.28,97.28l-155.648,154.624l 89.088,89.088zM 645.912,579.072l-89.088,89.088l 155.648,155.648l-97.28,97.28l 282.624,0 l0-283.648 l-96.256,97.28zM 313.112,424.448l 89.088-89.088l-155.648-155.648l 97.28-97.28l-283.648,1.024l0,283.648 l 97.28-98.304z" horiz-adv-x="958" />
<glyph unicode="&#x7e;" d="M 471,907.776q 178.176,0 304.128-125.952t 125.952-304.128t-125.952-304.128t-304.128-125.952t-304.128,125.952t-125.952,304.128t 125.952,304.128t 304.128,125.952zM 643.032,226.816l0,237.568 l-169.984,0 l 148.48,171.008l-114.688,0 l0,138.24 l-76.8,0 l0-138.24 l-114.688,0 l 147.456-171.008l-165.888,0 l0-237.568 l 148.48,0 l-39.936-39.936l 129.024,0 l-39.936,39.936l 148.48,0 zM 340.952,269.824l0,151.552 l 259.072,0 l0-151.552 l-259.072,0 z" horiz-adv-x="942" />
<glyph unicode="&#x27;" d="M 270.964,334.336q 79.872,79.872 193.024,79.872t 193.024-79.872q 1.024,0 1.024-1.024l-56.32-56.32q-1.024,0 -1.024,1.024q-56.32,56.32 -136.192,56.32t-136.192-56.32zM 142.964,462.336q 87.040,87.040 204.288,118.272t 233.984,0t 203.776-118.272l 1.024-1.024l-57.344-57.344q0,1.024 -1.024,1.024q-108.544,108.544 -263.68,109.056t-263.68-108.032zM 914.036,593.408q0-2.048 2.048-2.048l-57.344-57.344l-2.048,2.048q-106.496,106.496 -249.856,144.384t-286.208,0 t-249.344-144.384q-1.024,0 -1.024-1.024l-57.344,57.344l 1.024,1.024q 122.88,121.856 286.72,165.376t 327.168,0t 286.208-165.376zM 401.012,205.312q 26.624,25.6 64.512,25.6t 64.512-25.6l-64.512-64.512z" horiz-adv-x="929" />
<glyph unicode="&#x22;" d="M 52.868,487.936q 1.024,66.56 7.68,117.76t 27.136,103.936t 54.784,88.576t 92.672,59.904t 138.24,29.184l0-160.768 q-67.584,0 -97.28-47.616t-29.696-151.040l-4.096-1.024l 86.016,0 q 18.432,0 31.744-13.312t 13.312-32.768l0-264.192 q0-18.432 -13.312-31.744t-31.744-13.312l-230.4,0 q-18.432,0 -31.744,13.312t-13.312,31.744l0,264.192 l0,7.168 zM 504.452,487.936q0,66.56 7.168,117.76t 27.648,103.936t 54.784,88.576t 92.672,59.904t 138.24,29.184l0-160.768  q-68.608,0 -98.304-47.616t-29.696-151.040l-4.096-1.024l 86.016,0 q 18.432,0 31.744-13.312t 13.312-32.768l0-264.192 q0-18.432 -13.312-31.744t-31.744-13.312l-229.376,0 q-19.456,0 -32.768,13.312t-13.312,31.744l0,264.192 q0,5.12 1.024,7.168z" horiz-adv-x="885" />
<glyph unicode="&#x5b;" d="M 455.348,879.104l0-284.672 l 418.816,0 l0-189.44 l-418.816,0 l0-283.648 l-437.248,378.88z" horiz-adv-x="881" />
<glyph unicode="&#x5d;" d="M 424.628,121.344l0,283.648 l-417.792,0 l0,189.44 l 417.792,0 l0,284.672 l 438.272-378.88z" horiz-adv-x="881" />
<glyph unicode="&#x3e;" d="M 128.856,609.792l 227.328,228.352l0-684.032 l-227.328,227.328l-114.688,0 l0,228.352 l 114.688,0 zM 444.248,640.512q 76.8-51.2 76.8-143.36t-76.8-142.336l-34.816,68.608q 35.84,28.672 35.84,73.728t-35.84,73.728l0,2.048 zM 696.152,497.152q0-94.208 -47.104-172.544t-125.952-123.392l-34.816,67.584q 60.416,34.816 96.256,95.744t 35.84,132.608t-35.84,132.608t-96.256,95.744l0,2.048 l 33.792,66.56q 78.848-45.056 126.464-124.416t 47.616-172.544zM 600.92,947.712 q 120.832-67.584 193.024-187.392t 72.192-263.168t-72.192-263.168t-193.024-186.368l-33.792,67.584q 101.376,57.344 162.304,159.232t 60.928,222.72t-60.928,222.72t-163.328,159.232z" horiz-adv-x="910" />
<glyph unicode="&#x3c;" d="M 117.52,611.84l 227.328,228.352l0-684.032 l-227.328,227.328l-114.688,0 l0,228.352 l 114.688,0 z" horiz-adv-x="404" />
<glyph unicode="&#x2f;" d="M 709.188,741.888l 185.344,0 l0-130.048 l0-308.224 l-185.344,0 l0-54.272 l-139.264-139.264l-344.064,0 l0,193.536 l-185.344,0 l0,308.224 l0,130.048 l 185.344,0 l0,166.912 l 483.328,0 l0-166.912 zM 835.14,683.52l-107.52,0 l0-54.272 l 107.52,0 l0,54.272 zM 281.156,853.504l0-111.616 l 372.736,0 l0,111.616 l-372.736,0 zM 513.604,165.376l0,139.264 l 140.288,0 l0,134.144 l0,56.32 l 55.296,0 l0-132.096 l 68.608,0 l0,201.728 l-618.496,0 l0-201.728 l 66.56,0 l0,113.664 l0,18.432 l 55.296,0 l0-56.32 l0-273.408 l 232.448,0 z" horiz-adv-x="933" />
<glyph unicode="&#x2c;" d="M 470.012,906.752q 177.152,0 302.592-125.952t 125.44-303.104t-125.44-302.592t-302.592-125.44t-303.104,125.44t-125.952,302.592t 125.952,303.104t 303.104,125.952zM 587.772,450.048q-11.264,12.288 -11.264,28.672t 11.264,28.672l 111.616,110.592q 11.264,12.288 11.264,29.184t-11.264,28.16l-31.744,31.744q-12.288,11.264 -29.184,11.264t-28.16-11.264l-110.592-111.616q-12.288-11.264 -29.184-11.264t-28.16,11.264l-111.616,111.616 q-11.264,11.264 -28.16,11.264t-28.16-11.264l-31.744-31.744q-11.264-11.264 -11.264-28.16t 11.264-29.184l 111.616-110.592q 11.264-12.288 11.264-28.672t-11.264-28.672l-111.616-110.592q-11.264-12.288 -11.264-29.184t 11.264-28.16l 31.744-31.744q 11.264-11.264 28.16-11.264t 28.16,11.264l 111.616,111.616q 11.264,11.264 28.16,11.264t 29.184-11.264l 110.592-111.616q 11.264-11.264 28.16-11.264t 29.184,11.264l 31.744,31.744q 11.264,11.264 11.264,28.16t-11.264,29.184z " horiz-adv-x="939" />
<glyph unicode="&#x40;" d="M 264.096,911.872q 94.208,0 161.28-67.584t 67.072-160.768q0-109.568 -207.872-559.104l-24.576-51.2l-64.512,138.24t-103.424,250.368t-64.512,221.696q0,94.208 67.072,161.28t 161.28,67.072l 4.096,0 l 4.096,0 zM 260,598.528q 43.008,0 73.728,30.72t 30.72,74.752q0,43.008 -30.72,73.728t-73.728,30.72q-44.032,0 -74.752-30.72t-30.72-73.728q0-44.032 30.72-74.752t 74.752-30.72z" horiz-adv-x="520" />
<glyph unicode="&#x2e;" d="M 150.188,593.408q 37.888,0 65.536-27.648t 27.648-65.536q0-38.912 -27.136-66.56t-66.048-27.648t-66.56,27.648t-27.648,66.56t 27.648,66.048t 66.56,27.136zM 482.988,593.408q 38.912,0 66.56-27.136t 27.648-66.048t-27.648-66.56t-66.56-27.648t-66.048,27.648t-27.136,66.56q0,37.888 27.136,65.536t 66.048,27.648zM 816.812,593.408q 38.912,0 66.56-27.136t 27.648-66.048t-27.648-66.56t-66.56-27.648t-66.56,27.648t-27.648,66.56q0,37.888 27.648,65.536t 66.56,27.648z " horiz-adv-x="967" />
<glyph unicode="&#x26;" d="M 475.876,606.72l 256,0 l0-202.752 l-256,0 l0-256 l-202.752,0 l0,256 l-256,0 l0,202.752 l 256,0 l0,256 l 202.752,0 l0-256 z" horiz-adv-x="749" />
<glyph unicode="&#x28;" d="M 920.912,435.065q-16.19-16.19 -39.023-16.19t-38.608,15.776l-12.454,12.454l0-347.886 q0-21.587 -15.36-37.362t-37.778-15.776l-159.413,0 l0,239.12 q0,10.794 -7.887,18.681t-18.681,7.887l-159.413,0 q-10.794,0 -18.681-7.887t-7.887-18.681l0-239.12 l-159.413,0 q-22.417,0 -37.778,15.776t-15.36,37.362l0,347.886 l-12.454-12.454q-15.776-15.776 -38.608-15.776t-39.023,16.19t-16.19,39.023t 15.776,38.608l 368.642,368.642
q 16.605,16.605 40.684,15.776q 24.078,0.83 40.684-15.776l 368.642-368.642q 15.776-15.776 15.776-38.608t-16.19-39.023z" />
<glyph unicode="&#x29;" d="M 471,907.776q 178.176,0 304.128-125.952t 125.952-304.128t-125.952-304.128t-304.128-125.952q-177.152,0 -303.616,125.952t-126.464,304.128t 126.464,304.128t 303.616,125.952zM 526.296,774.656q-31.744-1.024 -50.176-22.528t-18.432-46.080q0-25.6 13.824-41.472t 37.376-15.872l 1.024,0 q 29.696,0 49.664,20.992t 19.968,49.664q0,23.552 -13.312,37.888q-15.36,17.408 -39.936,17.408zM 578.52,292.352l 3.072,3.072l-2.048,4.096l-18.432,38.912l-5.12-4.096 q-14.336-14.336 -35.328-28.672t-25.088-15.36l0,5.12 q0,7.168 3.072,20.48l 47.104,192.512q 6.144,25.6 6.144,58.368q0,18.432 -6.144,30.72q-7.168,12.288 -22.528,12.288q-25.6,0 -73.216-29.184t-93.696-72.192l-3.072-3.072l 16.384-46.080l 6.144,4.096q 35.84,31.744 56.32,39.936q0-6.144 -3.072-21.504l-44.032-186.368q-6.144-30.72 -6.144-61.44q0-25.6 10.24-36.864q 9.216-10.24 26.624-10.24q 23.552,0 72.192,29.696t 90.624,75.776z" horiz-adv-x="942" />
<glyph unicode="&#x7c;" d="M 471.012,907.776q 177.152,0 303.104-125.952t 125.952-303.104q0-178.176 -125.952-304.128t-303.104-125.952q-178.176,0 -304.128,125.952t-125.952,304.128q0,177.152 125.952,303.104t 304.128,125.952zM 471.012,156.16q 133.12,0 227.328,94.72t 94.208,227.84t-94.208,227.328t-227.328,94.208t-227.84-94.208t-94.72-227.328t 94.72-227.84t 227.84-94.72zM 678.884,382.464q 14.336-10.24 5.12-24.576l-24.576-39.936q-5.12-6.144 -11.264-8.192l-4.096,0  q-5.12,0 -10.24,3.072l-197.632,132.096q-1.024,1.024 -2.56,2.048t-2.56,1.024q-5.12,7.168 -5.12,13.312l0,233.472 q0,7.168 5.12,12.288q 7.168,5.12 13.312,5.12l 47.104,0 q 7.168,0 12.288-5.12t 5.12-12.288l0-197.632 z" horiz-adv-x="941" />
<glyph unicode="&#x3d;" d="M 778.012,349.696q 47.104-20.48 74.24-45.568t 30.208-39.424l 3.072-14.336l0-88.064 l-856.064,0 l0,88.064 q0,2.048 0.512,6.144t 6.144,15.36t 15.872,22.528t 32.256,26.624t 51.712,28.672q 12.288,5.12 55.296,29.696t 89.088,44.032t 96.256,28.672q-33.792,34.816 -73.728,137.216q-11.264,28.672 -11.264,102.4q0,7.168 -1.024,31.744t-0.512,42.496t 3.584,30.208q 31.744,113.664 162.816,113.664q 130.048,0 161.792-113.664q 4.096-12.288 4.608-30.208t-1.024-41.984t-1.536-32.256 q0-73.728 -10.24-102.4q-38.912-98.304 -73.728-137.216q 51.2-8.192 96.768-27.648t 89.088-44.544t 55.808-30.208z" horiz-adv-x="915" />
<glyph unicode="&#x24;" d="M 401.332,904.372 C 427,930.040 448,921.34 448,885.040 L 448,57.040 C 448,20.74 427,12.042 401.332,37.71 L 160,279.040 L 0,279.040 L 0,663.040 L 160,663.040 L 401.332,904.372 ZM 960,363.892 L 960,279.040 L 875.148,279.040 L 768,386.188 L 660.852,279.040 L 576,279.040 L 576,363.892 L 683.148,471.040 L 576,578.188 L 576,663.040 L 660.852,663.040 L 768,555.892 L 875.148,663.040 L 960,663.040 L 960,578.188 L 852.852,471.040 Z" />
<glyph unicode="&#x25;" d="M 890.040,61c-12.286,0-24.568,4.686-33.942,14.058c-18.744,18.746-18.744,49.136,0,67.882
		C 943.736,230.582, 992.002,347.1, 992.002,471.040c0,123.938-48.266,240.458-135.904,328.098c-18.744,18.746-18.744,49.138,0,67.882
		c 18.744,18.744, 49.138,18.744, 67.882,0c 105.77-105.772, 164.022-246.4, 164.022-395.98c0-149.582-58.252-290.208-164.022-395.98
		C 914.608,65.686, 902.324,61, 890.040,61zM 719.53,151.51c-12.286,0-24.568,4.686-33.942,14.058c-18.744,18.744-18.744,49.136,0,67.882
		c 131.006,131.006, 131.006,344.17,0,475.176c-18.744,18.746-18.744,49.138,0,67.882c 18.744,18.742, 49.138,18.744, 67.882,0
		C 835.064,694.916, 880,586.432, 880,471.040c0-115.39-44.936-223.876-126.53-305.47C 744.098,156.196, 731.814,151.51, 719.53,151.51zM 549.020,242.020c-12.286,0-24.568,4.686-33.942,14.058c-18.746,18.746-18.746,49.136,0,67.882
		c 81.1,81.1, 81.1,213.058,0,294.156c-18.746,18.746-18.746,49.138,0,67.882c 18.746,18.744, 49.136,18.744, 67.882,0
		c 118.53-118.53, 118.53-311.392,0-429.922C 573.588,246.706, 561.304,242.020, 549.020,242.020zM 401.332,904.372 C 427,930.040 448,921.34 448,885.040 L 448,57.040 C 448,20.74 427,12.042 401.332,37.71 L 160,279.040 L 0,279.040 L 0,663.040 L 160,663.040 L 401.332,904.372 Z" horiz-adv-x="1088" />
<glyph unicode="&#x5e;" d="M 500,770.685l-278.165-286.5l0-131.269 l0-317.756 l 180.235,0 q-1.043,9.376 -1.043,18.754l0,141.687 q0,48.966 28.651,83.345t 70.322,34.379t 70.322-34.379t 28.651-83.345l0-141.687 q0-9.376 -1.043-18.754l 180.235,0 l0,338.593 l0,110.432 zM 500,928l-437.566-455.274l 79.179,0 l 358.387,358.387l 358.387-358.387l 79.179,0 l-198.989,211.49l0,65.634 l0,157.315 q0,9.376 -14.585,15.106t-34.9,5.731t-34.9-5.731t-14.585-15.106l0-121.893 z" />
<glyph unicode="&#x20;" horiz-adv-x="512" />
</font>
</defs>
</svg>
