<?xml version="1.0" standalone="no"?>
<!DOCTYPE svg PUBLIC "-//W3C//DTD SVG 1.1//EN" "http://www.w3.org/Graphics/SVG/1.1/DTD/svg11.dtd" >
<svg xmlns="http://www.w3.org/2000/svg">
<metadata>
This is a custom SVG font generated by IcoMoon.
<iconset grid="32"></iconset>
</metadata>
<defs>
<font id="pictos-web" horiz-adv-x="1024" >
<font-face units-per-em="1024" ascent="960" descent="-64" />
<missing-glyph horiz-adv-x="1024" />
<glyph class="hidden" unicode="&#xf000;" d="M0,960L 1024 -64L0 -64 z" horiz-adv-x="0" />
<glyph unicode="&#x61;" d="M 724.48,471.87q-52.29-55.61 -79.265-100.845t-26.975-85.905l0,0 q0-10.79 -7.885-18.675t-18.675-7.885l-159.36,0 q-10.79,0 -18.675,7.885t-7.885,18.675l0,0 q0,40.67 -26.975,85.905t-79.265,100.845q-53.12,70.55 -53.12,158.53q0,72.21 35.69,133.215t 96.695,96.695t 133.215,35.69t 133.215-35.69t 96.695-96.695t 35.69-133.215q0-87.98 -53.12-158.53zM 432.32,205.44l 159.36,0 
q 10.79,0 18.675-7.885t 7.885-18.675t-7.885-18.675t-18.675-7.885l-159.36,0 q-10.79,0 -18.675,7.885t-7.885,18.675t 7.885,18.675t 18.675,7.885zM 512,46.080q-43.99,0 -75.115,15.77t-31.125,37.35l 212.48,0 q0-21.58 -31.125-37.35t-75.115-15.77z" />
<glyph unicode="&#x62;" d="M 789.269,572.58l-475.013-205.949q-21.592-6.644 -41.108,5.399t-25.328,34.463t 5.399,42.767t 32.802,26.989l 475.013,205.949q 22.422,5.812 41.522-5.812t 25.328-34.463t-5.399-43.183t-33.218-26.16zM 736.12,732.024l-475.013-205.949q-21.592-6.644 -41.108,5.399t-25.328,34.463t 5.399,42.767t 32.802,26.16l 475.013,206.78q 22.422,5.812 41.522-5.812t 25.328-34.463t-5.399-43.183t-33.218-26.16zM 443.806,785.173l-129.55-46.504
q-21.592-6.644 -41.108,4.983t-25.328,34.463t 5.399,43.183t 32.802,26.16l 130.379,47.335q 21.592,5.812 41.108-5.812t 25.328-34.463t-5.399-43.183t-33.634-26.16zM 426.366,359.157q 8.304,7.474 19.1,10.795l 262.42,99.653q 22.422,5.812 41.522-5.812t 25.328-34.463t-5.399-43.183t-33.218-26.16l-224.22-85.536q-0.83-10.795 -0.83-15.778l 53.149,0 q 22.422,0 37.784-15.778t 15.363-37.784t-15.363-37.371t-37.784-15.363l-106.297,0 q-4.983,0 -9.966,0.83
q-40.692,4.153 -68.511,34.463t-27.819,71.002q0,34.879 20.761,62.698t 53.978,37.784zM 511.071,46.080q-44.013,0 -75.155,15.363t-31.142,37.784l 212.593,0 q0-22.422 -31.142-37.784t-75.155-15.363z" />
<glyph unicode="&#x63;" d="M 515.956,903.008c-163.41,0-249.178-128.879-249.178-246.136c0-131.556, 122.429-214.28, 122.429-429.413
			l 123.981,0 c0,0, 116.435-0.547, 119.964-0.547c 3.529,216.714, 124.071,301.965, 124.071,430.996C 757.254,768.014, 679.366,903.008, 515.956,903.008z M 617.696,195.636
			l-212.973,0 c-8.397,0-15.212-6.815-15.212-15.212s 6.815-15.212, 15.212-15.212l 212.973,0 c 8.367,0, 15.212,6.815, 15.212,15.212S 626.062,195.636, 617.696,195.636z M 617.696,134.787l-212.973,0 
			c-8.397,0-15.212-6.815-15.212-15.212s 6.815-15.212, 15.212-15.212l 212.973,0 c 8.367,0, 15.212,6.815, 15.212,15.212S 626.062,134.787, 617.696,134.787zM 419.936,73.937c0,0,0-13.6,0-30.425c0-16.794, 13.6-30.425, 30.425-30.425l 122.124,0 c 16.825,0, 30.425,13.631, 30.425,30.425
	c0,16.825,0,30.425,0,30.425L 419.936,73.937 z" />
<glyph unicode="&#x64;" d="M 666.532,641.713c 15.526,4.194, 24.76,20.128, 20.594,35.684
		c-4.166,15.556-20.128,24.79-35.684,20.594l-293.943-90.446c-15.556-4.166-24.76-20.128-20.624-35.684c 4.166-15.526, 20.128-24.79, 35.684-20.594
		l 24.266,7.456L 424.612,508.098l-29.13,0 c-32.158,0-58.26-26.099-58.26-58.26l0-121.381 l 58.26-82.522l 233.034,0 l 58.26,82.522l0,121.381 c0,32.158-26.099,58.26-58.26,58.26l-29.13,0 l 58.696,131.024L 666.532,641.713z
		 M 541.132,508.098l-58.26,0 l-36.208,65.948l 143.84,44.277L 541.132,508.098zM 651.442,785.35L 357.5,694.904c-15.556-4.166-24.76-20.128-20.624-35.684
		c 4.166-15.526, 20.128-24.79, 35.684-20.594l 293.943,90.446c 15.526,4.194, 24.76,20.128, 20.594,35.684S 666.968,789.546, 651.442,785.35zM 372.559,726.014l 293.943,90.446c 15.526,4.194, 24.76,20.128, 20.594,35.684
		c-4.166,15.556-20.128,24.79-35.684,20.594L 357.5,782.29c-15.556-4.166-24.76-20.128-20.624-35.684C 341.041,731.082, 357.034,721.848, 372.559,726.014zM 613.954,216.804l-203.906,0 c-8.039,0-14.564-6.526-14.564-14.564s 6.526-14.564, 14.564-14.564l 203.906,0 
		c 8.011,0, 14.564,6.526, 14.564,14.564S 621.964,216.804, 613.954,216.804zM 613.954,158.548l-203.906,0 c-8.039,0-14.564-6.526-14.564-14.564s 6.526-14.564, 14.564-14.564l 203.906,0 
		c 8.011,0, 14.564,6.526, 14.564,14.564S 621.964,158.548, 613.954,158.548zM 613.954,100.288l-203.906,0 c-8.039,0-14.564-6.526-14.564-14.564s 6.526-14.564, 14.564-14.564l 203.906,0 
		c 8.011,0, 14.564,6.526, 14.564,14.564S 621.964,100.288, 613.954,100.288zM 468.308,42.030c-2.942-23.945, 19.576-43.694, 43.694-43.694s 43.694,19.576, 43.694,43.694
		C 555.694,40.778, 468.308,38.942, 468.308,42.030zM 374.248,812.091l 194.584,60.968c 15.352,4.806, 23.885,21.176, 19.078,36.498
		c-4.806,15.352-21.148,23.915-36.498,19.108l-194.584-60.968c-15.352-4.806-23.885-21.176-19.078-36.528C 342.556,815.848, 358.899,807.284, 374.248,812.091z" />
<glyph unicode="&#x65;" d="M 565.214,531.445c-38.075-17.119-122.513,24.825-122.513,24.825
			c-98.937,59.307, 37.162-184.988, 37.162-184.988s 2.832-76.243, 19.951-85.747C 642.585,485.449, 603.291,548.593, 565.214,531.445z M 513.827,341.887
			c-11.545,0-60.068,145.572-54.342,176.033c 38.106-3.808, 73.38-18.185, 94.337-6.763C 612.825,537.902, 527.139,341.887, 513.827,341.887z M 632.381,228.969
			c 3.503,222.515, 123.245,308.142, 123.245,440.646c0,113.071-77.37,257.394-239.727,257.394c-162.325,0-247.524-138.078-247.524-258.429
			c0-135.124, 121.629-220.049, 121.629-441.011l 123.153,0 C 513.158,227.567, 628.848,228.969, 632.381,228.969z M 414.8,257.206
			c0,206.25-117.822,285.508-117.822,411.616c0,112.339, 76.456,230.161, 218.495,230.161s 211.642-123.671, 211.642-229.187c0-123.671-116.178-205.367-119.285-413.048
			c-3.107,0-94.763,0.488-94.763,0.488L 414.8,257.237 z M 618.765,196.468l-213.225,0 c-8.407,0-15.23-6.823-15.23-15.23s 6.823-15.23, 15.23-15.23l 213.225,0 
			c 8.376,0, 15.23,6.823, 15.23,15.23S 627.142,196.468, 618.765,196.468z M 618.765,135.546l-213.225,0 c-8.407,0-15.23-6.823-15.23-15.23s 6.823-15.23, 15.23-15.23l 213.225,0 
			c 8.376,0, 15.23,6.823, 15.23,15.23S 627.142,135.546, 618.765,135.546z M 420.526,73.741c0,0,0-10.174,0-27.415s 13.525-31.222, 30.218-31.222l 122.787,0 
			c 16.723,0, 30.218,13.981, 30.218,31.222s-1.889,27.415-1.889,27.415L 420.526,73.741 z" />
<glyph unicode="&#x66;" d="M 859.073,577.28l-235.72,0 q0-35.69 16.6-80.51t 36.52-80.925t 36.52-80.095t 16.6-77.19q0-47.31 -19.505-89.226t-53.535-71.795q 8.3-1.66 14.11-8.715t 5.81-16.185q0-10.79 -7.885-18.675t-18.675-7.885l-265.6,0 q-10.79,0 -18.675,7.885t-7.885,18.675q0,9.13 5.81,16.185t 14.94,8.715q-34.86,29.88 -54.365,71.795t-19.505,89.226q0,34.030 16.6,78.020t 36.52,80.095t 36.52,80.51t 16.6,80.095
l-159.36,0 l0-239.040 q0-10.79 -7.885-18.675t-18.675-7.885t-18.675,7.885t-7.885,18.675l0,239.040 l-23.24,0 q-16.6,0 -24.485,11.62t-2.075,27.39l 201.69,261.45q 2.49,7.47 12.45,12.865t 21.58,5.395l 273.9,0 q 10.79,0 20.75-5.395t 12.45-12.865l 195.88-261.45q 4.98-15.77 -3.32-27.39t-24.9-11.62z" />
<glyph unicode="&#x67;" d="M 777.6,497.6c-14.688,0-26.56-11.872-26.56-26.56l0-185.92 c0-14.688, 11.872-26.56, 26.56-26.56s 26.56,11.872, 26.56,26.56l0,185.92 
		C 804.16,485.728, 792.288,497.6, 777.6,497.6z M 697.92,99.2L 326.080,99.2 c-14.661,0-26.56-11.872-26.56-26.56s 11.899-26.56, 26.56-26.56l 371.84,0 c 14.688,0, 26.56,11.872, 26.56,26.56S 712.608,99.2, 697.92,99.2z M 618.24,869.44
		c0,14.688-11.872,26.56-26.56,26.56l-132.8,0 c0,0-26.56-11.872-26.56-26.56L 87.040,550.72c0-14.688, 11.899-26.56, 26.56-26.56l 318.72,0 c-14.688,0-26.56-38.432-26.56-53.12l0-318.72 c0-14.688, 11.872-26.56, 26.56-26.56l 159.36,0 
		c 14.688,0, 26.56,11.872, 26.56,26.56L 618.24,471.040 c0,14.688-11.872,53.12-26.56,53.12l 318.72,0 c 14.688,0, 26.56,11.872, 26.56,26.56L 618.24,869.44z" />
<glyph unicode="&#x68;" d="M 567.193,396.402c-56.195,45.927-92.065,115.766-92.065,194.011
	c0,39.316, 9.846,76.029, 25.988,109.155l-38.612,38.577l-234.557-234.592c 43.606-34.322, 39.21-67.87-11.816-100.575l 313.364-313.329l 153.57,0 
	c 19.763,0, 35.799-16.036, 35.799-35.799l0-35.799 l-167.671,0 l-0.387-0.387l-0.387,0.387L 289.558,18.051 L 289.558,53.815 c0,19.763, 16.036,35.799, 35.799,35.799l 153.57,0 
	l-295.605,295.57c-58.411-25.038-87.247-0.844-86.016,73.497c 1.336,79.088, 34.849,100.188, 99.836,64.6l 240.149,240.149L 413.518,787.166
	c-13.961,13.926-13.961,36.608,0,50.569l 75.888,75.888c 13.961,13.961, 36.643,13.961, 50.604,0l 91.432-91.502c 29.117,11.851, 60.802,18.638, 94.175,18.638
	c 82.359,0, 155.504-35.342, 201.114-96.777C 928.278,743.596, 568.494,395.839, 567.193,396.402z M 844.055,620.198c0,0, 60.38-75.994,0-136.374
	s-135.635,0.738-135.635,0.738L 844.055,620.198z" />
<glyph unicode="&#x69;" d="M 546.336,544.096l0-128.192 c 17.696,0, 32.032-14.336, 32.032-32.064l0-32.032 
	c0,0, 98.144-40.064, 98.144-126.176s-70.784-162.24-70.784-162.24l-183.584,0 c0,0-68.096,76.128-70.080,162.24c0,88.128, 98.112,126.176, 98.112,126.176l0,32.032 
	c0,17.728, 14.336,32.064, 32.032,32.064l0,128.192 L 281.952,544.096 l0-213.952 c 13.728-3.616, 24.064-15.552, 24.064-30.432c0-17.696-14.368-32.032-32.064-32.032
	S 241.92,282.016, 241.92,299.712c0,14.88, 10.304,26.816, 24.032,30.432l0,213.952 L 161.792,544.096 L 406.112,928.64l 219.072,0 l 237.024-384.544L 546.336,544.096 z" />
<glyph unicode="&#x6a;" d="M 565.049,417.92q-106.24,77.19 -106.24,185.090q0,41.5 14.11,80.51l-14.94,14.94l-221.61-221.61l 170.98-324.53l 210.82,0 q 21.58,0 37.35-15.77t 15.77-37.765t-15.77-37.35t-37.35-15.355l-424.96,0 q-21.58,0 -37.35,15.355t-15.77,37.35t 15.77,37.765t 37.35,15.77l 154.38,0 l-151.060,284.69l-10.79-10.79q-7.47-8.3 -18.675-8.3t-19.090,7.885t-7.885,19.090t 7.47,18.675l 23.24,23.24l-26.56,50.63q-5.81,9.13 -2.905,19.92t 12.45,16.6t 19.92,2.905
t 16.185-12.865l 19.92-38.18l 212.48,211.65q-19.92,29.88 -16.6,66.4t 29.050,62.25q 29.88,29.88 72.21,29.88t 72.21-29.88l 38.18-38.18q 39.84,14.11 80.51,14.11q 108.73,0 185.92-106.24z" />
<glyph unicode="&#x6b;" d="M 881.35,209.59q-8.3-69.72 -60.59-116.616t-122.84-46.895q-69.72,0 -121.596,45.65t-61.835,113.71l-2.49,0 l-2.49,0 q-9.96-68.060 -61.835-113.71t-121.596-45.65q-70.55,0 -122.84,46.895t-60.59,116.616q-24.9,7.47 -40.255,28.22t-15.355,47.31q0,24.070 10.375,67.23t 29.88,80.925t 39.425,37.765q 24.070,0 44.82-47.725t 30.71-101.675q 83.83,33.2 143.176,164.34t 70.965,310.42q-22.41,9.13 -36.52,28.635
t-14.11,44.405q0,13.28 4.98,26.56l 202.52,0 q 4.98-13.28 4.98-26.56q0-24.9 -14.11-44.405t-36.52-28.635q 11.62-179.28 70.965-310.42t 143.176-164.34q 9.96,53.95 30.71,101.675t 44.82,47.725q 19.92,0 39.425-37.765t 29.88-80.925t 10.375-67.23q0-26.56 -15.355-47.31t-40.255-28.22zM 166.72,391.36q-9.96,0 -18.26-30.71t-8.3-53.95q0-19.92 7.885-34.030t 18.675-14.11t 18.675,14.11t 7.885,34.030q0,23.24 -8.3,53.95
t-18.26,30.71zM 458.88,534.12q-36.52-106.24 -92.545-176.79t-122.426-90.47q-9.96-40.67 -48.14-55.61q 7.47-48.14 44.405-80.095t 85.905-31.955q 54.78,0 93.79,39.010t 39.010,93.79l0,302.12 zM 780.92,266.86q-67.23,19.92 -123.256,90.47t-92.545,176.79l0-302.12 q0-54.78 39.010-93.79t 93.79-39.010q 48.97,0 85.905,31.955t 45.235,80.095q-39.010,14.94 -48.14,55.61zM 857.28,391.36q-9.96,0 -18.26-30.71t-8.3-53.95
q0-19.92 7.885-34.030t 18.675-14.11t 18.675,14.11t 7.885,34.030q0,23.24 -8.3,53.95t-18.26,30.71z" />
<glyph unicode="&#x6c;" d="M 843.821,394.651L 435.61,802.862c-17.805,17.805-17.805,46.67,0,64.445
	c 17.805,17.805, 46.64,17.805, 64.445,0l 96.682-96.682l 118.195,118.164c 17.805,17.805, 46.64,17.805, 64.445,0c 17.805-17.774, 17.805-46.64,0-64.445
	l-118.164-118.164l 85.926-85.926l 118.164,118.164c 17.805,17.805, 46.67,17.805, 64.475,0c 17.774-17.805, 17.774-46.64,0-64.445l-118.195-118.195l 96.713-96.682
	c 17.774-17.805, 17.774-46.64,0-64.445C 890.49,376.846, 861.626,376.846, 843.821,394.651z M 661.212,233.525c-39.408-39.378-214.846-42.963-214.846-42.963
	l-214.846,214.846c0,0, 3.585,175.438, 42.963,214.846c 39.408,39.378, 150.402,150.371, 150.402,150.371l 386.729-386.729
	C 811.583,383.926, 700.59,272.933, 661.212,233.525z M 231.52,362.444l 171.883-171.883c 11.88-11.88, 11.88-31.083,0-42.963s-31.114-11.88-42.994,0
	l-171.853,171.883c-11.88,11.88-11.88,31.083,0,42.963S 219.639,374.294, 231.52,362.444z M 317.447,147.598c0,0-14.433-14.462-32.238-32.238
	c-17.805-17.805-46.64-17.805-64.445,0l-10.756,10.756l-85.957-85.926l-42.963,42.963l 85.957,85.926L 156.319,179.806
	c-17.805,17.805-17.805,46.67,0,64.475s 33.999,30.415, 33.999,30.415L 317.447,147.598z" />
<glyph unicode="&#x6d;" d="M 936.96,661.526L 861.839,736.64L 713.482,588.275L 629.236,672.524L 777.598,820.886L 702.484,896L 554.122,747.638L 458.88,842.88L 386.982,770.982L 811.942,346.022L 883.84,417.92L 788.596,513.164 	zM 315.082,274.119c 137.588-137.583, 319.711-30.181, 431.011,62.635L 377.719,705.128
		C 284.905,593.829, 177.501,411.706, 315.082,274.119zM 246.4,311.677L 352.633,205.442L 193.281,46.088L 87.044,152.323z" />
<glyph unicode="&#x6f;" d="M 830.72,46.080l-637.44,0 q-43.99,0 -75.115,31.125t-31.125,75.115l0,637.44 q0,43.99 31.125,75.115t 75.115,31.125l 637.44,0 q 43.99,0 75.115-31.125t 31.125-75.115l0-637.44 q0-43.99 -31.125-75.115t-75.115-31.125zM 193.694,99.2q 21.995,0 37.35,15.77t 15.355,37.765t-15.355,37.35t-37.35,15.355t-37.765-15.355t-15.77-37.35t 15.77-37.765t 37.765-15.77zM 193.694,842.88
q-21.995,0 -37.765-15.355t-15.77-37.35t 15.77-37.765t 37.765-15.77t 37.35,15.77t 15.355,37.765t-15.355,37.35t-37.35,15.355zM 512,736.64q-72.21,0 -133.215-35.69t-96.695-96.695t-35.69-133.215t 35.69-133.215t 96.695-96.695t 133.215-35.69t 133.215,35.69t 96.695,96.695t 35.69,133.215t-35.69,133.215t-96.695,96.695t-133.215,35.69zM 830.306,842.88
q-21.995,0 -37.35-15.355t-15.355-37.35t 15.355-37.765t 37.35-15.77t 37.765,15.77t 15.77,37.765t-15.77,37.35t-37.765,15.355zM 830.306,205.44q-21.995,0 -37.35-15.355t-15.355-37.35t 15.355-37.765t 37.35-15.77t 37.765,15.77t 15.77,37.765t-15.77,37.35t-37.765,15.355zM 512,258.56q-87.98,0 -150.23,62.25t-62.25,150.23t 62.25,150.23t 150.23,62.25t 150.23-62.25t 62.25-150.23t-62.25-150.23t-150.23-62.25z
M 406.175,524.16q-21.995,0 -37.765-15.355t-15.77-37.765t 15.355-37.765t 37.35-15.355t 37.765,15.77t 15.77,37.765t-15.355,37.35t-37.35,15.355zM 618.24,524.16q-22.41,0 -37.765-15.355t-15.355-37.765t 15.355-37.765t 37.35-15.355t 37.765,15.77t 15.77,37.765t-15.355,37.35t-37.765,15.355z" />
<glyph unicode="&#x70;" d="M 830.72,46.080l-637.44,0 q-43.99,0 -75.115,31.125t-31.125,75.115l0,637.44 q0,43.99 31.125,75.115t 75.115,31.125l 637.44,0 q 43.99,0 75.115-31.125t 31.125-75.115l0-637.44 q0-43.99 -31.125-75.115t-75.115-31.125zM 193.694,99.2q 21.995,0 37.35,15.77t 15.355,37.765t-15.355,37.35t-37.35,15.355t-37.765-15.355t-15.77-37.35t 15.77-37.765t 37.765-15.77zM 193.694,842.88
q-21.995,0 -37.765-15.355t-15.77-37.35t 15.77-37.765t 37.765-15.77t 37.35,15.77t 15.355,37.765t-15.355,37.35t-37.35,15.355zM 687.96,736.64l-351.92,0 q-65.57-43.99 -104.165-114.125t-38.595-151.89t 38.595-151.475t 104.165-113.71l 351.92,0 q 65.57,43.99 104.165,113.71t 38.595,151.89t-38.595,151.89t-104.165,113.71zM 831.136,842.88q-21.995,0 -37.765-15.355t-15.77-37.35t 15.77-37.765
t 37.765-15.77t 37.35,15.77t 15.355,37.765t-15.355,37.35t-37.35,15.355zM 831.136,205.44q-21.995,0 -37.765-15.355t-15.77-37.35t 15.77-37.765t 37.765-15.77t 37.35,15.77t 15.355,37.765t-15.355,37.35t-37.35,15.355zM 670.53,258.56l-317.060,0 q-49.8,37.35 -78.435,92.96t-28.635,119.52t 28.635,119.52t 78.435,92.96l 317.060,0 q 49.8-37.35 78.435-92.96t 28.635-119.52t-28.635-119.52t-78.435-92.96z
M 405.76,550.72q0,10.79 -7.885,18.675t-18.675,7.885t-18.675-7.885t-7.885-18.675l0-53.12 q0-10.79 7.885-18.675t 18.675-7.885t 18.675,7.885t 7.885,18.675l0,53.12 zM 565.12,364.8q0,22.41 -15.355,37.765t-37.765,15.355t-37.765-15.355t-15.355-37.765l0-53.12 l 106.24,0 l0,53.12 zM 671.36,550.72q0,10.79 -7.885,18.675t-18.675,7.885t-18.675-7.885t-7.885-18.675l0-53.12 q0-10.79 7.885-18.675
t 18.675-7.885t 18.675,7.885t 7.885,18.675l0,53.12 z" />
<glyph unicode="&#x73;" d="M 61.44,838.144l 855.040,0 l0-689.152 l-855.040,0 l0,689.152 zM 844.8,220.672l0,546.816 l-711.68,0 l0-546.816 l 711.68,0 zM 230.4,633.344q-18.432,0 -31.744,13.312t-13.312,31.744t 13.312,31.232t 31.744,12.8t 31.232-12.8t 12.8-31.232t-12.8-31.744t-31.232-13.312zM 748.544,633.344q-18.432,0 -31.744,13.312t-13.312,31.744t 13.312,31.232t 31.744,12.8t 31.232-12.8t 12.8-31.232t-12.8-31.744t-31.232-13.312zM 230.4,354.816q 18.432,0 31.232-13.312 t 12.8-31.744t-12.8-31.232t-31.232-12.8t-31.744,12.8t-13.312,31.232t 13.312,31.744t 31.744,13.312zM 748.544,354.816q 18.432,0 31.232-13.312t 12.8-31.744t-12.8-31.232t-31.232-12.8t-31.744,12.8t-13.312,31.232t 13.312,31.744t 31.744,13.312zM 607.232,659.968l0-332.8 l-233.472,0 l0,332.8 l 233.472,0 zM 545.792,377.344l0,120.832 l-111.616,0 l0-120.832 l 111.616,0 z" horiz-adv-x="977.92" />
<glyph unicode="&#x72;" d="M 830.72,46.080l-637.44,0 q-43.99,0 -75.115,31.125t-31.125,75.115l0,637.44 q0,43.99 31.125,75.115t 75.115,31.125l 637.44,0 q 43.99,0 75.115-31.125t 31.125-75.115l0-637.44 q0-43.99 -31.125-75.115t-75.115-31.125zM 192.864,842.88q-21.995,0 -37.35-15.355t-15.355-37.35t 15.355-37.765t 37.35-15.77t 37.765,15.77t 15.77,37.765t-15.77,37.35t-37.765,15.355zM 192.864,205.44
q-21.995,0 -37.35-15.355t-15.355-37.35t 15.355-37.765t 37.35-15.77t 37.765,15.77t 15.77,37.765t-15.77,37.35t-37.765,15.355zM 671.36,683.52q0,22.41 -15.77,37.765t-37.35,15.355l-212.48,0 q-22.41,0 -37.765-15.355t-15.355-37.765l0-424.96 q0-21.58 15.355-37.35t 37.765-15.77l 212.48,0 q 21.58,0 37.35,15.77t 15.77,37.35l0,424.96 zM 830.72,842.88q-22.41,0 -37.765-15.355t-15.355-37.35t 15.355-37.765
t 37.765-15.77t 37.765,15.77t 15.355,37.765t-15.355,37.35t-37.765,15.355zM 830.72,205.44q-22.41,0 -37.765-15.355t-15.355-37.35t 15.355-37.765t 37.765-15.77t 37.765,15.77t 15.355,37.765t-15.355,37.35t-37.765,15.355zM 565.12,258.56l-106.24,0 q-22.41,0 -37.765,15.77t-15.355,37.35l0,53.12 q0,22.41 15.355,37.765t 37.765,15.355l 106.24,0 q 21.58,0 37.35-15.355t 15.77-37.765l0-53.12 q0-21.58 -15.77-37.35
t-37.35-15.77zM 565.12,471.040l-106.24,0 q-22.41,0 -37.765,15.77t-15.355,37.35l0,106.24 q0,22.41 15.355,37.765t 37.765,15.355l 106.24,0 q 21.58,0 37.35-15.355t 15.77-37.765l0-106.24 q0-21.58 -15.77-37.35t-37.35-15.77z" />
<glyph unicode="&#x71;" d="M 838.144,107.008l-670.208,0 q-50.456,0 -86.156,35.7t-35.7,86.156l0,548.352 q0,50.456 35.7,86.156t 86.156,35.7l 670.208,0 q 50.456,0 86.156-35.7t 35.7-86.156l0-548.352 q0-50.456 -35.7-86.156t-86.156-35.7zM 838.144,594.432q0,12.376 -8.568,20.944l-154.224,154.224q-9.52,9.52 -23.8,7.616l-297.976,0 q-14.28,1.904 -23.8-7.616l-154.224-154.224q-9.52-9.52 -7.616-23.8l0-332.248 q0-12.376 9.044-21.42
t 21.42-9.044l 609.28,0 q 12.376,0 21.42,9.044t 9.044,21.42l0,335.104 zM 685.824,350.72q-12.376,0 -21.42,9.044t-9.044,21.42l0,60.928 q0,12.376 9.044,21.42t 21.42,9.044t 21.42-9.044t 9.044-21.42l0-60.928 q0-12.376 -9.044-21.42t-21.42-9.044zM 503.040,533.504q-12.376,0 -21.42,9.044t-9.044,21.42l0,60.928 q0,12.376 9.044,21.42t 21.42,9.044t 21.42-9.044t 9.044-21.42l0-60.928 
q0-12.376 -9.044-21.42t-21.42-9.044zM 320.256,350.72q-12.376,0 -21.42,9.044t-9.044,21.42l0,60.928 q0,12.376 9.044,21.42t 21.42,9.044t 21.42-9.044t 9.044-21.42l0-60.928 q0-12.376 -9.044-21.42t-21.42-9.044z" />
<glyph unicode="&#x6e;" d="M 565.12,209.59l0-110.39 q0-22.41 -15.77-37.765t-37.765-15.355t-37.35,15.355t-15.355,37.765l0,110.39 q-88.81,13.28 -161.85,64.74t-114.955,131.14t-41.915,171.81q0,21.58 15.355,37.35t 37.765,15.77l 637.44,0 q 21.58,0 37.35-15.77t 15.77-37.35q0-92.13 -41.915-171.81t-114.955-131.555t-161.85-64.325zM 671.36,683.52l0,159.36 q0,21.58 15.355,37.35t 37.35,15.77t 37.765-15.77t 15.77-37.35l0-159.36 l-106.24,0 z
M 246.4,683.52l0,159.36 q0,21.58 15.355,37.35t 37.35,15.77t 37.765-15.77t 15.77-37.35l0-159.36 l-106.24,0 z" />
<glyph unicode="&#x74;" d="M 763.568,142.025q-61.065-63.558 -143.317-85.99t-164.503,0t-143.317,85.99t-83.083,148.718t0,169.905t 82.667,148.718l 225.984,286.636l 225.984-286.636q 60.65-63.974 82.667-148.718t0-169.905t-83.083-148.718zM 387.62,203.091q 6.647-7.478 9.555-11.217t 12.878-8.724t 21.602-4.986q 25.756,0 38.634,14.539t 12.878,33.648q0,23.263 -19.109,66.881t-38.634,93.468t-19.525,88.067
q0,23.263 19.941,61.897t 39.049,66.051l 19.941,27.417l-26.587,0 l-70.621-80.59q-62.312-77.267 -62.312-173.227t 62.312-173.227z" />
<glyph unicode="&#x75;" d="M 883.84,235.52l-79.68,0 l-132.8,0 q-21.58,0 -37.35,15.77t-15.77,37.765t 15.77,37.35t 37.35,15.355q0,53.12 -106.24,53.12l-53.12,0 q0-22.41 -15.355-37.765t-37.765-15.355l-53.12,0 q-21.58,0 -37.35,15.355t-15.77,37.765l-159.36,0 q0-22.41 -15.355-37.765t-37.35-15.355t-37.765,15.355t-15.77,37.765l0,212.48 q0,22.41 15.77,37.765t 37.765,15.355t 37.35-15.355t 15.355-37.765l 159.36,0 q0,22.41 15.77,37.765
t 37.35,15.355l0,58.1 q-21.58,7.47 -36.105,26.145t-16.185,41.915q-28.22-8.3 -60.59-14.11t-46.48-5.81q-21.58,0 -37.35,15.355t-15.77,37.765t 15.77,37.765t 37.35,15.355q 17.43,0 58.1-7.885t 68.060-19.505q 24.070,27.39 59.76,27.39t 59.76-27.39q 27.39,11.62 68.060,19.505t 58.1,7.885q 22.41,0 37.765-15.355t 15.355-37.765t-15.355-37.765t-37.765-15.355q-14.11,0 -46.48,5.81t-60.59,14.11q-1.66-23.24 -16.185-41.915
t-36.105-26.145l0-58.1 q 22.41,0 37.765-15.355t 15.355-37.765l 53.12,0 q 88.81,0 160.606-31.54t 114.956-92.546t 43.16-141.516q 22.41,0 37.765-15.355t 15.355-37.35t-15.355-37.765t-37.765-15.77zM 883.84,102.72q0-33.2 -23.24-56.44t-56.44-23.24t-56.44,23.24t-23.24,56.44q0,19.92 18.675,52.705t 38.18,56.44t 22.825,23.655q 4.98,0 24.485-23.655t 37.35-56.44t 17.845-52.705z" />
<glyph unicode="&#x47;" d="M 831.635,46.080l-638.27,0 q-21.58,0 -37.35,15.77t-15.77,37.35l0,743.68 q0,22.41 15.77,37.765t 37.35,15.355l 638.27,0 q 21.58,0 37.35-15.355t 15.77-37.765l0-743.68 q0-21.58 -15.77-37.35t-37.35-15.77zM 379.285,789.76l-106.24,0 q-10.79,0 -18.675-7.885t-7.885-18.675t 7.885-18.675t 18.675-7.885l 106.24,0 q 10.79,0 18.675,7.885t 7.885,18.675t-7.885,18.675t-18.675,7.885zM 379.285,683.52l-106.24,0 q-10.79,0 -18.675-7.885
t-7.885-18.675t 7.885-18.675t 18.675-7.885l 106.24,0 q 10.79,0 18.675,7.885t 7.885,18.675t-7.885,18.675t-18.675,7.885zM 379.285,577.28l-106.24,0 q-10.79,0 -18.675-7.885t-7.885-18.675t 7.885-18.675t 18.675-7.885l 106.24,0 q 10.79,0 18.675,7.885t 7.885,18.675t-7.885,18.675t-18.675,7.885zM 379.285,471.040l-106.24,0 q-10.79,0 -18.675-7.885t-7.885-18.675t 7.885-18.675t 18.675-7.885l 106.24,0 
q 10.79,0 18.675,7.885t 7.885,18.675t-7.885,18.675t-18.675,7.885zM 724.565,429.54l0,253.98 q0,43.99 -31.125,75.115t-75.115,31.125t-75.115-31.125t-31.125-75.115l0-253.98 q-53.12-47.31 -53.12-117.86q0-65.57 46.895-112.465t 112.88-46.895t 112.88,46.895t 46.895,112.465q0,69.72 -53.95,117.86zM 618.325,205.44q-43.99,0 -75.115,31.125t-31.125,75.115q0,29.050 14.525,53.12t 38.595,38.18l0,174.3 
l 106.24,0 l0-174.3 q 24.9-14.11 39.010-38.18t 14.11-53.12q0-43.99 -31.125-75.115t-75.115-31.125z" />
<glyph unicode="&#x45;" d="M 936.96,584.665q-80.51-51.46 -79.68-113.71q 1.66-64.74 79.68-113.71q-211.65-9.96 -113.71-197.54q-188.41,97.94 -197.54-113.71q-51.46,80.51 -113.71,79.68q-63.91-1.66 -113.71-79.68q-9.13,211.65 -197.54,113.71q 97.94,187.58 -113.71,197.54q 80.51,51.46 79.68,113.71q-1.66,63.91 -79.68,113.71q 211.65,9.13 113.71,196.71q 188.41-97.11 197.54,113.71q 49.8-77.19 113.71-78.85q 62.25-1.66 113.71,78.85q 9.13-210.82 197.54-113.71
q-97.94-187.58 113.71-196.71zM 512,736.555q-72.21,0 -133.63-35.69t-96.695-96.695t-35.275-133.215t 35.275-133.63t 96.695-96.695t 133.63-35.275t 133.63,35.275t 96.695,96.695t 35.275,133.63t-35.275,133.215t-96.695,96.695t-133.63,35.69zM 512,258.475q-87.98,0 -150.23,62.25t-62.25,150.23t 62.25,150.23t 150.23,62.25t 150.23-62.25t 62.25-150.23t-62.25-150.23t-150.23-62.25z" />
<glyph unicode="&#x78;" d="M 725.565,125.76q-80.51-79.68 -160.19-79.68q 46.48,44.82 63.080,90.885t 16.6,121.595q0,34.86 -29.465,100.845t-59.345,116.615t-29.88,48.14q-1.66-8.3 -4.565-21.58t-14.94-50.63t-26.975-69.72t-41.915-68.060t-58.515-55.61q-25.73-16.6 -27.39-55.195t 14.11-79.68t 39.84-77.605q-44.82,0 -146.080,96.28q-34.030,31.54 -50.215,71.38t-16.185,71.38q0,53.12 29.465,110.805t 79.265,101.675
q 42.33,38.18 68.475,80.51t 33.615,80.095t 6.225,74.285t-11.205,65.57t-19.92,51.46t-18.26,34.030l-8.3,12.45q 10.79-4.15 28.635-12.45t 68.89-36.52t 96.695-58.93t 99.6-79.265t 88.81-99.185q 48.14-69.72 73.455-151.476t 22.825-146.496q-1.66-33.2 -24.070-74.7t-43.16-66.815t-39.010-44.405z" />
<glyph unicode="&#x79;" d="M 671.36,46.080q 18.26,12.45 29.88,30.295t 16.185,40.255t 5.81,38.18t 1.245,40.67q0,31.54 -17.015,64.325t-43.16,58.1t-51.46,43.575t-47.725,29.88q-44.82,22.41 -75.53,56.855t-30.71,75.945q-14.11,0 -33.615-24.485t-19.505-55.195q0-14.94 16.185-32.37t 35.275-31.54t 34.86-34.030t 15.77-39.84q0-40.67 -19.090-70.965t-56.44-30.295t-58.515,31.54t-21.165,74.7q-14.94-7.47 -25.73-19.505t-16.185-23.24
t-7.885-29.465t-2.905-29.050t-0.415-31.54q0-94.62 53.12-132.8q-53.95,9.96 -93.375,29.88t-62.25,43.575t-35.69,57.27t-17.015,64.325t-4.15,70.55q0,74.7 77.605,192.146t 161.436,179.696q 4.15,4.15 23.24,18.675t 35.275,29.88t 34.445,38.595t 29.050,55.61t 10.79,69.72q 10.79,0 27.805-9.96t 34.86-26.145t 30.71-42.33t 12.865-54.365q0-26.56 -8.3-50.63t-18.26-39.010t-18.26-33.615t-8.3-36.105
q0-33.2 23.24-56.44t 56.44-23.24q 29.050,0 51.045,14.11t 28.635,39.010q 73.040-53.12 116.2-125.33t 43.16-140.27q0-38.18 -6.64-74.7t-22.41-71.795t-39.425-61.005t-60.59-41.915t-83.415-16.185z" />
<glyph unicode="&#x7a;" d="M 883.84,417.92l-53.12,0 q-22.41,0 -37.765,15.355t-15.355,37.765t 15.77,37.765t 37.35,15.355l 53.12,0 q 21.58,0 37.35-15.355t 15.77-37.35t-15.355-37.765t-37.765-15.77zM 781.75,671.9q-14.94-14.94 -35.275-14.94t-34.445,14.525t-14.11,34.86t 14.11,35.275l 34.86,34.030q 14.11,14.94 34.445,14.94t 34.86-14.525t 14.525-34.86t-14.11-34.445zM 724.48,232q0-10.79 -7.885-18.675t-18.675-7.885l-371.84,0 
q-10.79,0 -18.675,7.885t-7.885,18.675l0,239.040 q0,87.98 62.25,150.23t 150.23,62.25t 150.23-62.25t 62.25-150.23l0-239.040 zM 512.415,736.64q-21.995,0 -37.765,15.77t-15.77,37.35l0,53.12 q0,22.41 15.355,37.765t 37.765,15.355t 37.765-15.355t 15.355-37.765l0-53.12 q0-21.58 -15.355-37.35t-37.35-15.77zM 242.25,671.9l-34.030,34.86q-14.94,14.11 -14.94,34.445t 14.525,34.86t 34.86,14.525t 34.445-14.94l 34.86-34.030
q 14.11-14.94 14.11-35.275t-14.11-34.445t-34.445-14.11t-35.275,14.11zM 246.4,471.455q0-21.995 -15.355-37.765t-37.765-15.77l-53.12,0 q-21.58,0 -37.35,15.77t-15.77,37.765t 15.77,37.35t 37.35,15.355l 53.12,0 q 22.41,0 37.765-15.355t 15.355-37.35zM 140.16,152.32l 743.68,0 q 21.58,0 37.35-15.355t 15.77-37.765t-15.77-37.765t-37.35-15.355l-743.68,0 q-21.58,0 -37.35,15.355t-15.77,37.765t 15.77,37.765t 37.35,15.355
z" />
<glyph unicode="&#x41;" d="M 777.6,46.080l-531.2,0 q-21.58,0 -37.35,15.77t-15.77,37.35l0,743.68 q0,21.58 15.355,37.35t 37.765,15.77l 531.2,0 q 22.41,0 37.765-15.355t 15.355-37.765l0-743.68 q0-22.41 -15.77-37.765t-37.35-15.355zM 512,842.88q-43.99,0 -75.115-31.125t-31.125-75.115t 31.125-75.115t 75.115-31.125t 75.115,31.125t 31.125,75.115t-31.125,75.115t-75.115,31.125zM 512,524.16q-87.98,0 -150.23-62.25
t-62.25-150.23t 62.25-150.23t 150.23-62.25t 150.23,62.25t 62.25,150.23t-62.25,150.23t-150.23,62.25zM 512,205.44q-43.99,0 -75.115,31.125t-31.125,75.115t 31.125,75.115t 75.115,31.125t 75.115-31.125t 31.125-75.115t-31.125-75.115t-75.115-31.125zM 512,683.52q-21.58,0 -37.35,15.355t-15.77,37.35t 15.77,37.765t 37.765,15.77t 37.35-15.77t 15.355-37.765t-15.77-37.35t-37.35-15.355z" />
<glyph unicode="&#x42;" d="M 830.72,46.080l-637.44,0 q-43.99,0 -75.115,31.125t-31.125,75.115l0,371.84 q0,43.99 31.125,75.115t 75.115,31.125l 288.84,0 l-162.68,163.51q-9.96-4.15 -19.92-4.15q-21.58,0 -37.35,15.77t-15.77,37.765t 15.77,37.35t 37.765,15.355t 37.35-15.355t 15.355-37.765q0-9.96 -4.15-19.92l 163.51-162.68l 163.51,162.68q-4.15,9.96 -4.15,19.92q0,22.41 15.77,37.765t 37.765,15.355t 37.35-15.355t 15.355-37.35t-15.355-37.765
t-37.765-15.77q-9.96,0 -19.92,4.15l-162.68-163.51l 288.84,0 q 43.99,0 75.115-31.125t 31.125-75.115l0-371.84 q0-43.99 -31.125-75.115t-75.115-31.125zM 671.36,380.57q0,136.95 -53.12,143.59l-424.96,0 q-15.77-2.49 -26.56-14.11t-15.77-24.485t-7.885-34.030t-2.905-32.37l0-30.295 l0-8.3 l0-84.66 q0-19.92 1.66-39.425t 6.64-43.99t 16.185-41.085t 28.635-19.090l 424.96,0 q 12.45,1.66 22.41,9.545t 15.355,22.41
t 8.715,26.975t 4.565,31.54t 1.66,28.22t 0.415,24.9l0,84.66 zM 857.28,524.16l-106.24,0 q-10.79,0 -18.675-7.885t-7.885-18.675t 7.885-18.675t 18.675-7.885l 106.24,0 q 10.79,0 18.675,7.885t 7.885,18.675t-7.885,18.675t-18.675,7.885zM 857.28,417.92l-106.24,0 q-10.79,0 -18.675-7.885t-7.885-18.675t 7.885-18.675t 18.675-7.885l 106.24,0 q 10.79,0 18.675,7.885t 7.885,18.675t-7.885,18.675t-18.675,7.885z
M 857.28,311.68l-106.24,0 q-10.79,0 -18.675-7.885t-7.885-18.675t 7.885-18.675t 18.675-7.885l 106.24,0 q 10.79,0 18.675,7.885t 7.885,18.675t-7.885,18.675t-18.675,7.885zM 857.28,205.44l-106.24,0 q-10.79,0 -18.675-7.885t-7.885-18.675t 7.885-18.675t 18.675-7.885l 106.24,0 q 10.79,0 18.675,7.885t 7.885,18.675t-7.885,18.675t-18.675,7.885z" />
<glyph unicode="&#x43;" d="M 939.84,143.84l-61.12,0 l0-30.56 q0-12.415 -9.073-21.488t-21.488-9.073t-21.488,9.073t-9.073,21.488l0,30.56 l-611.2,0 l0-30.56 q0-12.415 -9.073-21.488t-21.488-9.073t-21.488,9.073t-9.073,21.488l0,30.56 l-61.12,0 q-24.83,0 -42.975,18.145t-18.145,42.975l0,611.2 q0,24.83 18.145,42.975t 42.975,18.145l 855.68,0 q 25.785,0 43.453-17.668t 17.668-43.453l0-611.2 q0-25.785 -17.668-43.453t-43.453-17.668zM 848.16,388.32
q 12.415,0 21.488,9.073t 9.073,21.488t-9.073,21.488t-21.488,9.073t-21.488-9.073t-9.073-21.488t 9.073-21.488t 21.488-9.073zM 787.040,327.2q 12.415,0 21.488,9.073t 9.073,21.488t-9.073,21.488t-21.488,9.073t-21.488-9.073t-9.073-21.488t 9.073-21.488t 21.488-9.073zM 787.040,449.44q 12.415,0 21.488,9.073t 9.073,21.488t-9.073,21.488t-21.488,9.073t-21.488-9.073t-9.073-21.488
t 9.073-21.488t 21.488-9.073zM 695.36,693.92q0,25.785 -17.668,43.453t-43.453,17.668l-488.96,0 q-24.83,0 -42.975-17.668t-18.145-43.453l0-366.72 q0-24.83 18.145-42.975t 42.975-18.145l 488.96,0 q 25.785,0 43.453,18.145t 17.668,42.975l0,366.72 zM 939.84,724.48q0,12.415 -9.073,21.488t-21.488,9.073l-122.24,0 q-12.415,0 -21.488-9.073t-9.073-21.488l0-61.12 q0-12.415 9.073-21.488t 21.488-9.073l 122.24,0 
q 12.415,0 21.488,9.073t 9.073,21.488l0,61.12 zM 909.28,510.56q-12.415,0 -21.488-9.073t-9.073-21.488t 9.073-21.488t 21.488-9.073t 21.488,9.073t 9.073,21.488t-9.073,21.488t-21.488,9.073zM 909.28,388.32q-12.415,0 -21.488-9.073t-9.073-21.488t 9.073-21.488t 21.488-9.073t 21.488,9.073t 9.073,21.488t-9.073,21.488t-21.488,9.073z" />
<glyph unicode="&#x44;" d="M 893.782,690.42l-0.831,0 l-58.977,98.849l-105.495-14.121l 66.453-99.679l-176.1-27.412l-67.283,99.679l-96.356-14.952l 67.283-99.679l-182.746-29.073l-63.961,105.495l-101.34-19.937l 67.283-100.51l-78.912-12.459l 86.39,0 l-53.162-105.495l 106.324,0 l 53.162,105.495l 159.486,0 l-53.162-105.495l 106.324,0 l 53.162,105.495l 159.486,0 l-53.162-105.495l 106.324,0 l 53.162,105.495q 21.598,0 37.38-15.367t 15.782-36.964l0-425.299 q0-22.428 -15.782-37.796t-37.38-15.367l-743.441,0 
q-22.428,0 -37.796,15.367t-15.367,37.796l0,425.299 q0,21.598 15.367,36.964t 37.796,15.367q-4.152,1.661 -9.968,4.568t-17.029,14.537t-13.706,25.75l-13.291,103.001q-2.492,20.766 11.214,37.796t 35.303,19.521l 732.643,113.801q 21.598,2.492 38.626-10.798t 19.521-34.057l 13.291-103.001q 2.492-20.766 -11.214-37.796t-35.303-19.521zM 222.608,152.15l 584.785,0 q 10.798,0 18.69,7.891t 7.891,18.69t-7.891,18.69t-18.69,7.891l-584.785,0 
q-10.798,0 -18.69-7.891t-7.891-18.69t 7.891-18.69t 18.69-7.891zM 222.608,311.638l 584.785,0 q 10.798,0 18.69,7.475t 7.891,18.69t-7.891,19.105t-18.69,7.891l-584.785,0 q-10.798,0 -18.69-7.891t-7.891-19.105t 7.891-18.69t 18.69-7.475z" />
<glyph unicode="&#x77;" d="M 881.35,129.91q-31.54-31.54 -69.72-57.685t-60.59-26.145q 29.88,47.31 31.54,117.445t-31.54,95.035q-26.56,17.43 -44.405,46.48t-24.485,58.515t-9.545,56.025t-2.075,43.16l 0.83,17.43q-4.98-6.64 -14.11-17.015t-31.955-41.5t-40.255-59.76t-31.955-65.155t-14.525-64.74q0-61.42 18.675-102.090t 61.005-83.83q-39.010,0 -81.755,15.77t-71.795,46.48q-17.43,18.26 -37.35,74.7t-21.58,102.090
q-2.49,55.61 18.675,124.085t 61.005,129.895q 29.88,43.99 70.55,86.32t 78.020,70.55t 70.55,50.63t 53.12,32.37l 19.92,10.79q-2.49-3.32 -5.81-10.375t-10.79-28.635t-11.205-43.99t-2.905-55.61t 9.96-65.155t 31.955-70.55t 57.685-74.285q 41.5-41.5 65.985-90.885t 24.485-95.035q0-28.22 -13.695-62.665t-41.915-62.665zM 512,736.64l0,106.24 q0,21.58 15.77,37.35t 37.35,15.77l 212.48,0 q 17.43,0 32.37-11.62
q-135.29-76.36 -263.11-197.54q-15.77,5.81 -25.315,19.505t-9.545,30.295zM 360.94,388.87q-8.3,13.28 -8.3,29.050l0,159.36 q0,21.58 15.77,37.35t 37.35,15.77l 84.66,0 q-32.37-34.030 -58.1-64.74q-50.63-61.42 -71.38-176.79zM 405.76,683.52l-265.6,0 q-21.58,0 -37.35,15.355t-15.77,37.765l0,106.24 q0,21.58 15.77,37.35t 37.35,15.77l 265.6,0 q 22.41,0 37.765-15.77t 15.355-37.35l0-106.24 q0-22.41 -15.355-37.765t-37.765-15.355z
M 140.16,630.4l 106.24,0 q 22.41,0 37.765-15.77t 15.355-37.35l0-159.36 q0-22.41 -15.355-37.765t-37.765-15.355l-106.24,0 q-21.58,0 -37.35,15.355t-15.77,37.765l0,159.36 q0,21.58 15.77,37.35t 37.35,15.77zM 140.16,311.68l 212.48,0 q-0.83-19.090 0-33.2q 1.66-46.48 21.995-112.88t 36.935-83.83q 10.79-11.62 25.73-24.9q-14.11-10.79 -31.54-10.79l-265.6,0 q-21.58,0 -37.35,15.355t-15.77,37.765l0,159.36 q0,21.58 15.77,37.35t 37.35,15.77z
" />
<glyph unicode="&#x46;" d="M 512,46.080q-86.32,0 -165.17,33.615t-135.706,90.47t-90.47,135.706t-33.615,165.17t 33.615,165.17t 90.47,135.706t 135.706,90.47t 165.17,33.615t 165.17-33.615t 135.706-90.47t 90.47-135.706t 33.615-165.17t-33.615-165.17t-90.47-135.706t-135.706-90.47t-165.17-33.615zM 512,842.88q-75.53,0 -144.42-29.465t-118.69-79.265t-79.265-118.69t-29.465-144.42t 29.465-144.42
t 79.265-118.69t 118.69-79.265t 144.42-29.465l0,743.68 z" />
<glyph unicode="&#x76;" d="M 367.663,34.382 C 309.459,155.492 340.456,224.888 385.189,290.273 C 434.177,361.874 446.803,432.755 446.803,432.755 C 446.803,432.755 485.311,382.693 469.908,304.395 C 537.94,380.128 550.779,500.79 540.509,547 C 694.289,439.531 760.011,206.836 671.44,34.382 C 1142.53,300.923 788.619,699.75 727.006,744.677 C 747.545,699.752 751.438,623.7 709.949,586.792 C 639.715,853.117 466.058,907.698 466.058,907.698 C 486.596,770.353 391.607,620.166 300.012,507.942 C 296.793,562.709 293.375,600.502 264.575,652.911 C 258.111,553.421 182.078,472.321 161.489,372.64 C 133.598,237.646 182.379,138.805 367.663,34.382 Z" />
<glyph unicode="&#x48;" d="M 193.28,152.32 L 936.96,152.32 L 936.96,46.080 L 87.040,46.080 L 87.040,896 L 193.28,896 ZM 326.080,205.44 C 282.073,205.44 246.4,241.113 246.4,285.12 C 246.4,329.127 282.073,364.8 326.080,364.8 C 328.427,364.8 330.746,364.677 333.042,364.479 L 418.691,507.228 C 410.524,519.736 405.76,534.669 405.76,550.722 C 405.76,594.728 441.433,630.402 485.44,630.402 C 529.447,630.402 565.12,594.728 565.12,550.722 C 565.12,534.668 560.356,519.736 552.189,507.228 L 637.838,364.479 C 640.134,364.677 642.453,364.8 644.8,364.8 C 646.573,364.8 648.326,364.723 650.070,364.61 L 791.467,612.050 C 782.722,624.839 777.6,640.3 777.6,656.962 C 777.6,700.968 813.273,736.642 857.28,736.642 C 901.287,736.642 936.96,700.968 936.96,656.962 C 936.96,612.955 901.287,577.282 857.28,577.282 C 855.504,577.282 853.754,577.36 852.010,577.475 L 710.613,330.031 C 719.358,317.244 724.48,301.782 724.48,285.12 C 724.48,241.113 688.807,205.44 644.8,205.44 C 600.793,205.44 565.12,241.113 565.12,285.12 C 565.12,301.172 569.884,316.106 578.050,328.614 L 492.402,471.361 C 490.106,471.163 487.787,471.040 485.44,471.040 C 483.093,471.040 480.774,471.162 478.478,471.361 L 392.829,328.612 C 400.996,316.106 405.76,301.172 405.76,285.12 C 405.76,241.113 370.087,205.44 326.080,205.44 Z" />
<glyph unicode="&#x49;" d="M 435.2,691.712l-148.48-418.816l-129.024,197.632l-82.944-77.824l-22.528-20.48l-47.104,39.936l 165.888,154.624l 98.304-150.528l 175.104,494.592l 160.768-619.52l 134.144,422.912l 118.784-379.904l-62.464-16.384l-56.32,182.272l-140.288-441.344z" horiz-adv-x="881.664" />
<glyph unicode="&#x4a;" d="M 468.992,909.824q 177.152,0 302.080-125.44t 124.928-302.592q0-106.496 -47.104-195.584q-60.416-117.76 -176.128-180.224q-96.256-52.224 -203.776-52.224q-103.424,0 -198.656,49.152q-116.736,61.44 -179.2,177.152q-50.176,95.232 -50.176,201.728q0,177.152 125.44,302.592t 302.592,125.44zM 778.24,399.872q 11.264,41.984 11.264,81.92q0,133.12 -94.208,227.328t-226.304,94.208q-133.12,0 -227.328-94.208t-94.208-227.328q0-39.936 12.288-87.040 q 3.072-9.216 9.216-25.6q 21.504,6.144 46.080,6.144q 66.56,0 114.176-47.104t 47.616-113.664q0-17.408 -5.12-37.888q 4.096-2.048 12.288-4.096q 43.008-11.264 84.992-11.264q 46.080,0 89.088,12.288q 2.048,0 5.632,2.048t 5.632,2.048q-5.12,22.528 -5.12,40.96q0,65.536 47.616,113.152t 113.152,47.616q 23.552,0 45.056-6.144q 5.12,15.36 8.192,26.624zM 509.952,532.992q 25.6-19.456 25.6-51.2q0-14.336 -5.12-24.576q-16.384-39.936 -59.392-39.936q-11.264,0 -24.576,5.12q-39.936,16.384 -39.936,59.392 q0,1.024 0.512,4.096t 0.512,5.12l-57.344,250.88l 21.504,9.216zM 489.472,770.56l0-97.28 l-39.936,0 l0,97.28 l 39.936,0 zM 647.168,693.76l 27.648-27.648l-69.632-69.632l-27.648,28.672zM 644.096,499.2l0,38.912 l 98.304,0 l0-38.912 l-98.304,0 zM 196.608,499.2l0,38.912 l 97.28,0 l0-38.912 l-97.28,0 zM 249.856,666.112l 28.672,27.648l 68.608-68.608l-27.648-28.672z" horiz-adv-x="936.96" />
<glyph unicode="&#x4b;" d="M 512,46.080q-86.32,0 -165.17,33.615t-135.706,90.47t-90.47,135.706t-33.615,165.17t 33.615,165.17t 90.47,135.706t 135.706,90.47t 165.17,33.615t 165.17-33.615t 135.706-90.47t 90.47-135.706t 33.615-165.17t-33.615-165.17t-90.47-135.706t-135.706-90.47t-165.17-33.615zM 512,152.32q 21.58,0 37.35,15.355t 15.77,37.35t-15.77,37.765t-37.35,15.77t-37.35-15.77t-15.77-37.765t 15.77-37.35
t 37.35-15.355zM 736.1,526.65q-9.96-4.98 -20.75,0t-15.355,16.185t0,22.825t 15.355,15.77l 78.85,35.69q-46.48,90.47 -136.12,136.95l-35.69-79.68q-4.15-10.79 -15.77-15.355t-22.825,0t-16.185,15.355t0,21.58l 35.69,80.51q-44.82,13.28 -91.3,13.28t-91.3-13.28l 35.69-80.51q 4.98-10.79 0-21.58t-16.185-15.355t-22.825,0t-15.77,15.355l-35.69,79.68q-88.81-45.65 -136.12-136.95l 78.85-34.86
q 9.96-4.98 14.525-16.185t0-22.825t-14.94-16.185t-21.165,0.415l-80.51,34.86q-13.28-44.82 -13.28-91.3t 13.28-91.3l 80.51,34.86q 10.79,4.98 21.165,0.415t 14.94-16.185t0-22.825t-14.525-16.185l-79.68-34.86q 18.26-35.69 46.48-66.4q 79.68,44.82 199.2,51.46l 161.020,263.11q 7.47,1.66 14.11,4.15q 5.81,0.83 11.205-2.075t 6.225-8.715l 4.15-13.28l-92.13-245.68q 100.43-10.79 169.32-48.97q 28.22,30.71 46.48,66.4l-79.68,35.69
q-10.79,4.15 -15.355,15.77t0,22.825t 15.355,16.185t 21.58,0l 80.51-35.69q 13.28,44.82 13.28,91.3t-13.28,91.3z" />
<glyph unicode="&#x4d;" d="M 702.464,477.696l0-387.072 l-181.248,0 l0,240.64 l-155.648,0 l0-240.64 l-187.392,0 l0,387.072 l-156.672,0 l 421.888,420.864l 420.864-420.864l-161.792,0 z" horiz-adv-x="885.76" />
<glyph unicode="&#x26;" d="M 476.16,606.72l 256,0 l0-202.752 l-256,0 l0-256 l-202.752,0 l0,256 l-256,0 l0,202.752 l 256,0 l0,256 l 202.752,0 l0-256 z" horiz-adv-x="749.568" />
<glyph unicode="&#x2e;" d="M 150.528,593.408q 37.888,0 65.536-27.648t 27.648-65.536q0-38.912 -27.136-66.56t-66.048-27.648t-66.56,27.648t-27.648,66.56t 27.648,66.048t 66.56,27.136zM 483.328,593.408q 38.912,0 66.56-27.136t 27.648-66.048t-27.648-66.56t-66.56-27.648t-66.048,27.648t-27.136,66.56q0,37.888 27.136,65.536t 66.048,27.648zM 817.152,593.408q 38.912,0 66.56-27.136t 27.648-66.048t-27.648-66.56t-66.56-27.648t-66.56,27.648t-27.648,66.56q0,37.888 27.648,65.536t 66.56,27.648z " horiz-adv-x="967.68" />
<glyph unicode="&#x31;" d="M 704.512,432.64l 29.696,0 l0-30.72 q0-146.432 -102.912-249.344t-249.344-102.912t-249.856,103.424t-103.424,248.832q0,146.432 103.424,249.856t 249.856,103.424q 16.384,0 25.6-1.024l0,80.896 l0,72.704 l 50.176-51.2l 160.768-160.768l 21.504-21.504l-21.504-20.48l-160.768-160.768l-50.176-51.2l0,71.68 l0,90.112 q-18.432,2.048 -25.6,2.048q-84.992,0 -144.384-59.392t-59.392-144.384q0-83.968 59.904-143.36t 143.872-59.392t 143.36,59.392t 59.392,143.36l0,30.72 l 30.72,0 l 89.088,0 z " horiz-adv-x="760.832" />
<glyph unicode="&#x30;" d="M 658.432,356.864l 39.936-40.96l 28.672-27.648q-48.128-61.44 -119.296-96.768t-152.064-35.328q-143.36,0 -244.224,100.352t-101.888,243.712l-11.264,0 l-2.048,0 l-68.608,0 l 129.024,129.024l 130.048-129.024l-52.224,0 l-28.672,0 q0-102.4 73.216-175.104t 176.64-72.704q 61.44,0 115.2,28.16t 87.552,76.288zM 829.44,500.224l 53.248,0 l-130.048-129.024l-129.024,129.024l 51.2,0 l 30.72,0 l0,2.048 q0,103.424 -73.216,176.64t-176.64,73.216 q-62.464,0 -116.224-29.184t-88.576-78.336l-39.936,39.936l-28.672,28.672q 48.128,62.464 119.296,98.304t 154.112,35.84q 142.336,0 243.712-101.376t 101.376-243.712l0-2.048 l 28.672,0 z" horiz-adv-x="910.336" />
<glyph unicode="&#x23;" d="M 721.92,685.568q 9.216-14.336 -8.192-14.336l-49.152,0 l0-580.608 q0-7.168 -5.12-12.288t-12.288-5.12l-525.312,0 q-7.168,0 -12.288,5.12t-5.12,12.288l0,580.608 l-53.248,0 q-7.168,0 -9.728,4.096t 1.536,10.24l 31.744,47.104q 9.216,14.336 27.648,14.336l 76.8,0 l0,67.584 q0,20.48 12.288,30.72l 49.152,50.176q 12.288,12.288 30.72,12.288l 221.184,0 q 18.432,0 30.72-12.288l 53.248-53.248q 13.312-13.312 13.312-30.72l0-64.512 l 72.704,0 q 18.432,0 27.648-14.336zM 253.952,751.104l0-4.096 l 260.096,0 l0,4.096 l0,28.672 q0,20.48 -12.288,30.72l-9.216,10.24 q-12.288,12.288 -30.72,12.288l-158.72,0 q-18.432,0 -30.72-12.288l-6.144-6.144q-12.288-12.288 -12.288-30.72l0-32.768 zM 589.824,652.8q0,16.384 -16.384,18.432l-285.696,0 l-91.136,0 q-7.168,0 -12.288-5.632t-5.12-12.8l0-487.424 q0-7.168 5.12-12.288t 12.288-5.12l 375.808,0 q 7.168,0 12.288,5.12t 5.12,12.288l0,487.424 zM 269.312,620.032q 7.168,0 12.8-5.12t 5.632-12.288l0-388.096 q0-7.168 -5.632-12.288t-12.8-5.12l-21.504,0 q-7.168,0 -12.8,5.12t-5.632,12.288l0,388.096 q0,7.168 5.632,12.288 t 12.8,5.12l 21.504,0 zM 372.736,197.12q-7.168,0 -12.8,5.12t-5.632,12.288l0,388.096 q0,7.168 5.632,12.288t 12.8,5.12l 21.504,0 q 7.168,0 12.288-5.12t 5.12-12.288l0-388.096 q0-7.168 -5.12-12.288t-12.288-5.12l-21.504,0 zM 496.64,197.12q-7.168,0 -12.288,5.12t-5.12,12.288l0,388.096 q0,7.168 5.12,12.288t 12.288,5.12l 22.528,0 q 7.168,0 12.288-5.12t 5.12-12.288l0-388.096 q0-7.168 -5.12-12.288t-12.288-5.12l-22.528,0 z" horiz-adv-x="765.952" />
<glyph unicode="&#x40;" d="M 264.192,911.872q 94.208,0 161.28-67.584t 67.072-160.768q0-109.568 -207.872-559.104l-24.576-51.2l-64.512,138.24t-103.424,250.368t-64.512,221.696q0,94.208 67.072,161.28t 161.28,67.072l 4.096,0 l 4.096,0 zM 260.096,598.528q 43.008,0 73.728,30.72t 30.72,74.752q0,43.008 -30.72,73.728t-73.728,30.72q-44.032,0 -74.752-30.72t-30.72-73.728q0-44.032 30.72-74.752t 74.752-30.72z" horiz-adv-x="520.192" />
<glyph unicode="&#x3d;" d="M 778.24,349.696q 47.104-20.48 74.24-45.568t 30.208-39.424l 3.072-14.336l0-88.064 l-856.064,0 l0,88.064 q0,2.048 0.512,6.144t 6.144,15.36t 15.872,22.528t 32.256,26.624t 51.712,28.672q 12.288,5.12 55.296,29.696t 89.088,44.032t 96.256,28.672q-33.792,34.816 -73.728,137.216q-11.264,28.672 -11.264,102.4q0,7.168 -1.024,31.744t-0.512,42.496t 3.584,30.208q 31.744,113.664 162.816,113.664q 130.048,0 161.792-113.664q 4.096-12.288 4.608-30.208t-1.024-41.984t-1.536-32.256 q0-73.728 -10.24-102.4q-38.912-98.304 -73.728-137.216q 51.2-8.192 96.768-27.648t 89.088-44.544t 55.808-30.208z" horiz-adv-x="915.456" />
<glyph unicode="&#x29;" d="M 471.040,907.776q 178.176,0 304.128-125.952t 125.952-304.128t-125.952-304.128t-304.128-125.952q-177.152,0 -303.616,125.952t-126.464,304.128t 126.464,304.128t 303.616,125.952zM 526.336,774.656q-31.744-1.024 -50.176-22.528t-18.432-46.080q0-25.6 13.824-41.472t 37.376-15.872l 1.024,0 q 29.696,0 49.664,20.992t 19.968,49.664q0,23.552 -13.312,37.888q-15.36,17.408 -39.936,17.408zM 578.56,292.352l 3.072,3.072l-2.048,4.096l-18.432,38.912l-5.12-4.096 q-14.336-14.336 -35.328-28.672t-25.088-15.36l0,5.12 q0,7.168 3.072,20.48l 47.104,192.512q 6.144,25.6 6.144,58.368q0,18.432 -6.144,30.72q-7.168,12.288 -22.528,12.288q-25.6,0 -73.216-29.184t-93.696-72.192l-3.072-3.072l 16.384-46.080l 6.144,4.096q 35.84,31.744 56.32,39.936q0-6.144 -3.072-21.504l-44.032-186.368q-6.144-30.72 -6.144-61.44q0-25.6 10.24-36.864q 9.216-10.24 26.624-10.24q 23.552,0 72.192,29.696t 90.624,75.776z" horiz-adv-x="942.080" />
<glyph unicode="&#x7c;" d="M 471.040,907.776q 177.152,0 303.104-125.952t 125.952-303.104q0-178.176 -125.952-304.128t-303.104-125.952q-178.176,0 -304.128,125.952t-125.952,304.128q0,177.152 125.952,303.104t 304.128,125.952zM 471.040,156.16q 133.12,0 227.328,94.72t 94.208,227.84t-94.208,227.328t-227.328,94.208t-227.84-94.208t-94.72-227.328t 94.72-227.84t 227.84-94.72zM 678.912,382.464q 14.336-10.24 5.12-24.576l-24.576-39.936q-5.12-6.144 -11.264-8.192l-4.096,0  q-5.12,0 -10.24,3.072l-197.632,132.096q-1.024,1.024 -2.56,2.048t-2.56,1.024q-5.12,7.168 -5.12,13.312l0,233.472 q0,7.168 5.12,12.288q 7.168,5.12 13.312,5.12l 47.104,0 q 7.168,0 12.288-5.12t 5.12-12.288l0-197.632 z" horiz-adv-x="941.056" />
<glyph unicode="&#x4e;" d="M 512,824.96C 295.504,824.96, 120,649.456, 120,432.96s 175.504-392, 392-392s 392,175.504, 392,392S 728.496,824.96, 512,824.96z M 512,117.96
	c-173.971,0-315,141.031-315,315c0,173.971, 141.029,315, 315,315c 173.969,0, 315-141.029, 315-315C 827,258.991, 685.969,117.96, 512,117.96z
	 M 881.936,685.683C 895.973,710.228, 904,738.657, 904,768.96c0,92.785-75.215,168-168,168c-54.091,0-102.202-25.569-132.93-65.272
	C 718.469,847.857, 817.625,779.64, 881.936,685.683z M 420.93,871.688C 390.203,911.391, 342.091,936.96, 288,936.96C 195.215,936.96, 120,861.745, 120,768.96
	c0-30.303, 8.027-58.732, 22.064-83.277C 206.376,779.64, 305.533,847.857, 420.93,871.688z M 456,656.96l 56,0 l0-280 l-56,0 L 456,656.96 z M 512,432.96l 168,0 l0-56 l-168,0 
	L 512,432.96 z" />
<glyph unicode="&#x4f;" d="M 512,46.080q-86.32,0 -165.17,33.615t-135.706,90.47t-90.47,135.706t-33.615,165.17t 33.615,165.17t 90.47,135.706t 135.706,90.47t 165.17,33.615t 165.17-33.615t 135.706-90.47t 90.47-135.706t 33.615-165.17t-33.615-165.17t-90.47-135.706t-135.706-90.47t-165.17-33.615zM 736.1,526.65q-9.96-4.98 -20.75,0t-15.355,16.185t0,22.825t 15.355,15.77l 78.85,35.69
q-47.31,90.47 -136.12,136.95l-35.69-79.68q-4.15-10.79 -15.77-15.355t-22.825,0t-16.185,15.355t0,21.58l 35.69,80.51q-44.82,13.28 -91.3,13.28t-91.3-13.28l 35.69-80.51q 4.98-10.79 0-21.58t-16.185-15.355t-22.825,0t-15.77,15.355l-35.69,79.68q-88.81-45.65 -136.12-136.95l 78.85-34.86q 9.96-4.98 14.525-16.185t0-22.825t-14.94-16.185t-21.165,0.415l-80.51,34.86q-13.28-44.82 -13.28-91.3t 13.28-91.3
l 80.51,34.86q 10.79,4.98 21.165,0.415t 14.94-16.185t0-22.825t-14.525-16.185l-78.85-34.86q 47.31-90.47 136.12-136.95l 34.86,79.68q 4.98,9.96 16.185,14.525t 22.825,0t 16.185-14.94t-0.415-21.165l-34.86-80.51q 44.82-13.28 91.3-13.28t 91.3,13.28l-34.86,80.51q-4.98,10.79 -0.415,21.165t 16.185,14.94t 22.825,0t 16.185-14.525l 34.86-79.68q 89.64,46.48 136.12,136.95l-78.85,35.69q-10.79,4.15 -15.355,15.77t0,22.825
t 15.355,16.185t 20.75,0l 81.34-35.69q 13.28,44.82 13.28,91.3t-13.28,91.3zM 512,417.92q-22.41,0 -37.765,15.355t-15.355,37.765q0,17.43 10.375,31.54t 26.975,19.090l 201.69,161.85l 13.28,0 q 5.81,0 9.545-3.735t 3.735-9.545l0-13.28 l-161.85-201.69q-4.98-16.6 -19.090-26.975t-31.54-10.375z" />
<glyph unicode="&#x50;" d="M 664.986,300.032c0-28.047 -22.948-50.995 -50.995-50.995c-13.599,0 -26.348,5.1 -35.697,15.299l-101.99,101.99c-14.449,14.449 -15.299,33.997 -15.299,52.695l0,271.974 c0,28.047 22.948,50.995 50.995,50.995s 50.995-22.948 50.995-50.995l0-267.725 l 86.692-87.542c 10.199-9.349 15.299-22.098 15.299-35.697zM 837.519,470.016c0,179.333 -146.186,325.519 -325.519,325.519c-68.844,0 -136.837-22.098 -192.082-62.894l 1.7-1.7c-26.348-19.548 -50.995-44.196 -70.543-70.543l-1.7,1.7
c-40.796-55.245 -62.894-123.238 -62.894-192.082c0-179.333 146.186-325.519 325.519-325.519c 68.844,0 136.837,22.098 192.082,62.894l-1.7,1.7c 26.348,19.548 50.995,44.196 70.543,70.543l 1.7-1.7c 40.796,55.245 62.894,123.238 62.894,192.082zM 936.96,470.016c0-234.578 -190.382-424.96 -424.96-424.96s-424.96,190.382 -424.96,424.96s 190.382,424.96 424.96,424.96s 424.96-190.382 424.96-424.96z" />
<glyph unicode="&#x51;" d="M 920.36,630.4l-14.94,0 q-32.37,79.68 -93.375,140.685t-140.685,92.545l0,15.77 q 12.45,16.6 53.12,16.6q 87.98,0 150.23-62.25t 62.25-150.23q0-40.67 -16.6-53.12zM 883.84,417.92q0-127.82 -78.85-229.080l 78.85-108.73l-34.030-34.030l-108.73,78.85q-101.26-78.85 -229.080-78.85t-229.080,78.85l-108.73-78.85l-34.030,34.030l 78.85,108.73q-78.85,101.26 -78.85,229.080q0,75.53 29.465,144.42t 79.265,118.69t 118.69,79.265
t 144.42,29.465t 144.42-29.465t 118.69-79.265t 79.265-118.69t 29.465-144.42zM 512,683.52q-72.21,0 -133.215-35.69t-96.695-96.695t-35.69-133.215t 35.69-133.215t 96.695-96.695t 133.215-35.69t 133.215,35.69t 96.695,96.695t 35.69,133.215t-35.69,133.215t-96.695,96.695t-133.215,35.69zM 644.8,524.16l-81.34-118.69q-4.15-17.43 -18.675-29.050t-32.785-11.62t-32.37,10.79
t-18.26,28.22l-108.73,146.91l0,26.56 l 26.56,0 l 133.63-98.77l 105.41,72.21l0,0 l 26.56,0 l0-26.56 l0,0 zM 118.58,630.4l-14.94,0 q-16.6,12.45 -16.6,53.12q0,87.98 62.25,150.23t 150.23,62.25q 40.67,0 53.12-16.6l0-15.77 q-79.68-32.37 -140.685-92.96t-93.375-140.27z" />
<glyph unicode="&#x52;" d="M 830.72,46.080l-637.44,0 q-21.58,0 -37.35,15.355t-15.77,37.765l0,371.84 q0,22.41 15.77,37.765t 37.35,15.355l 53.12,0 l0,106.24 q0,72.21 35.69,133.215t 96.695,96.695t 133.215,35.69t 133.215-35.69t 96.695-96.695t 35.69-133.215l0-106.24 l 53.12,0 q 22.41,0 37.765-15.355t 15.355-37.765l0-371.84 q0-22.41 -15.355-37.765t-37.765-15.355zM 405.76,99.2l 212.48,0 l-67.23,166.83q 29.88,12.45 48.555,39.010t 18.675,59.76
q0,43.99 -31.125,75.115t-75.115,31.125t-75.115-31.125t-31.125-75.115q0-33.2 18.675-59.76t 48.555-39.010zM 671.36,630.4q0,66.4 -46.48,112.88t-112.465,46.48t-112.88-46.48t-46.895-112.88l0-106.24 l 318.72,0 l0,106.24 z" />
<glyph unicode="&#x53;" d="M 563.2,559.616l 78.848,0 l0-447.488 l-595.968,0 l0,447.488 l 76.8,0 l0,131.072 q0,89.088 63.488,152.576t 152.576,63.488l 4.096,0 l 4.096,0 q 90.112,0 153.088-63.488t 62.976-152.576l0-131.072 zM 411.648,194.048l-32.768,144.384q 32.768,20.48 32.768,58.368q0,28.672 -19.456,48.128t-48.128,19.456q-27.648,0 -47.616-19.456t-19.968-48.128q0-38.912 33.792-57.344l-33.792-145.408l 135.168,0 zM 455.68,559.616l0,131.072 q0,44.032 -31.744,75.776t-76.8,31.744l-3.072,0 l-5.12,0 q-44.032,0 -75.776-31.744t-31.744-75.776l0-131.072  l 224.256,0 z" horiz-adv-x="687.104" />
<glyph unicode="&#x54;" d="M 512,55.040c-159.567,0-288.905,129.369-288.905,288.905c0,103.702, 54.8,194.356, 136.85,245.326L 359.945,769.699 C 359.945,862.088, 434.847,936.96, 527.205,936.96S 694.466,862.088, 694.466,769.699l0-201.838 
	c 64.928-52.976, 106.439-133.566, 106.439-223.916C 800.905,184.409, 671.567,55.040, 512,55.040z M 633.644,769.699C 633.644,828.484, 586.021,876.138, 527.205,876.138C 468.421,876.138, 420.766,828.484, 420.766,769.699l0-151.782 
	C 449.475,627.467, 480.068,632.85, 512,632.85c 43.548,0, 84.633-9.884, 121.644-27.127L 633.644,769.699 z M 512,587.234c-134.356,0-243.289-108.933-243.289-243.289s 108.933-243.289, 243.289-243.289s 243.289,108.933, 243.289,243.289
	S 646.356,587.234, 512,587.234z M 512,115.862c-125.993,0-228.083,102.090-228.083,228.083S 386.007,572.028, 512,572.028c 125.993,0, 228.083-102.090, 228.083-228.083S 637.993,115.862, 512,115.862z M 557.616,404.766
	c0,25.18-20.436,45.616-45.616,45.616s-45.616-20.436-45.616-45.616c0-21.622, 15.327-38.835, 35.49-43.61L 466.384,222.301l 93.119,0 l-39.96,138.401
	C 540.982,364.381, 557.616,382.263, 557.616,404.766z" />
<glyph unicode="&#x55;" d="M 542.72,551.424l 325.632-325.632l0-172.032 l0,0 l-172.032,0 l-1.024,0 l0,132.096 l-131.072,0 l0,131.072 l-131.072,0 l-62.464,62.464q-40.96-14.336 -84.992-14.336q-111.616,0 -191.488,79.36t-79.872,192t 79.872,192t 191.488,79.36t 191.488-79.36t 79.872-192q0-44.032 -14.336-84.992zM 229.376,603.648q 37.888,0 64.512,26.624t 26.624,64.512t-26.624,64.512t-64.512,26.624t-65.024-26.624t-27.136-64.512t 27.136-64.512t 65.024-26.624z" horiz-adv-x="889.856" />
<glyph unicode="&#x56;" d="M 863.232,559.616q 9.216-1.024 15.872-9.216t 6.656-17.408l0-99.328 q0-9.216 -6.656-17.408t-15.872-9.216l-126.976-23.552q-9.216-2.048 -12.288-8.192t 2.048-14.336l 73.728-108.544q 12.288-19.456 -4.096-35.84l-69.632-69.632q-16.384-16.384 -34.816-3.072l-108.544,72.704q-7.168,5.12 -14.848,2.56t-8.704-11.776l-23.552-128q-1.024-9.216 -9.216-15.872t-17.408-6.656l-99.328,0 q-9.216,0 -17.408,6.656t-9.216,15.872l-23.552,128q-1.024,9.216 -8.704,11.776 t-14.848-2.56l-107.52-72.704q-20.48-12.288 -35.84,3.072l-69.632,69.632q-16.384,16.384 -4.096,35.84l 73.728,108.544q 5.12,8.192 2.048,14.336t-12.288,8.192l-126.976,23.552q-9.216,1.024 -15.872,9.216t-6.656,17.408l0,99.328 q0,9.216 6.656,17.408t 15.872,9.216l 126.976,23.552q 22.528,6.144 10.24,23.552l-73.728,108.544q-11.264,19.456 4.096,34.816l 69.632,69.632q 16.384,16.384 35.84,4.096l 107.52-73.728q 7.168-5.12 14.848-2.048t 8.704,12.288l 23.552,126.976q 1.024,9.216 9.216,15.872t 17.408,6.656l 99.328,0 q 9.216,0 17.408-6.656 t 9.216-15.872l 23.552-126.976q 1.024-9.216 8.704-12.288t 14.848,2.048l 108.544,73.728q 18.432,12.288 34.816-4.096l 69.632-69.632q 15.36-15.36 4.096-34.816l-73.728-108.544q-12.288-17.408 10.24-23.552zM 458.752,329.216q 64.512,0 109.568,45.056t 45.056,108.544t-45.056,109.056t-109.568,45.568q-63.488,0 -108.544-45.568t-45.056-109.056t 45.056-108.544t 108.544-45.056z" horiz-adv-x="918.528" />
<glyph unicode="&#x57;" d="M 388.93,296.697l 34.278,47.987l-37.56,37.562l-47.989-34.276c-8.9,4.976-18.429,8.942-28.441,11.779L 299.52,417.92L 246.4,417.92 
		l-9.694-58.171c-10.011-2.837-19.542-6.804-28.441-11.779L 160.276,382.247L 122.713,344.684l 34.278-47.987
		c-4.976-8.898-8.942-18.43-11.779-28.441L 87.040,258.56l0-53.12 l 58.171-9.697c 2.837-10.010, 6.804-19.542, 11.779-28.441L 122.713,119.316l 37.56-37.562
		l 47.989,34.276c 8.9-4.976, 18.429-8.942, 28.441-11.779L 246.4,46.080l 53.12,0 l 9.694,58.171c 10.011,2.837, 19.542,6.804, 28.441,11.779l 47.989-34.276
		l 37.56,37.562l-34.278,47.987c 4.976,8.898, 8.942,18.43, 11.779,28.441L 458.88,205.44l0,53.12 l-58.171,9.697
		C 397.872,278.265, 393.904,287.798, 388.93,296.697z M 272.96,178.88c-29.339,0-53.12,23.782-53.12,53.12s 23.781,53.12, 53.12,53.12s 53.12-23.782, 53.12-53.12
		S 302.299,178.88, 272.96,178.88zM 936.96,577.28l0,53.12 l-55.927,10.168c-1.031,6.678-2.351,13.262-3.921,19.745l 47.773,30.793L 904.557,740.182l-55.564-12.008
		c-3.497,5.735-7.242,11.305-11.198,16.708l 32.374,46.763l-37.562,37.56l-46.763-32.374c-5.405,3.955-10.973,7.699-16.708,11.199
		l 12.008,55.564L 732.067,883.925l-30.793-47.773c-6.484,1.57-13.068,2.891-19.745,3.921L 671.36,896l-53.12,0 l-10.169-55.927
		c-6.678-1.031-13.26-2.351-19.745-3.921L 557.534,883.925L 508.458,863.597l 12.008-55.564c-5.735-3.499-11.305-7.244-16.708-11.199
		l-46.763,32.374l-37.56-37.56l 32.374-46.763c-3.955-5.403-7.7-10.973-11.199-16.708l-55.564,12.008l-20.328-49.076l 47.773-30.793
		c-1.57-6.484-2.891-13.065-3.921-19.745L 352.64,630.4l0-53.12 l 55.927-10.168c 1.031-6.678, 2.351-13.262, 3.921-19.745l-47.773-30.793
		l 20.328-49.076l 55.564,12.008c 3.499-5.735, 7.244-11.303, 11.199-16.708l-32.374-46.763l 37.56-37.562l 46.763,32.374
		c 5.403-3.955, 10.973-7.699, 16.708-11.198l-12.008-55.564l 49.076-20.328l 30.794,47.773c 6.483-1.57, 13.065-2.891, 19.744-3.921L 618.24,311.68l 53.12,0 
		l 10.169,55.927c 6.677,1.031, 13.26,2.351, 19.745,3.921l 30.793-47.773l 49.076,20.328l-12.008,55.564
		c 5.735,3.499, 11.305,7.242, 16.708,11.198l 46.763-32.374l 37.562,37.562l-32.374,46.763c 3.955,5.405, 7.699,10.973, 11.198,16.708
		l 55.564-12.008l 20.328,49.078l-47.773,30.793c 1.57,6.484, 2.891,13.065, 3.921,19.745L 936.96,577.28z M 644.8,488.304
		c-63.808,0-115.536,51.728-115.536,115.536c0,63.808, 51.726,115.536, 115.536,115.536s 115.536-51.728, 115.536-115.536C 760.336,540.032, 708.61,488.304, 644.8,488.304z" />
<glyph unicode="&#x28;" d="M 920.912,435.065q-16.19-16.19 -39.023-16.19t-38.608,15.776l-12.454,12.454l0-347.886 q0-21.587 -15.36-37.362t-37.778-15.776l-159.413,0 l0,239.12 q0,10.794 -7.887,18.681t-18.681,7.887l-159.413,0 q-10.794,0 -18.681-7.887t-7.887-18.681l0-239.12 l-159.413,0 q-22.417,0 -37.778,15.776t-15.36,37.362l0,347.886 l-12.454-12.454q-15.776-15.776 -38.608-15.776t-39.023,16.19t-16.19,39.023t 15.776,38.608l 368.642,368.642
q 16.605,16.605 40.684,15.776q 24.078,0.83 40.684-15.776l 368.642-368.642q 15.776-15.776 15.776-38.608t-16.19-39.023z" />
<glyph unicode="&#x58;" d="M 388.16,577.28L 494.4,577.28L 494.4,471.040L 388.16,471.040zM 547.52,577.28L 653.76,577.28L 653.76,471.040L 547.52,471.040zM 706.88,577.28L 813.12,577.28L 813.12,471.040L 706.88,471.040zM 228.8,258.56L 335.040,258.56L 335.040,152.32L 228.8,152.32zM 388.16,258.56L 494.4,258.56L 494.4,152.32L 388.16,152.32zM 547.52,258.56L 653.76,258.56L 653.76,152.32L 547.52,152.32zM 388.16,417.92L 494.4,417.92L 494.4,311.68L 388.16,311.68zM 547.52,417.92L 653.76,417.92L 653.76,311.68L 547.52,311.68zM 706.88,417.92L 813.12,417.92L 813.12,311.68L 706.88,311.68zM 228.8,417.92L 335.040,417.92L 335.040,311.68L 228.8,311.68zM 813.12,896l0-53.12 l-106.24,0 L 706.88,896 L 335.040,896 l0-53.12 L 228.8,842.88 L 228.8,896 L 122.56,896 l0-849.92 l 796.8,0 L 919.36,896 L 813.12,896 z M 866.24,99.2L 175.68,99.2 L 175.68,683.52 l 690.56,0 L 866.24,99.2 z" />
<glyph unicode="&#x59;" d="M 538.624,294.4q 2.048,10.24 2.048,16.384l 100.352,100.352l 142.336-142.336l 96.256-70.656l 10.24-38.912l-106.496-106.496l-37.888,10.24l-71.68,96.256zM 773.12,214.528q-18.432,0 -31.232-12.8t-12.8-32.256q0-18.432 12.8-31.232t 31.232-12.8q 19.456,0 32.256,12.8t 12.8,31.232q0,19.456 -12.8,32.256t-32.256,12.8zM 480.256,571.904l-100.352-100.352q-6.144,0 -16.384-2.048l-72.704,71.68q-32.768-15.36 -57.344-15.36 q-75.776,0 -136.704,61.44t-61.952,137.216q0,1.024 17.408,18.432q 64.512-64.512 72.704-69.632t 46.080-5.12q 29.696,0 67.072,36.864t 37.376,67.584q0,36.864 -6.144,46.592t-68.608,71.168q 15.36,18.432 18.432,18.432q 75.776,1.024 137.216-60.928t 61.44-137.728q0-27.648 -16.384-58.368zM 804.864,398.848q0,3.072 0.512,7.68t 0.512,18.944t-1.536,28.672t-5.632,32.768t-10.752,34.304t-19.456,31.232t-29.184,24.576l-3.072,0 q-10.24,0 -34.816-22.528l-223.232-222.208 q 8.192-29.696 -8.192-48.128q-2.048-1.024 -7.168-6.144l-205.824-205.824q-5.12-5.12 -6.144-7.168q-11.264-11.264 -29.696-11.264q-41.984,0 -78.848,49.152t-8.192,78.848q 3.072,2.048 6.144,6.144l 206.848,206.848q 5.12,3.072 6.144,6.144q 11.264,11.264 28.672,11.264q 9.216,0 19.456-3.072l 198.656,198.656l 4.096,6.144q 4.096,6.144 5.632,8.192t 5.12,8.704t 4.608,11.264t 1.536,11.264t-1.024,13.824t-4.608,14.336q-16.384,29.696 -61.44,38.912l-1.024,0 q-16.384,0 -56.32,37.888l-6.144,6.144q-19.456,19.456 -20.48,25.6t 18.432,27.648l 73.728,74.752 q 17.408,17.408 26.624,17.408q 6.144,0 26.624-20.48l 6.144-6.144q 33.792-33.792 37.888-50.176q 4.096-20.48 24.576-47.104q 3.072-4.096 18.432-4.096t 19.456-4.096l 121.856-121.856q 74.752-74.752 30.72-258.048l-15.36-51.2z" horiz-adv-x="971.776" />
<glyph unicode="&#x5a;" d="M 118.675,443.488l0-406.328 l 791.821,0 l0,406.328 l-791.821,0 zM 160.352,401.814l 708.472,0 l0-31.256 l-338.608,0 l0-291.723 l-31.256,0 l0,291.723 l-338.608,0 l0,31.256 zM 118.675,599.768l0-166.699 l 791.821,0 l0,166.699 l-791.821,0 zM 222.864,578.931l 62.512,0 l-62.512-125.024l-62.512,0 zM 368.725,578.931l 62.512,0 l-62.512-125.024l-62.512,0 zM 514.587,578.931l 62.512,0 l-62.512-125.024l-62.512,0 zM 660.448,578.931l 62.512,0 l-62.512-125.024l-62.512,0 zM 806.309,578.931l 62.512,0 l-62.512-125.024l-62.512,0 zM 89.504,784.181l 30.214-163.573l 778.277,144.819
l-30.214,163.573zM 195.774,783.139l 61.47,11.461l-38.549-134.4l-61.47-11.461zM 338.51,810.227l 61.47,11.461l-38.549-134.4l-61.47-11.461zM 482.288,836.274l 61.47,11.461l-38.549-134.4l-61.47-11.461zM 626.067,863.363l 61.47,11.461l-38.549-134.4l-61.47-11.461zM 768.803,889.408l 61.47,11.461l-38.549-133.36l-61.47-11.461z" />
<glyph unicode="&#x4c;" d="M 500,770.685l-278.165-286.5l0-131.269 l0-317.756 l 180.235,0 q-1.043,9.376 -1.043,18.754l0,141.687 q0,48.966 28.651,83.345t 70.322,34.379t 70.322-34.379t 28.651-83.345l0-141.687 q0-9.376 -1.043-18.754l 180.235,0 l0,338.593 l0,110.432 zM 500,928l-437.566-455.274l 79.179,0 l 358.387,358.387l 358.387-358.387l 79.179,0 l-198.989,211.49l0,65.634 l0,157.315 q0,9.376 -14.585,15.106t-34.9,5.731t-34.9-5.731t-14.585-15.106l0-121.893 z" />
<glyph unicode="&#x39;" d="M 471.040,908.8q 178.176,0 304.128-125.952t 125.952-304.128t-125.952-304.128t-304.128-125.952t-304.128,125.952t-125.952,304.128t 125.952,304.128t 304.128,125.952zM 305.152,257.536l 441.344,221.184l-441.344,221.184l0-442.368 z" horiz-adv-x="942.080" />
<glyph unicode="&#x5b;" d="M 455.68,879.104l0-284.672 l 418.816,0 l0-189.44 l-418.816,0 l0-283.648 l-437.248,378.88z" horiz-adv-x="881.664" />
<glyph unicode="&#x5d;" d="M 424.96,121.344l0,283.648 l-417.792,0 l0,189.44 l 417.792,0 l0,284.672 l 438.272-378.88z" horiz-adv-x="881.664" />
<glyph unicode="&#x3f;" d="M 472.064,910.848q 179.2,0 305.152-126.464t 125.952-304.64t-125.952-304.64t-305.152-126.464q-178.176,0 -304.64,126.464t-126.464,304.64t 126.464,304.64t 304.64,126.464zM 500.736,221.696q 19.456,18.432 19.456,48.128t-19.456,48.128q-20.48,17.408 -50.176,17.408q-28.672,0 -49.152-17.408q-20.48-20.48 -18.432-48.128q-2.048-27.648 18.432-48.128q 19.456-17.408 49.152-17.408q 32.768,0 50.176,17.408zM 616.448,551.424q 10.24,24.576 10.24,63.488 q0,59.392 -41.984,95.232q-38.912,34.816 -110.592,34.816q-50.176,0 -87.040-12.288q-33.792-11.264 -64.512-31.744l-9.216-6.144l 47.104-89.088l 10.24,8.192q 2.048,1.024 19.456,11.264q 7.168,4.096 23.552,10.24q 10.24,4.096 23.552,6.144q 7.168,2.048 21.504,2.048q 30.72,0 38.912-10.24q 11.264-11.264 11.264-31.744q0-13.312 -7.168-25.6q-12.288-16.384 -21.504-24.576q-4.096-4.096 -8.704-8.192l-10.24-9.216t-9.728-8.192q-17.408-16.384 -30.72-34.816q-12.288-20.48 -20.48-47.104q-5.12-22.528 -5.12-41.984 q0-4.096 0.512-12.288t 0.512-12.288l 1.024-11.264l 11.264,0 l 90.112,0 l0,12.288 q0,26.624 8.192,43.008q 9.216,16.384 21.504,30.72q 14.336,14.336 29.696,25.6t 32.768,30.72q 14.336,17.408 25.6,43.008z" horiz-adv-x="944.128" />
<glyph unicode="&#x3e;" d="M 129.024,609.792l 227.328,228.352l0-684.032 l-227.328,227.328l-114.688,0 l0,228.352 l 114.688,0 zM 444.416,640.512q 76.8-51.2 76.8-143.36t-76.8-142.336l-34.816,68.608q 35.84,28.672 35.84,73.728t-35.84,73.728l0,2.048 zM 696.32,497.152q0-94.208 -47.104-172.544t-125.952-123.392l-34.816,67.584q 60.416,34.816 96.256,95.744t 35.84,132.608t-35.84,132.608t-96.256,95.744l0,2.048 l 33.792,66.56q 78.848-45.056 126.464-124.416t 47.616-172.544zM 601.088,947.712 q 120.832-67.584 193.024-187.392t 72.192-263.168t-72.192-263.168t-193.024-186.368l-33.792,67.584q 101.376,57.344 162.304,159.232t 60.928,222.72t-60.928,222.72t-163.328,159.232z" horiz-adv-x="910.336" />
<glyph unicode="&#x3c;" d="M 117.76,611.84l 227.328,228.352l0-684.032 l-227.328,227.328l-114.688,0 l0,228.352 l 114.688,0 z" horiz-adv-x="404.48" />
<glyph unicode="&#x3a;" d="M 687.104,294.4l 107.52-104.448q0-16.384 -12.288-29.184t-29.696-12.8l-247.808,0 q 1.024-4.096 1.024-12.288q0-39.936 -28.16-68.096t-68.096-28.16t-68.096,28.16t-28.16,68.096q0,2.048 0.512,6.144t 0.512,6.144l-246.784,0 q-16.384,0 -29.184,12.8t-12.8,29.184l 107.52,104.448q-1.024,8.192 -1.024,25.6l0,212.992 q0,90.112 51.712,161.792t 133.632,100.352q-4.096,11.264 -4.096,26.624q0,39.936 28.16,68.096t 68.096,28.16 t 68.096-28.16t 28.16-68.096q0-14.336 -3.072-26.624q 81.92-28.672 133.632-100.864t 51.712-161.28l0-212.992 q0-17.408 -1.024-25.6zM 356.352,821.76q0-5.12 2.048-15.36q 28.672,5.12 51.2,5.12q 23.552,0 51.2-5.12q 3.072,8.192 3.072,15.36q0,22.528 -15.872,37.888t-38.4,15.36t-37.888-15.36t-15.36-37.888z" horiz-adv-x="820.224" />
<glyph unicode="&#x7b;" d="M 769.024,498.176l-284.672,0 l0-417.792 l-189.44,0 l0,417.792 l-283.648,0 l 378.88,438.272z" horiz-adv-x="780.288" />
<glyph unicode="&#x7d;" d="M 11.264,500.224l 283.648,0 l0,418.816 l 189.44,0 l0-418.816 l 284.672,0 l-378.88-437.248z" horiz-adv-x="780.288" />
<glyph unicode="&#x2b;" d="M 471.040,910.848q 178.176,0 304.128-125.952t 125.952-304.128t-125.952-304.128t-304.128-125.952t-304.128,125.952t-125.952,304.128t 125.952,304.128t 304.128,125.952zM 726.016,460.288l0,41.984 q0,15.36 -10.752,26.112t-26.112,10.752l-123.904,0 q-15.36,0 -26.112,11.264t-10.752,26.624l0,123.904 q0,15.36 -11.264,26.112t-26.624,10.752l-41.984,0 q-15.36,0 -26.112-10.752t-10.752-26.112l0-123.904 q0-15.36 -11.264-26.624t-26.624-11.264l-122.88,0  q-16.384,0 -27.136-10.752t-10.752-26.112l0-41.984 q0-15.36 10.752-26.624t 27.136-11.264l 122.88,0 q 15.36,0 26.624-10.752t 11.264-26.112l0-123.904 q0-15.36 10.752-26.112t 26.112-10.752l 41.984,0 q 15.36,0 26.624,10.752t 11.264,26.112l0,123.904 q0,15.36 10.752,26.112t 26.112,10.752l 123.904,0 q 15.36,0 26.112,11.264t 10.752,26.624z" horiz-adv-x="942.080" />
<glyph unicode="&#x5f;" d="M 60.416,394.752l0,203.776 l 718.848,0 l0-203.776 l-718.848,0 z" horiz-adv-x="839.68" />
<glyph unicode="&#x2a;" d="M 754.688,693.76l-199.68-199.68l 199.68-200.704l-157.696-156.672l-199.68,199.68l-199.68-199.68l-157.696,156.672l 199.68,200.704l-199.68,199.68l 157.696,157.696l 199.68-199.68l 199.68,199.68z" horiz-adv-x="795.648" />
<glyph unicode="&#x21;" d="M 885.76,297.472q 37.888-63.488 11.264-109.056t-100.352-45.568l-635.904,0 q-73.728,0 -99.84,45.568t 11.776,109.056l 317.44,546.816q 36.864,63.488 89.6,63.488t 89.6-63.488zM 482.304,239.104q 23.552,0 39.424,16.384t 15.872,38.912t-15.872,38.4t-39.424,15.872q-22.528,0 -38.4-15.872t-15.872-38.4t 15.872-38.912t 38.4-16.384zM 521.216,383.488l 26.624,315.392l-130.048,0 l 26.624-315.392l 76.8,0 z" horiz-adv-x="958.464" />
<glyph unicode="&#x2d;" d="M 472.064,906.752q 178.176,0 304.128-126.464t 125.952-304.64t-125.952-304.64t-304.128-126.464q-179.2,0 -305.152,126.464t-125.952,304.64t 125.952,304.64t 305.152,126.464zM 710.656,456.192l0,39.936 q0,19.456 -14.336,33.792t-33.792,14.336l-385.024,0 q-19.456,0 -33.792-14.336t-14.336-33.792l0-39.936 q0-20.48 14.336-34.304t 33.792-13.824l 385.024,0 q 19.456,0 33.792,13.824t 14.336,34.304z" horiz-adv-x="943.104" />
<glyph unicode="&#x35;" d="M 60.416,111.104l0,714.752 l 268.288,0 l0-714.752 l-268.288,0 zM 506.88,825.856l 268.288,0 l0-714.752 l-268.288,0 l0,714.752 z" horiz-adv-x="835.584" />
<glyph unicode="&#x36;" d="M 776.192,112.128l-715.776,0 l0,714.752 l 715.776,0 l0-714.752 z" horiz-adv-x="836.608" />
<glyph unicode="&#x37;" d="M 433.152,537.088l0,186.368 l 496.64-248.832l-496.64-247.808l0,185.344 l-372.736-185.344l0,496.64 z" horiz-adv-x="944.128" />
<glyph unicode="&#x38;" d="M 512,412.16l0-186.368 l-497.664,248.832l 497.664,247.808l0-186.368 l 371.712,186.368l0-496.64 z" horiz-adv-x="944.128" />
<glyph unicode="&#x33;" d="M 22.528,436.736q-10.24,10.24 -10.24,24.576t 10.24,24.576l 84.992,84.992q 10.24,10.24 24.064,10.24t 24.064-10.24l 139.264-138.24q 10.24-10.24 24.064-10.24t 24.064,10.24l 379.904,380.928q 10.24,10.24 24.064,10.24t 24.064-10.24l 84.992-83.968q 10.24-10.24 10.24-24.064t-10.24-24.064l-460.8-461.824q-24.576-24.576 -58.368-24.576l-39.936,0 q-32.768,0 -57.344,24.576z" horiz-adv-x="888.832" />
<glyph unicode="&#x32;" d="M 470.016,909.824q 178.176,0 304.128-125.952t 125.952-304.128t-125.952-304.128t-304.128-125.952q-177.152,0 -303.104,125.952t-125.952,304.128t 125.952,304.128t 303.104,125.952zM 745.472,593.408q 6.144,6.144 6.144,15.36t-6.144,16.384l-56.32,55.296q-6.144,6.144 -15.36,6.144t-16.384-6.144l-248.832-249.856q-15.36-16.384 -31.744,0l-90.112,90.112q-16.384,16.384 -31.744,0l-56.32-55.296q-6.144-7.168 -6.144-16.384t 6.144-15.36l 142.336-143.36q 15.36-15.36 37.888-15.36l 26.624,0 q 20.48,0 37.888,15.36z " horiz-adv-x="941.056" />
<glyph unicode="&#x2c;" d="M 470.016,906.752q 177.152,0 302.592-125.952t 125.44-303.104t-125.44-302.592t-302.592-125.44t-303.104,125.44t-125.952,302.592t 125.952,303.104t 303.104,125.952zM 587.776,450.048q-11.264,12.288 -11.264,28.672t 11.264,28.672l 111.616,110.592q 11.264,12.288 11.264,29.184t-11.264,28.16l-31.744,31.744q-12.288,11.264 -29.184,11.264t-28.16-11.264l-110.592-111.616q-12.288-11.264 -29.184-11.264t-28.16,11.264l-111.616,111.616 q-11.264,11.264 -28.16,11.264t-28.16-11.264l-31.744-31.744q-11.264-11.264 -11.264-28.16t 11.264-29.184l 111.616-110.592q 11.264-12.288 11.264-28.672t-11.264-28.672l-111.616-110.592q-11.264-12.288 -11.264-29.184t 11.264-28.16l 31.744-31.744q 11.264-11.264 28.16-11.264t 28.16,11.264l 111.616,111.616q 11.264,11.264 28.16,11.264t 29.184-11.264l 110.592-111.616q 11.264-11.264 28.16-11.264t 29.184,11.264l 31.744,31.744q 11.264,11.264 11.264,28.16t-11.264,29.184z " horiz-adv-x="939.008" />
<glyph unicode="&#x60;" d="M 313.344,579.072l-155.648,156.672l-97.28-98.304l0,283.648 l 283.648,0 l-97.28-97.28l 155.648-155.648zM 801.792,268.8l 97.28,97.28l0-282.624 l-283.648,0 l 97.28,97.28l-155.648,154.624l 89.088,89.088zM 646.144,579.072l-89.088,89.088l 155.648,155.648l-97.28,97.28l 282.624,0 l0-283.648 l-96.256,97.28zM 313.344,424.448l 89.088-89.088l-155.648-155.648l 97.28-97.28l-283.648,1.024l0,283.648 l 97.28-98.304z" horiz-adv-x="958.464" />
<glyph unicode="&#x7e;" d="M 471.040,907.776q 178.176,0 304.128-125.952t 125.952-304.128t-125.952-304.128t-304.128-125.952t-304.128,125.952t-125.952,304.128t 125.952,304.128t 304.128,125.952zM 643.072,226.816l0,237.568 l-169.984,0 l 148.48,171.008l-114.688,0 l0,138.24 l-76.8,0 l0-138.24 l-114.688,0 l 147.456-171.008l-165.888,0 l0-237.568 l 148.48,0 l-39.936-39.936l 129.024,0 l-39.936,39.936l 148.48,0 zM 340.992,269.824l0,151.552 l 259.072,0 l0-151.552 l-259.072,0 z" horiz-adv-x="942.080" />
<glyph unicode="&#x27;" d="M 271.36,334.336q 79.872,79.872 193.024,79.872t 193.024-79.872q 1.024,0 1.024-1.024l-56.32-56.32q-1.024,0 -1.024,1.024q-56.32,56.32 -136.192,56.32t-136.192-56.32zM 143.36,462.336q 87.040,87.040 204.288,118.272t 233.984,0t 203.776-118.272l 1.024-1.024l-57.344-57.344q0,1.024 -1.024,1.024q-108.544,108.544 -263.68,109.056t-263.68-108.032zM 914.432,593.408q0-2.048 2.048-2.048l-57.344-57.344l-2.048,2.048q-106.496,106.496 -249.856,144.384t-286.208,0 t-249.344-144.384q-1.024,0 -1.024-1.024l-57.344,57.344l 1.024,1.024q 122.88,121.856 286.72,165.376t 327.168,0t 286.208-165.376zM 401.408,205.312q 26.624,25.6 64.512,25.6t 64.512-25.6l-64.512-64.512z" horiz-adv-x="929.792" />
<glyph unicode="&#x22;" d="M 53.248,487.936q 1.024,66.56 7.68,117.76t 27.136,103.936t 54.784,88.576t 92.672,59.904t 138.24,29.184l0-160.768 q-67.584,0 -97.28-47.616t-29.696-151.040l-4.096-1.024l 86.016,0 q 18.432,0 31.744-13.312t 13.312-32.768l0-264.192 q0-18.432 -13.312-31.744t-31.744-13.312l-230.4,0 q-18.432,0 -31.744,13.312t-13.312,31.744l0,264.192 l0,7.168 zM 504.832,487.936q0,66.56 7.168,117.76t 27.648,103.936t 54.784,88.576t 92.672,59.904t 138.24,29.184l0-160.768  q-68.608,0 -98.304-47.616t-29.696-151.040l-4.096-1.024l 86.016,0 q 18.432,0 31.744-13.312t 13.312-32.768l0-264.192 q0-18.432 -13.312-31.744t-31.744-13.312l-229.376,0 q-19.456,0 -32.768,13.312t-13.312,31.744l0,264.192 q0,5.12 1.024,7.168z" horiz-adv-x="885.76" />
<glyph unicode="&#x2f;" d="M 709.632,741.888l 185.344,0 l0-130.048 l0-308.224 l-185.344,0 l0-54.272 l-139.264-139.264l-344.064,0 l0,193.536 l-185.344,0 l0,308.224 l0,130.048 l 185.344,0 l0,166.912 l 483.328,0 l0-166.912 zM 835.584,683.52l-107.52,0 l0-54.272 l 107.52,0 l0,54.272 zM 281.6,853.504l0-111.616 l 372.736,0 l0,111.616 l-372.736,0 zM 514.048,165.376l0,139.264 l 140.288,0 l0,134.144 l0,56.32 l 55.296,0 l0-132.096 l 68.608,0 l0,201.728 l-618.496,0 l0-201.728 l 66.56,0 l0,113.664 l0,18.432 l 55.296,0 l0-56.32 l0-273.408 l 232.448,0 z" horiz-adv-x="933.888" />
<glyph unicode="&#x24;" d="M 401.332,904.372 C 427,930.040 448,921.34 448,885.040 L 448,57.040 C 448,20.74 427,12.042 401.332,37.71 L 160,279.040 L 0,279.040 L 0,663.040 L 160,663.040 L 401.332,904.372 ZM 960,363.892 L 960,279.040 L 875.148,279.040 L 768,386.188 L 660.852,279.040 L 576,279.040 L 576,363.892 L 683.148,471.040 L 576,578.188 L 576,663.040 L 660.852,663.040 L 768,555.892 L 875.148,663.040 L 960,663.040 L 960,578.188 L 852.852,471.040 Z"  />
<glyph unicode="&#x25;" d="M 890.040,61c-12.286,0-24.568,4.686-33.942,14.058c-18.744,18.746-18.744,49.136,0,67.882
		C 943.736,230.582, 992.002,347.1, 992.002,471.040c0,123.938-48.266,240.458-135.904,328.098c-18.744,18.746-18.744,49.138,0,67.882
		c 18.744,18.744, 49.138,18.744, 67.882,0c 105.77-105.772, 164.022-246.4, 164.022-395.98c0-149.582-58.252-290.208-164.022-395.98
		C 914.608,65.686, 902.324,61, 890.040,61zM 719.53,151.51c-12.286,0-24.568,4.686-33.942,14.058c-18.744,18.744-18.744,49.136,0,67.882
		c 131.006,131.006, 131.006,344.17,0,475.176c-18.744,18.746-18.744,49.138,0,67.882c 18.744,18.742, 49.138,18.744, 67.882,0
		C 835.064,694.916, 880,586.432, 880,471.040c0-115.39-44.936-223.876-126.53-305.47C 744.098,156.196, 731.814,151.51, 719.53,151.51zM 549.020,242.020c-12.286,0-24.568,4.686-33.942,14.058c-18.746,18.746-18.746,49.136,0,67.882
		c 81.1,81.1, 81.1,213.058,0,294.156c-18.746,18.746-18.746,49.138,0,67.882c 18.746,18.744, 49.136,18.744, 67.882,0
		c 118.53-118.53, 118.53-311.392,0-429.922C 573.588,246.706, 561.304,242.020, 549.020,242.020zM 401.332,904.372 C 427,930.040 448,921.34 448,885.040 L 448,57.040 C 448,20.74 427,12.042 401.332,37.71 L 160,279.040 L 0,279.040 L 0,663.040 L 160,663.040 L 401.332,904.372 Z" horiz-adv-x="1088"  />
<glyph unicode="&#x34;" d="M 60.416,826.88l 718.848-359.424l-718.848-358.4l0,717.824 z" horiz-adv-x="780.288" />
<glyph unicode="&#x20;" horiz-adv-x="512" />
</font>
</defs>
</svg>
